<svg width="345" height="269" viewBox="0 0 345 269" fill="none" xmlns="http://www.w3.org/2000/svg">
<path d="M239.118 241.225C217.986 252.803 195.537 256.715 171.533 259.843C148.652 262.824 128.99 260.127 110.962 244.815C97.3696 233.27 85.9188 218.929 75.1031 204.865C63.1985 189.385 51.5914 173.258 42.25 156.066C29.1965 132.041 17.7291 102.511 25.4687 74.9139C36.4447 35.7773 77.6833 16.0062 114.301 8.16413C154.531 -0.451375 199.132 -0.66256 239.118 9.54171C275.365 18.7919 316.4 39.604 332.543 75.4983C360.918 138.592 325.972 219.405 267 248.5C247.474 258.133 221.5 253.964 197.123 250.909C176.167 248.283 160.475 242.636 146 237.802C124.5 230.622 111.275 221.409 93.8047 209.916C70.016 194.266 46.4194 167.998 31.1877 142.916C15.2964 116.748 25.9426 86.7707 43.3354 64.3107C69.7834 30.1575 110.093 18.3244 151.663 15.219C196.642 11.8589 244.364 18.2671 282.491 44.0228C292.589 50.8447 299.443 56.8063 306.285 66.7737C314.8 79.1787 317.287 93.2206 316.93 108.059C316.066 143.979 303.609 181.422 281.614 209.916C264.003 232.73 239.979 250.228 211.65 256.712C179.634 264.04 150.179 253.654 122.567 237.802C95.7829 222.424 67.94 203.745 46.842 180.945C24.8117 157.138 20.2007 127.328 31.2295 97.0386C44.7906 59.7939 75.2985 27.0769 112.298 12.4638C153.972 -3.99592 204.5 -0.429258 245.547 16.1374C274.493 27.8201 301.589 47.7642 318.475 74.2877C335.923 101.694 341.921 137.013 336.675 168.923C332.521 194.197 318.613 216.841 296.726 230.622C267.604 248.957 229.606 247.309 197.123 241.225C138.057 230.162 71.9888 192.934 64.2077 127.721C60.7087 98.3959 71.3042 68.4357 93.8047 48.9069C120.316 25.8975 157.903 19.9403 191.821 23.234C222.562 26.2192 253.075 37.0638 277.774 55.8783C303.969 75.8327 316.854 104.022 315.845 136.863C314.928 166.687 305.444 195.832 288.585 220.394C274.533 240.869 253.585 263.795 227.429 267.023C209.057 269.29 191.629 261.014 176.167 252.078C146.556 234.966 117.378 214.159 92.0097 191.215C74.7216 175.579 56.7454 158 49 132C43.3354 112.985 50.5094 88.7928 58.5 75.4983C68.754 58.438 85 41.5 105 32.5C168 -3 268.337 -0.4034 316.095 58.049C334.968 81.1478 341.66 110.675 340.599 139.994C339.304 175.812 326.542 214.062 298.437 237.76C278.752 254.358 254.241 259.071 229.099 259.008C190.031 258.91 149.572 249.513 112.548 237.551C95.0513 231.898 78.5436 222.936 62.6214 213.924C44.7898 203.83 24.3066 193.1 12.3609 175.602C-3.57568 152.259 0.746828 123.256 11.2755 98.9588C22.4676 73.1308 38.777 49.7298 62.8719 34.505C95.7467 13.7325 136.985 6.82806 175.165 12.6308C204.523 17.0927 233.424 28.8866 256.734 47.4459C278.483 64.7621 296.182 88.403 308.915 112.985C314.669 124.093 320.22 136.399 321.146 149.052C321.871 158.958 317.063 171.77 313.5 180.945C306.547 198.849 295.611 209.149 285 213.924C269.789 220.769 253.752 233.207 239.118 241.225Z" stroke="black" stroke-width="3" stroke-linecap="round"/>
</svg>
