<svg width="201" height="97" viewBox="0 0 201 97" fill="none" xmlns="http://www.w3.org/2000/svg">
<path d="M186.731 34.4375H187.929C189.083 34.4375 189.709 33.9795 189.709 33.0522C189.709 32.1249 189.083 31.8022 187.929 31.8022H186.731V34.4375ZM189.816 38.5002L188.016 35.4062H186.731V38.5002H185.48V30.8335H188.08C189.72 30.8335 190.95 31.3962 190.95 33.0522C190.95 34.2395 190.292 34.9482 189.288 35.2502L191.23 38.5002H189.816Z" fill="#16509B"/>
<path d="M188 28.5648C184.635 28.5648 181.898 31.3022 181.898 34.6668C181.898 38.0315 184.635 40.7688 188 40.7688C191.365 40.7688 194.102 38.0315 194.102 34.6668C194.102 31.3022 191.365 28.5648 188 28.5648ZM188 42.3335C183.772 42.3335 180.333 38.8942 180.333 34.6668C180.333 30.4395 183.772 27.0002 188 27.0002C192.228 27.0002 195.667 30.4395 195.667 34.6668C195.667 38.8942 192.228 42.3335 188 42.3335Z" fill="#16509B"/>
<path d="M114.651 73.5358C106.894 78.3784 97.5244 76.8651 97.5244 76.8651L97.4024 21.0964C97.4024 21.0964 105.662 21.0271 112.704 24.1544C120.53 27.2818 128.392 35.9824 128.492 48.7251C128.591 61.4738 121.637 69.4938 114.651 73.5358ZM142.834 26.6384C142.834 26.6384 143.472 26.5424 123.208 26.7071V6.52644C123.208 6.52644 121.598 3.42978 112.524 1.05978C109.462 0.333113 106.428 0.333115 103.395 0.333115H76.0911V52.3691L97.3277 96.3298H112.496C112.496 96.3298 149.072 89.9911 148.755 49.3618C148.625 32.6271 142.834 26.6384 142.834 26.6384Z" fill="#16509B"/>
<path d="M36.3333 65L45.6666 45L55.6666 65H36.3333ZM45.6666 0.336655L0.333313 96.3333H22.3333L28.3333 83.6666H63L69 96.3333H91L45.6666 0.336655Z" fill="#16509B"/>
<path d="M127.606 0.336594V22.0133H154.879V96.3333H176.091V22.0133H200.333V0.336594H127.606Z" fill="#16509B"/>
</svg>
