<svg width="741" height="262" viewBox="0 0 741 262" fill="none" xmlns="http://www.w3.org/2000/svg">
<g id="g14">
<g id="tx_5">
<path id="path30" d="M696.956 183.262L718.92 213.64C720.719 216.125 723.528 217.475 726.375 217.511L737.252 217.488L704.072 171.562H694.354C691.499 171.596 688.69 172.937 686.879 175.431L656.487 217.488H672.231L696.956 183.262Z" fill="#E57735"/>
<path id="path32" d="M652.605 239.373H740.91V248.776H652.605V239.373Z" fill="#E57735"/>
</g>
<g id="tx_4">
<g id="g64">
<path id="path66" d="M639.789 171.561V249.615C639.789 255.071 635.367 259.491 629.915 259.491H626.357V171.561H639.789Z" fill="#E57735"/>
</g>
<g id="g68">
<path id="Union" fill-rule="evenodd" clip-rule="evenodd" d="M601.012 193.849V171.561H614.444V224.174C614.444 229.629 610.02 234.036 604.591 234.036H570.652C565.205 234.036 560.777 229.629 560.777 224.174V171.561H574.206V193.849H601.012ZM601.012 203.261V224.648H574.206V203.261H601.012Z" fill="#E57735"/>
</g>
</g>
<g id="tx_3">
<g id="g20">
<path id="path22" d="M487.88 171.561C485.783 171.597 483.714 172.947 482.397 175.432L460.108 234.074H473.974L491.886 186.503L507.807 230.227C508.825 232.672 511.207 234.026 513.31 234.074H523.336L498.892 171.561H487.88Z" fill="#E57735"/>
</g>
<g id="g24">
<path id="path26" d="M512.01 205.027H528.437V259.503H532.001C537.443 259.503 541.88 255.07 541.88 249.627V171.56H528.437V195.615H512.01V205.027Z" fill="#E57735"/>
</g>
</g>
<g id="tx_2">
<g id="g34">
<path id="path36" d="M389.233 224.113C403.645 224.113 411.515 211.749 411.515 196.501C411.515 181.278 403.645 168.918 389.233 168.918C374.804 168.918 366.935 181.278 366.935 196.501C366.935 211.749 374.804 224.113 389.233 224.113ZM380.122 195.989C380.122 186.235 383.182 178.308 389.233 178.308C395.28 178.308 398.344 186.235 398.344 195.989C398.344 205.772 395.28 213.701 389.233 213.701C383.182 213.701 380.122 205.772 380.122 195.989Z" fill="#E57735"/>
</g>
<g id="g38">
<path id="path40" d="M399.526 233.173H386.075V249.616C386.075 255.06 390.514 259.491 395.958 259.491H449.338V250.077H399.526V233.173Z" fill="#E57735"/>
</g>
<g id="g42">
<path id="path44" d="M434.19 171.561V190.511H428.73V171.561H415.577V234.074H428.73V199.914H434.19V234.074H447.33V171.561H434.19Z" fill="#E57735"/>
</g>
</g>
<g id="tx_1">
<g id="g46">
<path id="Union_2" fill-rule="evenodd" clip-rule="evenodd" d="M316.505 200C315.027 212.486 307.379 221.956 294.501 221.956C280.096 221.956 272.243 210.107 272.243 195.44C272.243 180.808 280.096 168.936 294.501 168.936C307.244 168.936 314.867 178.227 316.456 190.5H320.842V171.567H333.975V220.58H320.842V200H316.505ZM294.501 177.95C288.464 177.95 285.397 185.56 285.397 194.939C285.397 204.356 288.464 211.97 294.501 211.97C300.552 211.97 303.589 204.356 303.589 194.939C303.589 185.56 300.552 177.95 294.501 177.95Z" fill="#E57735"/>
</g>
<g id="g50">
<path id="path52" d="M339.436 220.58H352.569V171.567H339.436V220.58Z" fill="#E57735"/>
</g>
<g id="g60">
<path id="path62" d="M291.35 249.621C291.35 255.054 295.789 259.483 301.227 259.483H342.689C348.139 259.483 352.568 255.054 352.568 249.621V226.092H291.35V249.621ZM339.132 250.086H304.793V235.484H339.132V250.086Z" fill="#E57735"/>
</g>
</g>
<g id="tx_sk">
<g id="g74">
<path id="path76" d="M49.1588 192.173C39.8803 187.826 32.2848 184.327 32.2848 177.241C32.2848 171.83 36.6205 167.907 45.1637 167.907C48.3028 167.907 50.8815 168.269 53.5394 168.759C54.9288 169.008 56.4064 169.206 57.6408 169.206C67.3458 169.206 70.6677 160.684 73.2803 152.846C72.0838 152.365 59.8951 147.004 43.9852 147.004C18.6563 147.004 5.29629 163.242 5.29629 180.085C5.29629 188.583 7.97226 194.737 12.1241 199.595C17.4886 205.836 25.1507 209.906 32.3065 213.379C42.7365 218.511 52.1501 222.297 52.1501 229.878C52.1501 236.612 45.1818 240.448 35.8943 240.448C23.1577 240.448 12.0105 233.165 10.605 232.284L0.146179 251.884C2.00945 252.943 15.4704 261.503 37.662 261.503C61.2772 261.483 79.1657 247.927 79.1657 227.099C79.1657 206.347 62.5837 198.656 49.1588 192.173Z" fill="#C42C3A"/>
</g>
<g id="g78">
<path id="path80" d="M141.554 201.837L184.413 149.294H153.88L119.688 194.627H119.177V149.294H94.0298V260.609H95.5092C106.417 260.609 119.344 255.576 119.344 237.399V211.818H119.86L154.698 259.231H186.73L141.554 201.837Z" fill="#C42C3A"/>
</g>
</g>
<g id="logo_bf">
<g id="g82">
<path id="path84" d="M185.826 30.0502C176.98 31.7314 163.843 39.7702 163.888 53.9987C163.916 66.9155 174.481 74.7344 174.504 91.6696C174.567 104.404 167.536 112.982 159.962 117.735C163.011 117.451 166.377 117.289 170.073 117.28C177.832 117.251 182.494 117.997 182.793 118.056L222.547 69.2509C211.501 52.741 198.606 39.9107 185.826 30.0502Z" fill="#C42C3A"/>
</g>
<g id="g86">
<path id="path88" d="M219.241 161.791C224.24 154.013 224.869 141.592 225.3 128.944C225.774 117.148 228.235 108.275 244.012 108.21C247.495 108.21 250.836 108.691 256.863 108.666C279.983 108.578 295.066 100.607 304.469 95.3817C285.285 83.1569 257.28 70.6708 222.548 69.2509C220.283 75.6444 202.677 124.596 201.349 128.535C201.556 128.782 204.627 132.245 208.487 138.976C214.167 148.227 217.209 156.077 219.241 161.791Z" fill="#C42C3A"/>
</g>
<g id="g90">
<path id="path92" d="M135.272 121.825C133.264 121.832 132.257 120.495 131.978 118.167C131.727 115.874 121.791 24.9004 120.31 11.1494C120.101 9.14736 119.591 5.46227 119.583 4.12878C119.583 2.01684 120.973 0.917625 122.586 0.917625C127.309 0.892395 152.984 6.90927 180.221 25.9943C172.378 28.2143 158.171 36.3702 158.22 53.2819C158.285 68.2475 168.989 76.4773 169.065 91.4879C169.142 115.905 141.065 121.801 135.272 121.825Z" fill="#E57735"/>
</g>
<g id="g94">
<path id="path96" d="M221.513 168.285C221.949 169.42 222.349 170.372 222.748 171.031C223.369 172.114 224.202 172.576 225.191 172.569C225.831 172.569 226.607 172.36 227.462 171.97C229.565 171.024 312.588 132.359 325.087 126.603C326.905 125.706 330.332 124.192 331.484 123.509C332.661 122.828 333.199 121.869 333.199 120.885C333.192 120.311 333.035 119.757 332.715 119.249C331.147 116.719 323.115 108.192 309.69 98.8757C299.033 104.754 282.39 113.816 257.625 113.926C251.544 113.926 250.179 113.512 246.033 113.539C233.934 113.587 230.927 118.754 230.489 129.342C230.411 131.357 230.359 134.036 230.265 136.99C229.882 146.485 228.75 159.542 221.513 168.285Z" fill="#E57735"/>
</g>
</g>
</g>
</svg>
