<?xml version="1.0" encoding="utf-8"?>
<!-- Generator: Adobe Illustrator 16.2.0, SVG Export Plug-In . SVG Version: 6.00 Build 0)  -->
<!DOCTYPE svg PUBLIC "-//W3C//DTD SVG 1.1//EN" "http://www.w3.org/Graphics/SVG/1.1/DTD/svg11.dtd">
<?xml-stylesheet type="text/css" href="style.css"?>
<svg version="1.1" id="Layer_1" xmlns="http://www.w3.org/2000/svg" xmlns:xlink="http://www.w3.org/1999/xlink" x="0px" y="0px"
	 viewBox="0 0 294.276 43.126" enable-background="new 0 0 294.276 43.126"
	 xml:space="preserve" class="name">
	<path class="name-1" d="M30.739,24.671c1.178,2.004,1.913,4.207,1.54,6.674c-1.31,8.657-8.778,11.781-15.781,11.781
		c-5.116,0-9.187-1.675-12.213-5.026c-3.027-3.351-4.45-6.773-4.27-10.268h7.512c0.036,2.27,1.442,7.795,8.971,8.161
		c2.339,0.114,6.346-0.334,7.729-4.648c0.439-1.371,0.024-5.718-8.782-7.134c-1.924-0.31-8.506-1.584-12.105-6.08
		c-1.493-1.865-2.249-4.203-1.919-6.891C1.813,8.034,4.219-0.011,16.174,0c8.957,0.008,14.702,5.784,14.916,13.998h-7.458
		c-0.036-1.909-1.128-6.734-7.35-6.917c-5.813-0.171-6.57,3.563-6.755,4.593c-0.745,4.142,7.872,5.937,9.998,6.35
		C21.65,18.438,28.032,20.065,30.739,24.671z"/>
	<path class="name-2" d="M43.25,29.454c0.407,1.903,2.157,6.377,7.08,6.377c3.411,0,5.602-2.45,5.891-2.918l7.89,0.054
		c-2.411,6.516-7.536,9.932-13.727,9.674c-7.687-0.321-14.435-5.242-14.862-15.889c-0.174-4.331,2.594-15.727,14.862-15.727
		c7.273,0,15.815,4.915,14.429,18.375L43.25,29.454z M56.922,23.185c-0.469-1.621-1.974-5.458-6.593-5.458
		c-4.672,0-6.45,4.018-6.917,5.458H56.922z"/>
	<path class="name-3" d="M98.21,26.698c0,4.359-2.637,15.942-14.97,15.942c-12.042,0-14.862-11.583-14.862-15.942s2.571-15.835,14.916-15.835
		C95.407,10.863,98.21,22.19,98.21,26.698z M90.374,26.698c0-2.45-1.175-8.755-7.134-8.755c-5.916,0-7.08,6.306-7.08,8.755
		c0,2.45,1.122,8.917,7.08,8.917C89.199,35.615,90.374,29.148,90.374,26.698z"/>
	<path class="name-4" d="M140.633,41.613V25.13c0-2.125-0.351-6.702-5.134-6.702c-5.217,0-5.891,4.846-5.891,7.08v16.104h-7.674V12.322h7.674v1.837
		c1.116-1.045,3.632-3.135,9.133-2.918c4.375,0.172,9.566,4.741,9.566,10.43v19.942H140.633z"/>
	<path class="name-5" d="M174.789,41.613c-0.181-0.397-0.882-2.205-0.919-3.243c-2.432,2.116-6.816,3.721-9.512,3.945
		c-8.42,0.702-10.652-4.365-11.079-7.566c-0.45-3.373,0.584-10.585,12.322-11.754c7.462-0.743,8.196-1.806,8.214-3.216
		c0.009-0.72-0.705-2.259-5.998-2.27c-4.129-0.008-6.582,2.555-6.485,4.81h-7.025c-0.628-4.526,3.726-11.376,13.349-11.295
		c9.939,0.083,13.835,4.853,13.835,9.62v15.781c0,2.598,0.882,4.791,1.026,5.188H174.789z M173.815,27.562
		c-1.846,1.024-5.352,1.543-6.755,1.757c-7.091,1.08-6.359,3.54-5.999,4.404c0.433,1.117,1.763,2.571,6.432,1.135
		c1.394-0.429,6.477-2.959,6.377-5.621L173.815,27.562z"/>
	<path class="name-6" d="M219.264,41.613V24.266c0-1.693,0.184-6.161-3.62-6.161c-3.946,0-4.486,4.63-4.486,6.864v16.645h-7.62V24.266
		c0-1.657,0.119-6.161-3.729-6.161c-4.027,0-4.27,4.63-4.27,6.864v16.645h-7.674V12.322h7.674v1.945
		c0.757-0.756,3.158-3.026,7.025-3.026c4.092,0,6.233,2.576,6.918,3.729c0.684-0.865,3.845-4.447,9.133-3.783
		c7.332,0.92,8.377,7.657,8.377,10.106v20.32H219.264z"/>
	<path class="name-7" d="M252.663,41.613V25.022c0-2.125-0.172-6.332-5.079-6.485c-5.341-0.167-6.054,4.792-6.054,7.025v15.889h-7.565V1.459h7.62
		v12.754c1.116-1.044,4.558-3.474,9.512-2.972c7.728,0.782,9.241,8.143,9.241,10.268v20.104H252.663z"/>
	<path class="name-8" d="M294.276,26.698c0,4.359-2.637,15.942-14.97,15.942c-12.042,0-14.862-11.583-14.862-15.942s2.571-15.835,14.916-15.835
		C291.473,10.863,294.276,22.19,294.276,26.698z M286.44,26.698c0-2.45-1.175-8.755-7.134-8.755c-5.916,0-7.079,6.306-7.079,8.755
		c0,2.45,1.121,8.917,7.079,8.917C285.265,35.615,286.44,29.148,286.44,26.698z"/>
</svg>
