<svg width="9" height="14" viewBox="0 0 9 14" fill="none" xmlns="http://www.w3.org/2000/svg">
<path d="M0.807672 1.19229C0.749603 1.13422 0.703541 1.06528 0.672115 0.989414C0.640688 0.913544 0.624512 0.832226 0.624512 0.750104C0.624512 0.667982 0.640688 0.586664 0.672115 0.510794C0.703541 0.434923 0.749603 0.365985 0.807672 0.307916C0.865741 0.249847 0.934679 0.203785 1.01055 0.172358C1.08642 0.140932 1.16774 0.124756 1.24986 0.124756C1.33198 0.124756 1.4133 0.140932 1.48917 0.172358C1.56504 0.203785 1.63398 0.249847 1.69205 0.307917L7.94205 6.55792C8.00016 6.61596 8.04626 6.68489 8.07771 6.76077C8.10916 6.83664 8.12535 6.91797 8.12535 7.0001C8.12535 7.08224 8.10916 7.16357 8.07771 7.23944C8.04626 7.31532 8.00016 7.38425 7.94205 7.44229L1.69205 13.6923C1.57477 13.8096 1.41571 13.8755 1.24986 13.8755C1.08401 13.8755 0.924947 13.8096 0.807671 13.6923C0.690396 13.575 0.624511 13.416 0.624511 13.2501C0.624511 13.0843 0.690396 12.9252 0.807671 12.8079L6.61627 7.0001L0.807672 1.19229Z" fill="#2C466E"/>
</svg>
