<?xml version="1.0" encoding="utf-8"?>
<!-- Generator: Adobe Illustrator 16.2.0, SVG Export Plug-In . SVG Version: 6.00 Build 0)  -->
<!DOCTYPE svg PUBLIC "-//W3C//DTD SVG 1.1//EN" "http://www.w3.org/Graphics/SVG/1.1/DTD/svg11.dtd">
<svg version="1.1" id="Layer_1" xmlns="http://www.w3.org/2000/svg" xmlns:xlink="http://www.w3.org/1999/xlink" x="0px" y="0px" viewBox="0 0 100 100" enable-background="new 0 0 100 100" xml:space="preserve">
	<defs>
		<path id="SVGID_1_" d="M9.836,0C4.426,0,0,4.426,0,9.836v80.329C0,95.573,4.426,100,9.836,100h80.327c5.41,0,9.837-4.428,9.837-9.836V9.836C100,4.426,95.573,0,90.163,0H9.836z"/>
	</defs>

	<clipPath id="SVGID_2_">
		<use xlink:href="#SVGID_1_"  overflow="visible"/>
	</clipPath>
	
	<linearGradient id="SVGID_3_" gradientUnits="userSpaceOnUse" x1="-341.9868" y1="290.8364" x2="-340.9868" y2="290.8364" gradientTransform="matrix(100 0 0 -100 34198.7031 29133.709)">
		<stop  offset="0" style="stop-color:#E5DD4A"/>
		<stop  offset="0.0237" style="stop-color:#E5DC47"/>
		<stop  offset="0.1784" style="stop-color:#E4D83C"/>
		<stop  offset="0.3958" style="stop-color:#E4D635"/>
		<stop  offset="1" style="stop-color:#E4D533"/>
	</linearGradient>
	<rect clip-path="url(#SVGID_2_)" fill="url(#SVGID_3_)" width="99.999" height="100"/>

	<path fill="#381E1F" d="M49.847,18.951c-18.653,0-33.773,11.954-33.773,26.7c0,9.599,6.406,18.011,16.022,22.717c-0.707,2.638-2.558,9.555-2.928,11.033c-0.459,1.837,0.671,1.814,1.413,1.319c0.581-0.387,9.254-6.284,12.997-8.83c2.031,0.301,4.127,0.461,6.269,0.461c18.653,0,33.774-11.954,33.774-26.7S68.5,18.951,49.847,18.951"/>
	<defs>
		<path id="SVGID_4_" d="M26.466,40.018c-2.064,0.003-2.06,3.625,0.006,3.625h3.52c0,0,0.021,9.419,0.003,11.672c0.007,1.644,3.661,1.542,3.656-0.102l0.017-11.881c0,0,1.18-0.023,3.503-0.022c2.189,0.002,2.19-3.472,0.002-3.473C34.708,39.837,26.466,40.018,26.466,40.018"/>
	</defs>

	<clipPath id="SVGID_5_">
		<use xlink:href="#SVGID_4_"  overflow="visible"/>
	</clipPath>
	
		<linearGradient id="SVGID_6_" gradientUnits="userSpaceOnUse" x1="-347.8828" y1="301.6948" x2="-346.8828" y2="301.6948" gradientTransform="matrix(13.8924 0 0 -13.8924 4857.8447 4239.6616)">
		<stop  offset="0" style="stop-color:#E5DD4A"/>
		<stop  offset="0.0237" style="stop-color:#E5DC47"/>
		<stop  offset="0.1784" style="stop-color:#E4D83C"/>
		<stop  offset="0.3958" style="stop-color:#E4D635"/>
		<stop  offset="1" style="stop-color:#E4D533"/>
	</linearGradient>
	<rect x="24.401" y="39.837" clip-path="url(#SVGID_5_)" fill="url(#SVGID_6_)" width="14.959" height="17.121"/>
	<defs>
		<path id="SVGID_7_" d="M43.318,43.769l1.96,6.137h-4.084L43.318,43.769z M41.125,40.894C40.258,42.801,37.13,51.81,36.091,54.2c-0.752,1.728,2.487,3.135,3.237,1.408l0.704-2.464h6.442c0,0-0.221,0.102,0.634,2.358c0.693,1.828,4.037,0.561,3.344-1.268c-0.988-2.609-4.409-12.01-5.033-13.342c-0.288-0.617-1.319-1.058-2.318-1.058C42.272,39.836,41.468,40.139,41.125,40.894"/>
	</defs>
	<clipPath id="SVGID_8_">
		<use xlink:href="#SVGID_7_"  overflow="visible"/>
	</clipPath>
	
		<linearGradient id="SVGID_9_" gradientUnits="userSpaceOnUse" x1="-347.5645" y1="301.0933" x2="-346.5645" y2="301.0933" gradientTransform="matrix(14.5688 0 0 -14.5688 5099.5654 4435.1313)">
		<stop  offset="0" style="stop-color:#E5DD4A"/>
		<stop  offset="0.0237" style="stop-color:#E5DC47"/>
		<stop  offset="0.1784" style="stop-color:#E4D83C"/>
		<stop  offset="0.3958" style="stop-color:#E4D635"/>
		<stop  offset="1" style="stop-color:#E4D533"/>
	</linearGradient>
	<rect x="35.339" y="39.836" clip-path="url(#SVGID_8_)" fill="url(#SVGID_9_)" width="15.807" height="17.499"/>
	<defs>
		<path id="SVGID_10_" d="M51.685,41.458c0.007,3.061,0.018,12.927,0.018,12.927s-0.281,1.963,1.4,1.963c1.68,0,5.412-0.019,7.067-0.019c1.653,0,1.646-3.52-0.01-3.52c-1.654,0-4.673-0.018-4.673-0.018s0.014-9.126,0.008-11.344c-0.002-1.072-0.951-1.607-1.902-1.607C52.638,39.84,51.683,40.38,51.685,41.458"/>
	</defs>
	<clipPath id="SVGID_11_">
		<use xlink:href="#SVGID_10_"  overflow="visible"/>
	</clipPath>
	
		<linearGradient id="SVGID_12_" gradientUnits="userSpaceOnUse" x1="-350.8208" y1="307.1313" x2="-349.8208" y2="307.1313" gradientTransform="matrix(9.7206 0 0 -9.7206 3461.8635 3033.5864)">
		<stop  offset="0" style="stop-color:#E5DD4A"/>
		<stop  offset="0.0237" style="stop-color:#E5DC47"/>
		<stop  offset="0.1784" style="stop-color:#E4D83C"/>
		<stop  offset="0.3958" style="stop-color:#E4D635"/>
		<stop  offset="1" style="stop-color:#E4D533"/>
	</linearGradient>
	<rect x="51.421" y="39.84" clip-path="url(#SVGID_11_)" fill="url(#SVGID_12_)" width="10.402" height="16.508"/>
	<defs>
		<path id="SVGID_13_" d="M62.266,40.97c0.036,1.344-0.044,13.482-0.043,14.384c0.001,1.419,3.616,1.415,3.614-0.003c-0.001-1.649,0-4.776,0-4.776l1.062-0.851l4.642,6.331c0.938,1.238,3.889-0.997,2.95-2.236l-4.928-6.489c0,0,3.345-3.618,4.664-4.928c0.771-0.765-1.612-3.164-2.383-2.398c-0.745,0.739-5.984,5.984-5.984,5.984s0.048-3.294-0.002-5.114c-0.018-0.69-0.866-1.025-1.733-1.025C63.195,39.848,62.245,40.23,62.266,40.97"/>
	</defs>
	<clipPath id="SVGID_14_">
		<use xlink:href="#SVGID_13_"  overflow="visible"/>
	</clipPath>
	
		<linearGradient id="SVGID_15_" gradientUnits="userSpaceOnUse" x1="-348.6758" y1="303.1626" x2="-347.6758" y2="303.1626" gradientTransform="matrix(12.4499 0 0 -12.4499 4403.2188 3822.6313)">
		<stop  offset="0" style="stop-color:#E5DD4A"/>
		<stop  offset="0.0237" style="stop-color:#E5DC47"/>
		<stop  offset="0.1784" style="stop-color:#E4D83C"/>
		<stop  offset="0.3958" style="stop-color:#E4D635"/>
		<stop  offset="1" style="stop-color:#E4D533"/>
	</linearGradient>
	<rect x="62.222" y="39.237" clip-path="url(#SVGID_14_)" fill="url(#SVGID_15_)" width="13.207" height="18.056"/>
</svg>
