<?xml version="1.0" encoding="utf-8"?>
<!-- Generator: Adobe Illustrator 16.2.0, SVG Export Plug-In . SVG Version: 6.00 Build 0)  -->
<!DOCTYPE svg PUBLIC "-//W3C//DTD SVG 1.1//EN" "http://www.w3.org/Graphics/SVG/1.1/DTD/svg11.dtd">
<svg version="1.1" id="Layer_1" xmlns="http://www.w3.org/2000/svg" xmlns:xlink="http://www.w3.org/1999/xlink" x="0px" y="0px"
	 viewBox="0 0 100 100" enable-background="new 0 0 100 100" xml:space="preserve">

	<path fill="#1DA1F2" d="M100,75.751C100,89.089,89.089,100,75.751,100H24.249C10.912,100,0,89.089,0,75.751V24.248C0,10.912,10.912,0,24.249,0h51.502C89.089,0,100,10.912,100,24.248V75.751z"/>
	<path fill="#F7F6F0" d="M68.641,67.356h-1.573c-0.835-0.081-1.725-0.124-2.674-0.124c-1.547,0-3.104,0.058-4.644,0.124h-9.351c-0.146,0-0.289,0.015-0.433,0.022c-2.575-0.28-4.835-0.955-6.564-2.396c-3-2.499-2.624-9.037-2.624-9.85v-4.957h24.74c0,0,9.934,0.563,9.934-8.997c0-9.559-10.871-8.621-10.871-8.621H40.778v-9.746c0-4.123-3.373-7.497-7.497-7.497h-1.875c-4.124,0-7.497,3.374-7.497,7.497v32.321c0,0-0.971,15.001,5.998,21.97c5.404,5.404,11.08,7.122,18.82,7.56c0.611,0.046,1.135,0,1.672,0h18.242c4.123,0,7.496-3.374,7.496-7.497v-2.312C76.137,70.731,72.764,67.356,68.641,67.356z"/>
</svg>
