<?xml version="1.0" encoding="utf-8"?>
<!-- Generator: Adobe Illustrator 16.2.0, SVG Export Plug-In . SVG Version: 6.00 Build 0)  -->
<!DOCTYPE svg PUBLIC "-//W3C//DTD SVG 1.1//EN" "http://www.w3.org/Graphics/SVG/1.1/DTD/svg11.dtd">
<svg version="1.1" id="Layer_1" xmlns="http://www.w3.org/2000/svg" xmlns:xlink="http://www.w3.org/1999/xlink" x="0px" y="0px"
	 viewBox="0 0 100 100" enable-background="new 0 0 100 100" xml:space="preserve">
		<radialGradient id="SVGID_1_" cx="14.1069" cy="151.8789" r="233.1364" gradientTransform="matrix(0.5684 0 0 0.5684 21.2744 21.4158)" gradientUnits="userSpaceOnUse">
			<stop  offset="0.0969" style="stop-color:#FFD879"/>
			<stop  offset="0.1539" style="stop-color:#FCCB76"/>
			<stop  offset="0.2583" style="stop-color:#F5AA6C"/>
			<stop  offset="0.3976" style="stop-color:#E9755E"/>
			<stop  offset="0.449" style="stop-color:#E45F58"/>
			<stop  offset="0.6786" style="stop-color:#D22A9C"/>
			<stop  offset="1" style="stop-color:#6968DF"/>
		</radialGradient>
		<path fill="url(#SVGID_1_)" d="M100,79.461C100,90.801,90.801,100,79.46,100H20.54C9.195,100,0,90.801,0,79.461V20.545C0,9.2,9.195,0,20.54,0H79.46C90.801,0,100,9.2,100,20.545V79.461z"/>
		<path fill="#FFFFFF" d="M64.472,12.292H35.528c-12.835,0-23.238,10.403-23.238,23.239v28.941c0,12.831,10.403,23.234,23.238,23.234h28.944c12.835,0,23.236-10.403,23.236-23.234V35.531C87.708,22.695,77.307,12.292,64.472,12.292zM80.47,61.694c0,10.372-8.409,18.775-18.774,18.775H38.305c-10.371,0-18.778-8.403-18.778-18.775v-23.39c0-10.365,8.407-18.775,18.778-18.775h23.391c10.365,0,18.774,8.41,18.774,18.775V61.694z"/>
		<path fill="#FFFFFF" d="M51.011,30.268c-10.974,0-19.868,8.891-19.868,19.864c0,10.967,8.894,19.864,19.868,19.864c10.97,0,19.864-8.896,19.864-19.864C70.875,39.158,61.981,30.268,51.011,30.268z M51.011,62.082c-6.606,0-11.955-5.354-11.955-11.951c0-6.605,5.349-11.952,11.955-11.952c6.599,0,11.95,5.347,11.95,11.952C62.961,56.729,57.61,62.082,51.011,62.082z"/>
		<circle fill="#FFFFFF" cx="69.501" cy="29.958" r="5.051"/>
</svg>
