<?xml version="1.0" encoding="utf-8"?>
<!-- Generator: Adobe Illustrator 16.2.0, SVG Export Plug-In . SVG Version: 6.00 Build 0)  -->
<!DOCTYPE svg PUBLIC "-//W3C//DTD SVG 1.1//EN" "http://www.w3.org/Graphics/SVG/1.1/DTD/svg11.dtd">
<svg version="1.1" id="Layer_1" xmlns="http://www.w3.org/2000/svg" xmlns:xlink="http://www.w3.org/1999/xlink" x="0px" y="0px" viewBox="0 0 100 100" enable-background="new 0 0 100 100" xml:space="preserve">

	<path fill="#1DA1F2" d="M100,79.461C100,90.8,90.801,100,79.456,100H20.545C9.199,100,0,90.8,0,79.461V20.545C0,9.199,9.199,0,20.545,0h58.911C90.801,0,100,9.199,100,20.545V79.461z"/>
	<path fill="#FFFFFF" d="M38.091,78.977c26.283,0,40.653-21.777,40.653-40.657c0-0.618-0.01-1.234-0.042-1.845c2.794-2.015,5.216-4.539,7.126-7.399c-2.559,1.135-5.316,1.902-8.202,2.249c2.95-1.771,5.21-4.569,6.283-7.903c-2.758,1.633-5.82,2.829-9.074,3.472c-2.612-2.781-6.315-4.516-10.43-4.516c-7.891,0-14.284,6.4-14.284,14.283c0,1.122,0.126,2.208,0.367,3.264c-11.873-0.604-22.41-6.287-29.452-14.931c-1.224,2.109-1.935,4.561-1.935,7.177c0,4.956,2.52,9.331,6.361,11.896c-2.343-0.074-4.551-0.716-6.474-1.79c-0.003,0.064-0.003,0.122-0.003,0.183c0,6.924,4.927,12.699,11.458,14.008c-1.191,0.324-2.458,0.504-3.76,0.504c-0.922,0-1.815-0.096-2.687-0.264c1.822,5.684,7.097,9.813,13.345,9.93c-4.889,3.834-11.05,6.116-17.746,6.116c-1.15,0-2.285-0.067-3.407-0.2C22.512,76.61,30.021,78.977,38.091,78.977"/>

</svg>
