<?xml version="1.0" encoding="utf-8"?>
<!-- Generator: Adobe Illustrator 16.2.0, SVG Export Plug-In . SVG Version: 6.00 Build 0)  -->
<!DOCTYPE svg PUBLIC "-//W3C//DTD SVG 1.1//EN" "http://www.w3.org/Graphics/SVG/1.1/DTD/svg11.dtd">
<svg version="1.1" id="Layer_1" xmlns="http://www.w3.org/2000/svg" xmlns:xlink="http://www.w3.org/1999/xlink" x="0px" y="0px" viewBox="0 0 100 100" enable-background="new 0 0 100 100" xml:space="preserve">
	<path fill="#FFFFFF" d="M100,79.456C100,90.801,90.8,100,79.46,100H20.542C9.196,100,0,90.801,0,79.456V20.539C0,9.194,9.196,0,20.542,0H79.46C90.8,0,100,9.194,100,20.539V79.456z"/>
	<radialGradient id="SVGID_1_" cx="48.3833" cy="113.7744" r="127.2013" gradientTransform="matrix(0.5684 0 0 0.5684 21.2742 21.3133)" gradientUnits="userSpaceOnUse">
		<stop  offset="0.1684" style="stop-color:#C2181E"/>
		<stop  offset="0.7653" style="stop-color:#DE2925"/>
	</radialGradient>
	<path fill="url(#SVGID_1_)" d="M87.577,59.068c0,9.473-3.239,17.149-12.707,17.149H26.142c-9.472,0-13.721-7.677-13.721-17.149V40.932c0-9.472,3.846-17.148,13.316-17.148h49.532c9.473,0,12.308,7.676,12.308,17.148V59.068z"/>
	<polygon fill="#FFFFFF" points="42.467,39.754 62.939,50.439 42.467,61.12"/>
	<polygon fill="#E8E0E0" points="42.467,39.916 60.272,51.826 62.939,50.439 44.049,40.582 42.467,39.895"/>
</svg>
