<?xml version="1.0" encoding="UTF-8" standalone="no"?>
<!-- Created with Inkscape (http://www.inkscape.org/) -->

<svg
   version="1.1"
   id="svg2"
   xml:space="preserve"
   width="1600"
   height="1200"
   viewBox="0 0 1600 1200"
   sodipodi:docname="ADT_LOGO.ai"
   xmlns:inkscape="http://www.inkscape.org/namespaces/inkscape"
   xmlns:sodipodi="http://sodipodi.sourceforge.net/DTD/sodipodi-0.dtd"
   xmlns="http://www.w3.org/2000/svg"
   xmlns:svg="http://www.w3.org/2000/svg"><defs
     id="defs6"><clipPath
       clipPathUnits="userSpaceOnUse"
       id="clipPath16"><path
         d="M 0,900 H 1200 V 0 H 0 Z"
         id="path14" /></clipPath><clipPath
       clipPathUnits="userSpaceOnUse"
       id="clipPath24"><path
         d="M 280,460 H 580 V 235 H 280 Z"
         id="path22" /></clipPath><clipPath
       clipPathUnits="userSpaceOnUse"
       id="clipPath28"><path
         d="m 280,460 h 25 V 235 h -25 z"
         id="path26" /></clipPath><clipPath
       clipPathUnits="userSpaceOnUse"
       id="clipPath32"><path
         d="m 305,460 h 25 V 235 h -25 z"
         id="path30" /></clipPath><clipPath
       clipPathUnits="userSpaceOnUse"
       id="clipPath36"><path
         d="m 330,460 h 25 V 235 h -25 z"
         id="path34" /></clipPath><clipPath
       clipPathUnits="userSpaceOnUse"
       id="clipPath40"><path
         d="m 355,460 h 25 V 235 h -25 z"
         id="path38" /></clipPath><clipPath
       clipPathUnits="userSpaceOnUse"
       id="clipPath44"><path
         d="m 380,460 h 25 V 235 h -25 z"
         id="path42" /></clipPath><clipPath
       clipPathUnits="userSpaceOnUse"
       id="clipPath48"><path
         d="m 405,460 h 25 V 235 h -25 z"
         id="path46" /></clipPath><clipPath
       clipPathUnits="userSpaceOnUse"
       id="clipPath52"><path
         d="m 430,460 h 25 V 235 h -25 z"
         id="path50" /></clipPath><clipPath
       clipPathUnits="userSpaceOnUse"
       id="clipPath56"><path
         d="m 455,460 h 25 V 235 h -25 z"
         id="path54" /></clipPath><clipPath
       clipPathUnits="userSpaceOnUse"
       id="clipPath60"><path
         d="m 480,460 h 25 V 235 h -25 z"
         id="path58" /></clipPath><clipPath
       clipPathUnits="userSpaceOnUse"
       id="clipPath64"><path
         d="m 505,460 h 25 V 235 h -25 z"
         id="path62" /></clipPath><clipPath
       clipPathUnits="userSpaceOnUse"
       id="clipPath68"><path
         d="m 530,460 h 25 V 235 h -25 z"
         id="path66" /></clipPath><clipPath
       clipPathUnits="userSpaceOnUse"
       id="clipPath72"><path
         d="m 555,460 h 25 V 235 h -25 z"
         id="path70" /></clipPath><clipPath
       clipPathUnits="userSpaceOnUse"
       id="clipPath222"><path
         d="M 635,459 H 935 V 234 H 635 Z"
         id="path220" /></clipPath><clipPath
       clipPathUnits="userSpaceOnUse"
       id="clipPath226"><path
         d="m 635,459 h 25 V 234 h -25 z"
         id="path224" /></clipPath><clipPath
       clipPathUnits="userSpaceOnUse"
       id="clipPath230"><path
         d="m 660,459 h 25 V 234 h -25 z"
         id="path228" /></clipPath><clipPath
       clipPathUnits="userSpaceOnUse"
       id="clipPath234"><path
         d="m 685,459 h 25 V 234 h -25 z"
         id="path232" /></clipPath><clipPath
       clipPathUnits="userSpaceOnUse"
       id="clipPath238"><path
         d="m 710,459 h 25 V 234 h -25 z"
         id="path236" /></clipPath><clipPath
       clipPathUnits="userSpaceOnUse"
       id="clipPath242"><path
         d="m 735,459 h 25 V 234 h -25 z"
         id="path240" /></clipPath><clipPath
       clipPathUnits="userSpaceOnUse"
       id="clipPath246"><path
         d="m 760,459 h 25 V 234 h -25 z"
         id="path244" /></clipPath><clipPath
       clipPathUnits="userSpaceOnUse"
       id="clipPath250"><path
         d="m 785,459 h 25 V 234 h -25 z"
         id="path248" /></clipPath><clipPath
       clipPathUnits="userSpaceOnUse"
       id="clipPath254"><path
         d="m 810,459 h 25 V 234 h -25 z"
         id="path252" /></clipPath><clipPath
       clipPathUnits="userSpaceOnUse"
       id="clipPath258"><path
         d="m 835,459 h 25 V 234 h -25 z"
         id="path256" /></clipPath><clipPath
       clipPathUnits="userSpaceOnUse"
       id="clipPath262"><path
         d="m 860,459 h 25 V 234 h -25 z"
         id="path260" /></clipPath><clipPath
       clipPathUnits="userSpaceOnUse"
       id="clipPath266"><path
         d="m 885,459 h 25 V 234 h -25 z"
         id="path264" /></clipPath><clipPath
       clipPathUnits="userSpaceOnUse"
       id="clipPath270"><path
         d="m 910,459 h 25 V 234 h -25 z"
         id="path268" /></clipPath><clipPath
       clipPathUnits="userSpaceOnUse"
       id="clipPath424"><path
         d="m 722,183 h 127 v 27 H 722 Z"
         id="path422" /></clipPath><clipPath
       clipPathUnits="userSpaceOnUse"
       id="clipPath458"><path
         d="M 0,900 H 1200 V 0 H 0 Z"
         id="path456" /></clipPath></defs><sodipodi:namedview
     id="namedview4"
     pagecolor="#ffffff"
     bordercolor="#666666"
     borderopacity="1.0"
     inkscape:pageshadow="2"
     inkscape:pageopacity="0.0"
     inkscape:pagecheckerboard="0" /><g
     id="g8"
     inkscape:groupmode="layer"
     inkscape:label="ADT_LOGO"
     transform="matrix(1.3333333,0,0,-1.3333333,0,1200)"><g
       id="g10"><g
         id="g12"
         clip-path="url(#clipPath16)"><g
           id="g18"><g
             id="g20" /><g
             id="g214"><g
               clip-path="url(#clipPath24)"
               opacity="0.240005"
               id="g212"><path
                 d="M 580,235 H 280 v 25 h 300 z"
                 style="fill:#53f5f9;fill-opacity:1;fill-rule:nonzero;stroke:none"
                 id="path74" /><path
                 d="M 580,285 H 280 v 25 h 300 z"
                 style="fill:#53f5f9;fill-opacity:1;fill-rule:nonzero;stroke:none"
                 id="path76" /><path
                 d="M 580,335 H 280 v 25 h 300 z"
                 style="fill:#53f5f9;fill-opacity:1;fill-rule:nonzero;stroke:none"
                 id="path78" /><path
                 d="M 580,260 H 280 v 25 h 300 z"
                 style="fill:#f7f754;fill-opacity:1;fill-rule:nonzero;stroke:none"
                 id="path80" /><path
                 d="M 580,310 H 280 v 25 h 300 z"
                 style="fill:#f7f754;fill-opacity:1;fill-rule:nonzero;stroke:none"
                 id="path82" /><path
                 d="M 580,385 H 280 v 25 h 300 z"
                 style="fill:#53f5f9;fill-opacity:1;fill-rule:nonzero;stroke:none"
                 id="path84" /><path
                 d="M 580,435 H 280 v 25 h 300 z"
                 style="fill:#53f5f9;fill-opacity:1;fill-rule:nonzero;stroke:none"
                 id="path86" /><path
                 d="M 580,410 H 280 v 25 h 300 z"
                 style="fill:#f7f754;fill-opacity:1;fill-rule:nonzero;stroke:none"
                 id="path88" /><path
                 d="M 580,360 H 280 v 25 h 300 z"
                 style="fill:#f7f754;fill-opacity:1;fill-rule:nonzero;stroke:none"
                 id="path90" /><g
                 id="g100"><g
                   id="g92" /><g
                   id="g98"><g
                     clip-path="url(#clipPath28)"
                     opacity="0.479996"
                     id="g96"><path
                       d="m 305,235 h -25 v 225 h 25 z"
                       style="fill:#f27927;fill-opacity:1;fill-rule:nonzero;stroke:none"
                       id="path94" /></g></g></g><g
                 id="g110"><g
                   id="g102" /><g
                   id="g108"><g
                     clip-path="url(#clipPath32)"
                     opacity="0.479996"
                     id="g106"><path
                       d="m 330,235 h -25 v 225 h 25 z"
                       style="fill:#d9e021;fill-opacity:1;fill-rule:nonzero;stroke:none"
                       id="path104" /></g></g></g><g
                 id="g120"><g
                   id="g112" /><g
                   id="g118"><g
                     clip-path="url(#clipPath36)"
                     opacity="0.479996"
                     id="g116"><path
                       d="m 355,235 h -25 v 225 h 25 z"
                       style="fill:#f27927;fill-opacity:1;fill-rule:nonzero;stroke:none"
                       id="path114" /></g></g></g><g
                 id="g130"><g
                   id="g122" /><g
                   id="g128"><g
                     clip-path="url(#clipPath40)"
                     opacity="0.479996"
                     id="g126"><path
                       d="m 380,235 h -25 v 225 h 25 z"
                       style="fill:#d9e021;fill-opacity:1;fill-rule:nonzero;stroke:none"
                       id="path124" /></g></g></g><g
                 id="g140"><g
                   id="g132" /><g
                   id="g138"><g
                     clip-path="url(#clipPath44)"
                     opacity="0.479996"
                     id="g136"><path
                       d="m 405,235 h -25 v 225 h 25 z"
                       style="fill:#f27927;fill-opacity:1;fill-rule:nonzero;stroke:none"
                       id="path134" /></g></g></g><g
                 id="g150"><g
                   id="g142" /><g
                   id="g148"><g
                     clip-path="url(#clipPath48)"
                     opacity="0.479996"
                     id="g146"><path
                       d="m 430,235 h -25 v 225 h 25 z"
                       style="fill:#d9e021;fill-opacity:1;fill-rule:nonzero;stroke:none"
                       id="path144" /></g></g></g><g
                 id="g160"><g
                   id="g152" /><g
                   id="g158"><g
                     clip-path="url(#clipPath52)"
                     opacity="0.479996"
                     id="g156"><path
                       d="m 455,235 h -25 v 225 h 25 z"
                       style="fill:#f27927;fill-opacity:1;fill-rule:nonzero;stroke:none"
                       id="path154" /></g></g></g><g
                 id="g170"><g
                   id="g162" /><g
                   id="g168"><g
                     clip-path="url(#clipPath56)"
                     opacity="0.479996"
                     id="g166"><path
                       d="m 480,235 h -25 v 225 h 25 z"
                       style="fill:#d9e021;fill-opacity:1;fill-rule:nonzero;stroke:none"
                       id="path164" /></g></g></g><g
                 id="g180"><g
                   id="g172" /><g
                   id="g178"><g
                     clip-path="url(#clipPath60)"
                     opacity="0.479996"
                     id="g176"><path
                       d="m 505,235 h -25 v 225 h 25 z"
                       style="fill:#f27927;fill-opacity:1;fill-rule:nonzero;stroke:none"
                       id="path174" /></g></g></g><g
                 id="g190"><g
                   id="g182" /><g
                   id="g188"><g
                     clip-path="url(#clipPath64)"
                     opacity="0.479996"
                     id="g186"><path
                       d="m 530,235 h -25 v 225 h 25 z"
                       style="fill:#d9e021;fill-opacity:1;fill-rule:nonzero;stroke:none"
                       id="path184" /></g></g></g><g
                 id="g200"><g
                   id="g192" /><g
                   id="g198"><g
                     clip-path="url(#clipPath68)"
                     opacity="0.479996"
                     id="g196"><path
                       d="m 555,235 h -25 v 225 h 25 z"
                       style="fill:#f27927;fill-opacity:1;fill-rule:nonzero;stroke:none"
                       id="path194" /></g></g></g><g
                 id="g210"><g
                   id="g202" /><g
                   id="g208"><g
                     clip-path="url(#clipPath72)"
                     opacity="0.479996"
                     id="g206"><path
                       d="m 580,235 h -25 v 225 h 25 z"
                       style="fill:#d9e021;fill-opacity:1;fill-rule:nonzero;stroke:none"
                       id="path204" /></g></g></g></g></g></g><g
           id="g216"><g
             id="g218" /><g
             id="g412"><g
               clip-path="url(#clipPath222)"
               opacity="0.240005"
               id="g410"><path
                 d="M 935,234 H 635 v 25 h 300 z"
                 style="fill:#53f5f9;fill-opacity:1;fill-rule:nonzero;stroke:none"
                 id="path272" /><path
                 d="M 935,284 H 635 v 25 h 300 z"
                 style="fill:#53f5f9;fill-opacity:1;fill-rule:nonzero;stroke:none"
                 id="path274" /><path
                 d="M 935,334 H 635 v 25 h 300 z"
                 style="fill:#53f5f9;fill-opacity:1;fill-rule:nonzero;stroke:none"
                 id="path276" /><path
                 d="M 935,259 H 635 v 25 h 300 z"
                 style="fill:#f7f754;fill-opacity:1;fill-rule:nonzero;stroke:none"
                 id="path278" /><path
                 d="M 935,309 H 635 v 25 h 300 z"
                 style="fill:#f7f754;fill-opacity:1;fill-rule:nonzero;stroke:none"
                 id="path280" /><path
                 d="M 935,384 H 635 v 25 h 300 z"
                 style="fill:#53f5f9;fill-opacity:1;fill-rule:nonzero;stroke:none"
                 id="path282" /><path
                 d="M 935,434 H 635 v 25 h 300 z"
                 style="fill:#53f5f9;fill-opacity:1;fill-rule:nonzero;stroke:none"
                 id="path284" /><path
                 d="M 935,409 H 635 v 25 h 300 z"
                 style="fill:#f7f754;fill-opacity:1;fill-rule:nonzero;stroke:none"
                 id="path286" /><path
                 d="M 935,359 H 635 v 25 h 300 z"
                 style="fill:#f7f754;fill-opacity:1;fill-rule:nonzero;stroke:none"
                 id="path288" /><g
                 id="g298"><g
                   id="g290" /><g
                   id="g296"><g
                     clip-path="url(#clipPath226)"
                     opacity="0.479996"
                     id="g294"><path
                       d="m 660,234 h -25 v 225 h 25 z"
                       style="fill:#f27927;fill-opacity:1;fill-rule:nonzero;stroke:none"
                       id="path292" /></g></g></g><g
                 id="g308"><g
                   id="g300" /><g
                   id="g306"><g
                     clip-path="url(#clipPath230)"
                     opacity="0.479996"
                     id="g304"><path
                       d="m 685,234 h -25 v 225 h 25 z"
                       style="fill:#d9e021;fill-opacity:1;fill-rule:nonzero;stroke:none"
                       id="path302" /></g></g></g><g
                 id="g318"><g
                   id="g310" /><g
                   id="g316"><g
                     clip-path="url(#clipPath234)"
                     opacity="0.479996"
                     id="g314"><path
                       d="m 710,234 h -25 v 225 h 25 z"
                       style="fill:#f27927;fill-opacity:1;fill-rule:nonzero;stroke:none"
                       id="path312" /></g></g></g><g
                 id="g328"><g
                   id="g320" /><g
                   id="g326"><g
                     clip-path="url(#clipPath238)"
                     opacity="0.479996"
                     id="g324"><path
                       d="m 735,234 h -25 v 225 h 25 z"
                       style="fill:#d9e021;fill-opacity:1;fill-rule:nonzero;stroke:none"
                       id="path322" /></g></g></g><g
                 id="g338"><g
                   id="g330" /><g
                   id="g336"><g
                     clip-path="url(#clipPath242)"
                     opacity="0.479996"
                     id="g334"><path
                       d="m 760,234 h -25 v 225 h 25 z"
                       style="fill:#f27927;fill-opacity:1;fill-rule:nonzero;stroke:none"
                       id="path332" /></g></g></g><g
                 id="g348"><g
                   id="g340" /><g
                   id="g346"><g
                     clip-path="url(#clipPath246)"
                     opacity="0.479996"
                     id="g344"><path
                       d="m 785,234 h -25 v 225 h 25 z"
                       style="fill:#d9e021;fill-opacity:1;fill-rule:nonzero;stroke:none"
                       id="path342" /></g></g></g><g
                 id="g358"><g
                   id="g350" /><g
                   id="g356"><g
                     clip-path="url(#clipPath250)"
                     opacity="0.479996"
                     id="g354"><path
                       d="m 810,234 h -25 v 225 h 25 z"
                       style="fill:#f27927;fill-opacity:1;fill-rule:nonzero;stroke:none"
                       id="path352" /></g></g></g><g
                 id="g368"><g
                   id="g360" /><g
                   id="g366"><g
                     clip-path="url(#clipPath254)"
                     opacity="0.479996"
                     id="g364"><path
                       d="m 835,234 h -25 v 225 h 25 z"
                       style="fill:#d9e021;fill-opacity:1;fill-rule:nonzero;stroke:none"
                       id="path362" /></g></g></g><g
                 id="g378"><g
                   id="g370" /><g
                   id="g376"><g
                     clip-path="url(#clipPath258)"
                     opacity="0.479996"
                     id="g374"><path
                       d="m 860,234 h -25 v 225 h 25 z"
                       style="fill:#f27927;fill-opacity:1;fill-rule:nonzero;stroke:none"
                       id="path372" /></g></g></g><g
                 id="g388"><g
                   id="g380" /><g
                   id="g386"><g
                     clip-path="url(#clipPath262)"
                     opacity="0.479996"
                     id="g384"><path
                       d="m 885,234 h -25 v 225 h 25 z"
                       style="fill:#d9e021;fill-opacity:1;fill-rule:nonzero;stroke:none"
                       id="path382" /></g></g></g><g
                 id="g398"><g
                   id="g390" /><g
                   id="g396"><g
                     clip-path="url(#clipPath266)"
                     opacity="0.479996"
                     id="g394"><path
                       d="m 910,234 h -25 v 225 h 25 z"
                       style="fill:#f27927;fill-opacity:1;fill-rule:nonzero;stroke:none"
                       id="path392" /></g></g></g><g
                 id="g408"><g
                   id="g400" /><g
                   id="g406"><g
                     clip-path="url(#clipPath270)"
                     opacity="0.479996"
                     id="g404"><path
                       d="m 935,234 h -25 v 225 h 25 z"
                       style="fill:#d9e021;fill-opacity:1;fill-rule:nonzero;stroke:none"
                       id="path402" /></g></g></g></g></g></g></g></g><g
       id="g414"
       transform="translate(731.6037,209.9952)"><path
         d="m 0,0 -9.604,-26.663 v -0.01 h 5.045 l 2.116,5.892 H 8.466 l 2.118,-5.892 h 5.373 L 6.512,0 Z m 3.092,-4.09 4.072,-12.6 H -1.14 Z"
         style="fill:#0052a4;fill-opacity:1;fill-rule:nonzero;stroke:none"
         id="path416" /></g><g
       id="g418"><g
         id="g420"
         clip-path="url(#clipPath424)"><g
           id="g426"
           transform="translate(748.2119,183.3223)"><path
             d="m 0,0 v 26.673 h 9.118 c 4.07,0 7.327,-1.146 9.444,-3.6 2.28,-2.291 3.419,-5.563 3.419,-9.655 0,-5.072 -1.302,-8.509 -4.071,-10.8 C 15.631,0.818 12.374,0 7.979,0 Z m 4.885,4.091 h 2.767 c 3.257,0 5.536,0.655 7.002,2.128 1.465,1.472 2.28,3.763 2.28,6.872 0,6.219 -2.931,9.328 -8.63,9.328 H 4.885 Z"
             style="fill:#0052a4;fill-opacity:1;fill-rule:nonzero;stroke:none"
             id="path428" /></g><g
           id="g430"
           transform="translate(782.5713,205.7412)"><path
             d="M 0,0 V -22.419 H -5.216 V 0 h -7.976 V 4.254 H 8.304 L 8.304,0 Z"
             style="fill:#0052a4;fill-opacity:1;fill-rule:nonzero;stroke:none"
             id="path432" /></g><g
           id="g434"
           transform="translate(796.7324,200.832)"><path
             d="M 0,0 -1.302,3.272 7.49,3.927 c 0.165,0.491 0.489,0.982 0.655,1.8 H -0.489 V 9 H 12.376 C 11.887,2.291 8.634,-2.782 1.303,-6.709 l -2.765,2.781 c 3.095,1.146 4.721,2.618 6.672,4.745 z m 4.562,-17.51 v 9.983 H 8.469 V -9.982 H 20.19 v 2.455 h 3.908 v -9.983 z m 15.628,4.746 H 8.468 v -1.964 H 20.19 Z m 0,6.055 v 6.055 H 17.751 V -6.709 H 13.844 V 9.163 h 3.907 V 2.618 h 2.439 v 6.545 h 3.908 V -6.709 Z"
             style="fill:#0052a4;fill-opacity:1;fill-rule:nonzero;stroke:none"
             id="path436" /></g><path
           d="m 822.622,186.923 h 26.054 v -3.601 h -26.054 z m 23.774,5.563 c -2.117,0.819 -4.232,1.963 -6.189,3.437 -1.95,1.636 -3.418,3.272 -4.556,4.909 -0.977,-1.8 -2.445,-3.436 -4.396,-4.909 -1.956,-1.637 -4.072,-2.782 -6.188,-3.437 l -2.28,3.109 c 3.583,0.982 6.188,2.946 8.144,5.073 1.951,2.127 2.764,4.255 2.764,6.219 v 3.108 h 3.908 v -3.108 c 0,-1.964 0.978,-4.092 2.934,-6.219 1.951,-2.291 4.556,-4.255 8.139,-5.073 z"
           style="fill:#0052a4;fill-opacity:1;fill-rule:nonzero;stroke:none"
           id="path438" /></g></g><g
       id="g440"
       transform="translate(763.292,309)"><path
         d="M 0,0 -29.292,29.292 V 70.708 L 0,100 H 41.416 L 70.708,70.708 V 29.292 L 41.416,0 Z"
         style="fill:#0d509a;fill-opacity:1;fill-rule:nonzero;stroke:none"
         id="path442" /></g><g
       id="g444"
       transform="translate(764.1504,310.9316)"><path
         d="M 0,0 -28.221,28.109 V 67.918 L 0,96.139 H 39.805 L 67.916,67.918 V 28.109 L 39.805,0 Z"
         style="fill:#ffffff;fill-opacity:1;fill-rule:nonzero;stroke:none"
         id="path446" /></g><g
       id="g448"
       transform="translate(764.4727,311.8965)"><path
         d="M 0,0 -27.575,27.576 V 66.522 L 0,94.098 H 39.055 L 66.63,66.522 V 27.576 L 39.055,0 Z"
         style="fill:#0d509a;fill-opacity:1;fill-rule:nonzero;stroke:none"
         id="path450" /></g><g
       id="g452"><g
         id="g454"
         clip-path="url(#clipPath458)"><g
           id="g460"
           transform="translate(774.4492,399.5557)"><path
             d="m 0,0 c 0,-1.499 -0.322,-2.68 -0.967,-3.538 -0.641,-0.967 -1.93,-1.825 -3.86,-2.574 -0.109,0.214 -0.322,0.426 -0.645,0.64 -0.214,0.218 -0.43,0.323 -0.75,0.54 0.642,0.105 1.286,0.319 1.822,0.536 0.644,0.322 1.18,0.641 1.503,1.072 l -1.826,-0.109 h -0.322 c 0,0 -0.104,-0.105 -0.213,-0.105 h -0.214 c -0.108,0 -0.108,0.105 -0.108,0.214 l -0.428,1.18 h 1.93 1.931 c 0.108,0.109 0.108,0.214 0.108,0.428 0.108,0.109 0.108,0.217 0.108,0.322 H -5.58 L -5.58,0 Z M -2.253,-6.112 V -6.33 c -0.108,0 -0.108,-0.105 -0.108,-0.105 v -0.217 -0.427 h 6.116 v 1.071 h 1.289 c 0.428,0 0.642,0 0.75,-0.104 V -6.33 c -0.108,0 -0.108,-0.105 -0.108,-0.105 v -0.217 -3.861 H 3.755 v 0.214 h -6.116 v -0.214 h -1.93 v 4.505 h 1.181 c 0.426,0 0.749,0 0.857,-0.104 M -2.361,-9.01 h 6.116 v 0.75 h -6.116 z m 8.047,9.55 c 0.108,-0.109 0.108,-0.109 0,-0.322 V 0 -0.214 -5.686 H 3.755 V -3.86 H 2.788 V -5.686 H 0.967 v 6.117 h 1.18 c 0.427,0 0.749,0 0.749,-0.109 0.11,0 0.11,-0.104 0,-0.214 C 2.896,0 2.788,0 2.788,-0.104 V -0.318 -2.466 H 3.755 V 0.54 h 1.181 z"
             style="fill:#ffffff;fill-opacity:1;fill-rule:nonzero;stroke:none"
             id="path462" /></g><path
           d="m 800.521,390.007 h -12.555 v 1.397 h 12.555 z m -5.257,9.335 c 0.108,0 0.108,-0.213 -0.105,-0.427 0,-0.218 0.105,-0.536 0.427,-0.858 0.214,-0.431 0.536,-0.753 0.967,-1.076 0.536,-0.427 1.072,-0.75 1.608,-1.072 0.753,-0.322 1.394,-0.536 2.148,-0.644 -0.214,-0.106 -0.432,-0.323 -0.645,-0.641 -0.214,-0.218 -0.428,-0.432 -0.645,-0.754 -0.963,0.214 -1.93,0.645 -2.897,1.289 -0.963,0.642 -1.607,1.286 -1.93,1.822 -0.322,-0.536 -0.858,-1.18 -1.825,-1.93 -0.964,-0.645 -1.822,-1.072 -2.789,-1.289 -0.213,0.217 -0.431,0.43 -0.644,0.644 -0.323,0.323 -0.536,0.536 -0.749,0.645 1.285,0.322 2.465,0.858 3.432,1.825 0.963,0.858 1.503,1.717 1.503,2.68 h 1.395 c 0.426,0 0.644,-0.105 0.749,-0.214"
           style="fill:#ffffff;fill-opacity:1;fill-rule:nonzero;stroke:none"
           id="path464" /><g
           id="g466"
           transform="translate(758.3564,327.9932)"><path
             d="M 0,0 H 1.395 L 2.574,-5.258 H 2.68 L 3.755,0 H 5.472 L 6.652,-5.258 7.937,0 H 9.118 L 7.511,-6.547 H 5.794 L 4.613,-1.289 3.433,-6.547 H 1.821 Z"
             style="fill:#ffffff;fill-opacity:1;fill-rule:nonzero;stroke:none"
             id="path468" /></g><g
           id="g470"
           transform="translate(770.9072,328.0977)"><path
             d="m 0,0 c 2.039,0 3.114,-1.394 3.114,-3.324 0,-2.038 -1.075,-3.437 -3.114,-3.437 -2.144,0 -3.219,1.399 -3.219,3.437 C -3.219,-1.394 -2.144,0 0,0 m 0,-5.685 c 1.289,0 1.825,1.18 1.825,2.361 0,1.072 -0.536,2.253 -1.825,2.253 -1.394,0 -1.821,-1.181 -1.821,-2.253 0,-1.181 0.427,-2.361 1.821,-2.361"
             style="fill:#ffffff;fill-opacity:1;fill-rule:nonzero;stroke:none"
             id="path472" /></g><g
           id="g474"
           transform="translate(774.7715,327.9932)"><path
             d="m 0,0 h 1.394 c 1.394,0 3.005,0 3.005,-1.825 0,-0.753 -0.43,-1.395 -1.289,-1.503 0.323,0 0.536,-0.322 0.645,-0.645 L 4.827,-6.547 H 3.324 l -0.75,2.038 C 2.361,-3.973 2.252,-3.864 1.716,-3.864 H 1.289 v -2.683 l -1.289,0 z m 1.289,-2.792 h 0.427 c 0.645,0 1.394,0.108 1.394,0.858 0,0.859 -0.749,0.859 -1.394,0.859 H 1.289 Z"
             style="fill:#ffffff;fill-opacity:1;fill-rule:nonzero;stroke:none"
             id="path476" /></g><g
           id="g478"
           transform="translate(780.1348,327.9932)"><path
             d="M 0,0 H 1.289 V -5.476 H 3.863 V -6.547 H 0 Z"
             style="fill:#ffffff;fill-opacity:1;fill-rule:nonzero;stroke:none"
             id="path480" /></g><g
           id="g482"
           transform="translate(784.4287,327.9932)"><path
             d="m 0,0 h 1.822 c 1.934,0 3.755,-0.645 3.755,-3.328 0,-2.574 -1.821,-3.219 -3.755,-3.219 H 0 Z m 1.286,-5.476 h 0.753 c 1.072,0 2.144,0.753 2.144,2.148 0,1.503 -1.072,2.253 -2.144,2.253 H 1.286 Z"
             style="fill:#ffffff;fill-opacity:1;fill-rule:nonzero;stroke:none"
             id="path484" /></g><g
           id="g486"
           transform="translate(792.9023,327.9932)"><path
             d="M 0,0 H 1.612 L 4.078,-4.936 V 0 H 5.367 V -6.547 H 3.756 L 1.29,-1.721 V -6.547 H 0 Z"
             style="fill:#ffffff;fill-opacity:1;fill-rule:nonzero;stroke:none"
             id="path488" /></g><g
           id="g490"
           transform="translate(801.3799,326.3818)"><path
             d="m 0,0 c 1.395,0 2.575,-0.967 2.575,-2.575 0,-1.394 -0.964,-2.47 -2.575,-2.47 -1.607,0 -2.466,1.076 -2.466,2.47 C -2.466,-0.967 -1.394,0 0,0 m 0,-4.078 c 0.967,0 1.181,0.858 1.181,1.717 0,0.644 -0.323,1.394 -1.181,1.394 -0.749,0 -1.181,-0.75 -1.181,-1.394 0,-0.859 0.214,-1.717 1.181,-1.717"
             style="fill:#ffffff;fill-opacity:1;fill-rule:nonzero;stroke:none"
             id="path492" /></g><path
           d="m 804.49,321.446 h 1.288 v 1.287 h -1.288 z"
           style="fill:#ffffff;fill-opacity:1;fill-rule:nonzero;stroke:none"
           id="path494" /><g
           id="g496"
           transform="translate(808.6768,327.9932)"><path
             d="m 0,0 h 1.181 v -6.547 h -1.289 v 5.044 l -1.073,-0.858 -0.644,0.858 z"
             style="fill:#ffffff;fill-opacity:1;fill-rule:nonzero;stroke:none"
             id="path498" /></g><path
           d="m 750.629,334.105 h 66.739 v 50.107 h -66.739 z"
           style="fill:#ffffff;fill-opacity:1;fill-rule:nonzero;stroke:none"
           id="path500" /><path
           d="m 751.81,335.181 h 64.378 v 47.96 H 751.81 Z"
           style="fill:#0d509a;fill-opacity:1;fill-rule:nonzero;stroke:none"
           id="path502" /><g
           id="g504"
           transform="translate(800.4131,359.5371)"><path
             d="m 0,0 c 0,-13.199 -12.337,-15.343 -12.337,-15.343 h -4.4 l -6.975,14.163 v 17.06 h 8.908 c 1.286,-0.109 2.467,-0.214 3.002,-0.432 2.47,-0.64 3.328,-1.285 3.328,-1.285 V 7.725 h 6.653 C -1.821,7.725 0,5.255 0,0"
             style="fill:#ffffff;fill-opacity:1;fill-rule:nonzero;stroke:none"
             id="path506" /></g><g
           id="g508"
           transform="translate(793.6562,359.6426)"><path
             d="m 0,0 c 0,-4.077 -2.147,-6.652 -4.509,-7.833 -2.679,-1.394 -5.794,-1.071 -5.794,-1.071 V 9.014 c 0,0 3.115,0 5.367,-0.967 C -2.47,6.975 0,4.291 0,0"
             style="fill:#0d509a;fill-opacity:1;fill-rule:nonzero;stroke:none"
             id="path510" /></g><g
           id="g512"
           transform="translate(767.1523,374.9854)"><path
             d="m 0,0 -15.665,-30.899 h 7.405 l 1.93,4.077 H 5.366 l 1.931,-3.864 h 7.833 z"
             style="fill:#ffffff;fill-opacity:1;fill-rule:nonzero;stroke:none"
             id="path514" /></g><g
           id="g516"
           transform="translate(763.8281,354.2793)"><path
             d="M 0,0 H 5.576 L 2.788,5.794 Z"
             style="fill:#0d509a;fill-opacity:1;fill-rule:nonzero;stroke:none"
             id="path518" /></g><g
           id="g520"
           transform="translate(793.1201,375.0947)"><path
             d="m 0,0 v -6.652 h 9.118 v -24.357 h 6.761 v 24.357 h 7.297 V 0 Z"
             style="fill:#ffffff;fill-opacity:1;fill-rule:nonzero;stroke:none"
             id="path522" /></g><g
           id="g524"
           transform="translate(810.1797,364.4736)"><path
             d="M 0,0 C 0,1.394 1.072,2.357 2.361,2.357 3.646,2.357 4.719,1.394 4.719,0 4.719,-1.289 3.646,-2.257 2.361,-2.257 1.072,-2.257 0,-1.289 0,0 m 2.361,-1.934 c 1.072,0 1.93,0.858 1.93,1.934 0,1.181 -0.858,1.93 -1.93,1.93 C 1.285,1.93 0.536,1.181 0.536,0 c 0,-1.076 0.749,-1.934 1.825,-1.934 M 1.93,-1.289 H 1.503 v 2.683 h 0.963 c 0.644,0 0.967,-0.213 0.967,-0.753 0,-0.537 -0.214,-0.75 -0.645,-0.75 l 0.753,-1.18 H 3.11 l -0.749,1.18 H 1.93 v -1.18 m 0.431,1.502 c 0.319,0 0.641,0 0.641,0.428 0,0.322 -0.214,0.43 -0.536,0.43 H 1.93 V 0.213 Z"
             style="fill:#ffffff;fill-opacity:1;fill-rule:nonzero;stroke:none"
             id="path526" /></g><g
           id="g528"
           transform="translate(689.0937,284.1387)"><path
             d="M 0,0 V 14.541 H 4.279 L 8.345,6.521 C 8.665,5.773 9.2,4.598 9.735,2.993 H 9.843 C 9.735,3.956 9.628,4.918 9.628,5.88 v 8.661 H 12.73 V 0 H 8.451 L 2.675,11.761 2.781,10.157 V 0 Z"
             style="fill:#0d509a;fill-opacity:1;fill-rule:nonzero;stroke:none"
             id="path530" /></g><g
           id="g532"
           transform="translate(714.3408,289.0566)"><path
             d="m 0,0 c 0,-1.604 -0.535,-2.887 -1.498,-3.742 -0.962,-0.962 -2.354,-1.497 -3.958,-1.497 -1.605,0 -2.889,0.535 -3.851,1.497 -0.963,0.962 -1.39,2.245 -1.39,3.849 0,1.604 0.534,2.887 1.497,3.849 0.963,0.962 2.246,1.497 3.958,1.497 1.604,0 2.782,-0.535 3.744,-1.497 C -0.535,2.994 0,1.604 0,0 m -2.995,0 c 0,2.459 -0.749,3.636 -2.354,3.636 -0.749,0 -1.39,-0.322 -1.819,-0.857 -0.32,-0.641 -0.534,-1.389 -0.534,-2.459 0,-2.459 0.748,-3.634 2.46,-3.634 1.498,0 2.247,1.069 2.247,3.314"
             style="fill:#0d509a;fill-opacity:1;fill-rule:nonzero;stroke:none"
             id="path534" /></g><path
           d="m 716.159,284.139 h 2.354 v 2.673 h -2.354 z"
           style="fill:#0d509a;fill-opacity:1;fill-rule:nonzero;stroke:none"
           id="path536" /><g
           id="g538"
           transform="translate(728.4629,298.6797)"><path
             d="M 0,0 V -14.541 H -2.888 V -2.673 C -3.959,-3.636 -5.136,-4.277 -6.42,-4.598 v 2.567 c 0.535,0.213 1.177,0.534 1.926,0.854 0.749,0.428 1.39,0.856 1.819,1.177 z"
             style="fill:#0d509a;fill-opacity:1;fill-rule:nonzero;stroke:none"
             id="path540" /></g><g
           id="g542"
           transform="translate(737.9844,288.8428)"><path
             d="m 0,0 h 2.993 v -0.32 c 0,-1.605 0.964,-2.46 2.888,-2.46 0.856,0 1.607,0.214 2.141,0.535 0.535,0.428 0.856,0.962 0.856,1.603 0,0.856 -0.643,1.497 -2.032,1.818 L 5.242,1.497 C 3.527,1.925 2.245,2.352 1.494,3.101 0.747,3.742 0.321,4.598 0.321,5.667 c 0,1.282 0.534,2.459 1.711,3.314 1.07,0.748 2.459,1.176 4.17,1.176 3.64,0 5.456,-1.389 5.456,-4.276 H 8.77 C 8.665,7.377 7.914,8.126 6.202,8.126 5.347,8.126 4.704,7.912 4.17,7.591 3.744,7.271 3.423,6.736 3.423,6.201 3.423,5.239 4.17,4.704 5.455,4.276 L 7.38,3.85 c 1.285,-0.322 2.141,-0.642 2.675,-0.963 0.642,-0.214 1.069,-0.642 1.39,-1.07 0.43,-0.534 0.643,-1.283 0.643,-2.137 0,-1.391 -0.643,-2.567 -1.712,-3.422 -1.177,-0.856 -2.783,-1.283 -4.6,-1.283 -1.927,0 -3.318,0.427 -4.282,1.175 -1.068,0.749 -1.602,1.819 -1.602,3.315 C -0.108,-0.428 0,-0.214 0,0"
             style="fill:#0d509a;fill-opacity:1;fill-rule:nonzero;stroke:none"
             id="path544" /></g><g
           id="g546"
           transform="translate(754.2422,288.6289)"><path
             d="m 0,0 v -0.321 c 0,-0.855 0.217,-1.496 0.538,-2.032 0.426,-0.426 0.96,-0.748 1.711,-0.748 1.178,0 1.925,0.642 2.138,1.925 h 2.675 c 0,-1.069 -0.429,-1.925 -1.286,-2.566 -0.855,-0.748 -1.923,-1.07 -3.314,-1.07 -2.354,0 -3.957,0.856 -4.708,2.567 -0.426,0.748 -0.534,1.603 -0.534,2.565 0,1.711 0.429,3.102 1.285,4.064 0.961,0.962 2.138,1.497 3.744,1.497 3.423,0 5.135,-1.818 5.135,-5.346 0,-0.215 0,-0.321 -0.109,-0.535 z M 4.387,1.711 C 4.387,3.314 3.744,4.17 2.354,4.17 0.964,4.17 0.217,3.314 0.108,1.711 Z"
             style="fill:#0d509a;fill-opacity:1;fill-rule:nonzero;stroke:none"
             id="path548" /></g><g
           id="g550"
           transform="translate(772.5371,287.7734)"><path
             d="m 0,0 v -0.214 c 0,-1.069 -0.427,-1.925 -1.391,-2.673 -0.855,-0.641 -1.923,-1.069 -3.21,-1.069 -1.602,0 -2.887,0.535 -3.744,1.391 -0.964,0.961 -1.389,2.137 -1.389,3.741 0,1.818 0.425,3.101 1.389,4.063 0.857,0.962 2.142,1.497 3.744,1.497 2.889,0 4.387,-1.283 4.601,-3.742 h -2.78 c -0.109,1.39 -0.751,2.031 -1.821,2.031 -1.602,0 -2.353,-1.069 -2.353,-3.314 0,-2.566 0.751,-3.85 2.353,-3.85 0.536,0 0.964,0.108 1.391,0.535 0.321,0.321 0.43,0.856 0.43,1.498 l 0,0.106 z"
             style="fill:#0d509a;fill-opacity:1;fill-rule:nonzero;stroke:none"
             id="path552" /></g><g
           id="g554"
           transform="translate(783.6641,294.1885)"><path
             d="m 0,0 v -10.05 h -2.783 v 1.711 c -0.535,-1.283 -1.604,-2.032 -3.315,-2.032 -1.177,0 -2.033,0.428 -2.675,1.176 -0.643,0.749 -0.964,1.711 -0.964,3.101 V 0 h 2.783 v -6.201 c 0,-1.497 0.64,-2.245 1.925,-2.245 0.855,0 1.389,0.214 1.711,0.748 0.322,0.427 0.535,1.283 0.535,2.352 l 0,5.346 z"
             style="fill:#0d509a;fill-opacity:1;fill-rule:nonzero;stroke:none"
             id="path556" /></g><g
           id="g558"
           transform="translate(785.8018,284.1387)"><path
             d="M 0,0 V 10.05 H 2.78 V 8.339 C 3.21,9.088 3.64,9.622 4.065,9.836 4.6,10.05 5.242,10.264 6.206,10.264 H 6.312 V 7.912 H 5.668 C 4.812,7.912 4.065,7.697 3.531,7.163 3.102,6.629 2.78,5.88 2.78,4.704 V 0 Z"
             style="fill:#0d509a;fill-opacity:1;fill-rule:nonzero;stroke:none"
             id="path560" /></g><path
           d="m 795.965,296.541 h -2.675 v 2.139 h 2.675 z m 0,-12.402 h -2.675 v 10.05 h 2.675 z"
           style="fill:#0d509a;fill-opacity:1;fill-rule:nonzero;stroke:none"
           id="path562" /><g
           id="g564"
           transform="translate(801.9551,292.3711)"><path
             d="m 0,0 v -4.918 c 0,-1.177 0.43,-1.711 1.498,-1.711 0.108,0 0.43,0.108 1.069,0.108 V -8.232 L 2.032,-8.34 C 1.177,-8.446 0.643,-8.554 0.213,-8.554 c -0.96,0 -1.711,0.322 -2.138,0.749 -0.534,0.427 -0.751,1.284 -0.751,2.566 V 0 h -2.245 v 1.817 h 2.245 V 3.421 L 0,4.812 V 1.817 H 2.567 V 0 Z"
             style="fill:#0d509a;fill-opacity:1;fill-rule:nonzero;stroke:none"
             id="path566" /></g><g
           id="g568"
           transform="translate(815.4365,294.1885)"><path
             d="M 0,0 C -2.141,-5.132 -4.065,-9.729 -5.563,-13.792 H -8.239 L -6.527,-10.05 -11.02,0 h 3.102 L -5.242,-6.735 -2.675,0 Z"
             style="fill:#0d509a;fill-opacity:1;fill-rule:nonzero;stroke:none"
             id="path570" /></g><g
           id="g572"
           transform="translate(820.8926,284.1387)"><path
             d="M 0,0 V 14.541 H 9.625 V 12.402 H 2.888 V 8.66 H 9.304 V 6.415 H 2.888 V 2.245 H 9.946 V 0 Z"
             style="fill:#0d509a;fill-opacity:1;fill-rule:nonzero;stroke:none"
             id="path574" /></g><g
           id="g576"
           transform="translate(836.7246,287.667)"><path
             d="m 0,0 -2.567,-3.528 h -2.889 l 3.957,5.452 -3.423,4.597 h 3.423 L 0.534,3.742 2.566,6.521 H 5.455 L 2.032,1.924 6.098,-3.528 H 2.566 Z"
             style="fill:#0d509a;fill-opacity:1;fill-rule:nonzero;stroke:none"
             id="path578" /></g><g
           id="g580"
           transform="translate(846.5664,285.208)"><path
             d="M 0,0 V -4.812 H -2.889 V 8.98 H 0 V 7.697 c 0.747,1.07 1.816,1.605 3.102,1.605 1.389,0 2.354,-0.428 3.21,-1.391 C 7.059,6.949 7.488,5.773 7.488,4.169 7.488,2.565 7.059,1.176 6.203,0.213 5.348,-0.855 4.278,-1.391 2.993,-1.391 1.816,-1.391 0.855,-0.963 0,0 m 4.705,4.062 c 0,2.246 -0.856,3.315 -2.351,3.315 -0.75,0 -1.393,-0.321 -1.82,-0.856 -0.43,-0.641 -0.642,-1.497 -0.642,-2.565 0,-2.352 0.751,-3.529 2.246,-3.529 0.855,0 1.393,0.321 1.819,0.963 0.534,0.641 0.748,1.497 0.748,2.672"
             style="fill:#0d509a;fill-opacity:1;fill-rule:nonzero;stroke:none"
             id="path582" /></g><g
           id="g584"
           transform="translate(858.1201,288.6289)"><path
             d="m 0,0 v -0.321 c 0,-0.855 0.104,-1.496 0.534,-2.032 0.426,-0.426 0.964,-0.748 1.712,-0.748 1.177,0 1.924,0.642 2.141,1.925 h 2.672 c 0,-1.069 -0.426,-1.925 -1.283,-2.566 -0.855,-0.748 -1.927,-1.07 -3.317,-1.07 -2.355,0 -3.957,0.856 -4.813,2.567 -0.322,0.748 -0.535,1.603 -0.535,2.565 0,1.711 0.535,3.102 1.391,4.064 0.964,0.962 2.141,1.497 3.744,1.497 3.315,0 5.029,-1.818 5.029,-5.346 L 7.275,0 Z M 4.387,1.711 C 4.387,3.314 3.636,4.17 2.354,4.17 0.96,4.17 0.213,3.314 0,1.711 Z"
             style="fill:#0d509a;fill-opacity:1;fill-rule:nonzero;stroke:none"
             id="path586" /></g><g
           id="g588"
           transform="translate(867.1064,284.1387)"><path
             d="M 0,0 V 10.05 H 2.78 V 8.339 c 0.43,0.749 0.747,1.283 1.285,1.497 0.427,0.214 1.174,0.428 2.138,0.428 H 6.312 V 7.912 H 5.669 C 4.813,7.912 4.065,7.697 3.527,7.163 3.102,6.629 2.78,5.88 2.78,4.704 V 0 Z"
             style="fill:#0d509a;fill-opacity:1;fill-rule:nonzero;stroke:none"
             id="path590" /></g><g
           id="g592"
           transform="translate(878.3389,292.3711)"><path
             d="m 0,0 v -4.918 c 0,-1.177 0.534,-1.711 1.498,-1.711 0.106,0 0.535,0.108 1.069,0.108 V -8.232 L 2.033,-8.34 c -0.751,-0.106 -1.39,-0.214 -1.82,-0.214 -0.964,0 -1.603,0.322 -2.141,0.749 -0.426,0.427 -0.747,1.284 -0.747,2.566 V 0 h -2.246 v 1.817 h 2.246 V 3.421 L 0,4.812 V 1.817 H 2.567 V 0 Z"
             style="fill:#0d509a;fill-opacity:1;fill-rule:nonzero;stroke:none"
             id="path594" /></g><g
           id="g596"
           transform="translate(806.4766,569.1963)"><path
             d="m 0,0 c -11.636,-7.264 -25.69,-4.994 -25.69,-4.994 l -0.183,83.653 c 0,0 12.39,0.104 22.952,-4.587 C 8.818,69.381 20.612,56.33 20.761,37.216 20.91,18.093 10.479,6.063 0,0 m 42.274,70.346 c 0,0 0.957,0.144 -29.439,-0.103 v 30.271 c 0,0 -2.415,4.645 -16.026,8.2 -4.592,1.09 -9.143,1.09 -13.693,1.09 H -57.84 V 31.75 l 31.855,-65.941 h 22.753 c 0,0 54.864,9.508 54.388,70.452 -0.195,25.102 -8.882,34.085 -8.882,34.085"
             style="fill:#16509b;fill-opacity:1;fill-rule:nonzero;stroke:none"
             id="path598" /></g><g
           id="g600"
           transform="translate(689,582)"><path
             d="M 0,0 14,30 29,0 Z M 14,96.995 -54,-47 h 33 l 9,19 h 52 l 9,-19 h 33 z"
             style="fill:#16509b;fill-opacity:1;fill-rule:nonzero;stroke:none"
             id="path602" /></g><g
           id="g604"
           transform="translate(825.9092,678.9951)"><path
             d="m 0,0 v -32.515 h 40.909 v -111.48 h 31.819 v 111.48 h 36.363 V 0 Z"
             style="fill:#16509b;fill-opacity:1;fill-rule:nonzero;stroke:none"
             id="path606" /></g><g
           id="g608"
           transform="translate(916.5,636.6528)"><path
             d="m 0,0 c -5.047,0 -9.153,-4.106 -9.153,-9.153 0,-5.047 4.106,-9.153 9.153,-9.153 5.047,0 9.153,4.106 9.153,9.153 C 9.153,-4.106 5.047,0 0,0 m 0,-20.653 c -6.342,0 -11.5,5.159 -11.5,11.5 0,6.341 5.158,11.5 11.5,11.5 6.342,0 11.5,-5.159 11.5,-11.5 0,-6.341 -5.158,-11.5 -11.5,-11.5"
             style="fill:#16509b;fill-opacity:1;fill-rule:nonzero;stroke:none"
             id="path610" /></g><g
           id="g612"
           transform="translate(914.5967,627.8437)"><path
             d="m 0,0 h 1.797 c 1.731,0 2.67,0.687 2.67,2.078 0,1.391 -0.939,1.875 -2.67,1.875 H 0 Z M 4.628,-6.094 1.927,-1.453 H 0 v -4.641 h -1.876 v 11.5 h 3.899 c 2.46,0 4.305,-0.844 4.305,-3.328 0,-1.781 -0.987,-2.844 -2.493,-3.297 l 2.914,-4.875 z"
             style="fill:#16509b;fill-opacity:1;fill-rule:nonzero;stroke:none"
             id="path614" /></g><path
           d="M 580,495 H 280 v 225 h 300 z"
           style="fill:#16509b;fill-opacity:1;fill-rule:nonzero;stroke:none"
           id="path616" /><g
           id="g618"
           transform="translate(451.4766,569.1963)"><path
             d="m 0,0 c -11.636,-7.264 -25.69,-4.994 -25.69,-4.994 l -0.183,83.653 c 0,0 12.39,0.104 22.952,-4.587 C 8.818,69.381 20.612,56.33 20.761,37.216 20.91,18.093 10.479,6.063 0,0 m 42.274,70.346 c 0,0 0.957,0.144 -29.439,-0.103 v 30.271 c 0,0 -2.415,4.645 -16.026,8.2 -4.592,1.09 -9.143,1.09 -13.693,1.09 H -57.84 V 31.706 l 31.855,-65.897 h 22.753 c 0,0 54.864,9.508 54.388,70.452 -0.195,25.102 -8.882,34.085 -8.882,34.085"
             style="fill:#ffffff;fill-opacity:1;fill-rule:nonzero;stroke:none"
             id="path620" /></g><g
           id="g622"
           transform="translate(334,582)"><path
             d="M 0,0 14,30 29,0 Z M 14,96.995 -54,-47 h 33 l 9,19 h 52 l 9,-19 h 33 z"
             style="fill:#ffffff;fill-opacity:1;fill-rule:nonzero;stroke:none"
             id="path624" /></g><g
           id="g626"
           transform="translate(470.9092,678.9951)"><path
             d="m 0,0 v -32.515 h 40.909 v -111.48 h 31.819 v 111.48 h 36.363 V 0 Z"
             style="fill:#ffffff;fill-opacity:1;fill-rule:nonzero;stroke:none"
             id="path628" /></g><g
           id="g630"
           transform="translate(561.5,636.6528)"><path
             d="m 0,0 c -5.047,0 -9.153,-4.106 -9.153,-9.153 0,-5.047 4.106,-9.153 9.153,-9.153 5.047,0 9.153,4.106 9.153,9.153 C 9.153,-4.106 5.047,0 0,0 m 0,-20.653 c -6.342,0 -11.5,5.159 -11.5,11.5 0,6.341 5.158,11.5 11.5,11.5 6.342,0 11.5,-5.159 11.5,-11.5 0,-6.341 -5.158,-11.5 -11.5,-11.5"
             style="fill:#ffffff;fill-opacity:1;fill-rule:nonzero;stroke:none"
             id="path632" /></g><g
           id="g634"
           transform="translate(559.5967,627.8437)"><path
             d="m 0,0 h 1.797 c 1.731,0 2.67,0.687 2.67,2.078 0,1.391 -0.939,1.875 -2.67,1.875 H 0 Z M 4.628,-6.094 1.927,-1.453 H 0 v -4.641 h -1.876 v 11.5 h 3.899 c 2.46,0 4.305,-0.844 4.305,-3.328 0,-1.781 -0.987,-2.844 -2.493,-3.297 l 2.914,-4.875 z"
             style="fill:#ffffff;fill-opacity:1;fill-rule:nonzero;stroke:none"
             id="path636" /></g><g
           id="g638"
           transform="translate(357.1021,145.6016)"><path
             d="m 0,0 c 0.363,-0.25 0.601,-0.667 0.601,-1.141 0,-0.764 -0.62,-1.384 -1.385,-1.384 -0.352,0 -0.67,0.135 -0.914,0.352 -2.488,-2.596 -5.987,-4.216 -9.867,-4.216 -7.546,0 -13.663,6.115 -13.663,13.658 0,7.543 6.117,13.657 13.663,13.657 7.545,0 13.663,-6.114 13.663,-13.657 C 2.098,4.597 1.327,2.105 0,0 m 4.546,6.688 c 0.007,0.194 0.015,0.386 0.015,0.581 0,8.908 -7.22,16.129 -16.126,16.129 -7.181,0 -13.263,-4.696 -15.351,-11.184 -1.197,0.8 -2.636,1.266 -4.184,1.266 -3.792,0 -6.93,-2.796 -7.468,-6.44 -4.746,-1.125 -8.28,-5.41 -8.28,-10.527 0,-5.975 4.815,-10.819 10.754,-10.819 H 0.89 c 5.939,0 10.754,4.844 10.754,10.819 0,4.682 -2.958,8.67 -7.098,10.175"
             style="fill:#16509b;fill-opacity:1;fill-rule:nonzero;stroke:none"
             id="path640" /></g><g
           id="g642"
           transform="translate(345.5371,141.2969)"><path
             d="m 0,0 c -6.394,0 -11.577,5.182 -11.577,11.573 0,6.392 5.183,11.574 11.577,11.574 6.394,0 11.577,-5.182 11.577,-11.574 C 11.577,5.182 6.394,0 0,0 m 0,24.958 c -7.384,0 -13.391,-6.004 -13.391,-13.385 0,-7.38 6.007,-13.385 13.391,-13.385 3.802,0 7.237,1.596 9.677,4.149 -0.174,0.231 -0.281,0.516 -0.281,0.827 0,0.765 0.621,1.385 1.385,1.385 0.192,0 0.374,-0.039 0.54,-0.11 1.308,2.067 2.069,4.513 2.069,7.134 0,7.381 -6.007,13.385 -13.39,13.385"
             style="fill:#16509b;fill-opacity:1;fill-rule:nonzero;stroke:none"
             id="path644" /></g><g
           id="g646"
           transform="translate(504.8525,379.793)"><path
             d="m 0,0 c 0.013,0.478 0.036,0.953 0.036,1.434 0,29.699 -24.069,53.773 -53.761,53.773 -23.835,0 -44.034,-15.52 -51.079,-37.006 -4.109,2.917 -9.126,4.637 -14.547,4.637 -12.642,0 -23.105,-9.323 -24.898,-21.471 -15.822,-3.749 -27.604,-18.034 -27.604,-35.096 0,-19.917 16.052,-36.064 35.853,-36.064 h 123.295 c 19.801,0 35.852,16.147 35.852,36.064 C 23.147,-18.312 13.527,-5.16 0,0"
             style="fill:#16509b;fill-opacity:1;fill-rule:evenodd;stroke:none"
             id="path648" /></g><g
           id="g650"
           transform="translate(450.7676,427.7402)"><path
             d="m 0,0 c -25.155,0 -45.548,-20.385 -45.548,-45.53 0,-25.147 20.393,-45.531 45.548,-45.531 25.156,0 45.55,20.384 45.55,45.531 C 45.55,-20.385 25.156,0 0,0 m 0,-0.908 c 24.615,0 44.642,-20.018 44.642,-44.622 0,-24.606 -20.027,-44.622 -44.642,-44.622 -24.615,0 -44.64,20.016 -44.64,44.622 0,24.604 20.025,44.622 44.64,44.622"
             style="fill:#ffffff;fill-opacity:1;fill-rule:nonzero;stroke:none"
             id="path652" /></g><g
           id="g654"
           transform="translate(450.7686,420.7939)"><path
             d="m 0,0 c 21.314,0 38.594,-17.275 38.594,-38.585 0,-21.309 -17.28,-38.583 -38.594,-38.583 -21.315,0 -38.594,17.274 -38.594,38.583 C -38.594,-17.275 -21.315,0 0,0"
             style="fill:#ffffff;fill-opacity:1;fill-rule:evenodd;stroke:none"
             id="path656" /></g><g
           id="g658"
           transform="translate(449.8389,406.9668)"><path
             d="m 0,0 c -13.764,0 -24.921,-11.157 -24.921,-24.92 0,-13.762 11.157,-24.918 24.921,-24.918 13.763,0 24.921,11.156 24.921,24.918 C 24.921,-11.157 13.763,0 0,0 m 0,-5.447 c 10.737,0 19.472,-8.736 19.472,-19.473 0,-10.736 -8.735,-19.471 -19.472,-19.471 -10.737,0 -19.472,8.735 -19.472,19.471 0,10.737 8.735,19.473 19.472,19.473"
             style="fill:#16509b;fill-opacity:1;fill-rule:nonzero;stroke:none"
             id="path660" /></g><g
           id="g662"
           transform="translate(437.5947,384.5312)"><path
             d="M 0,0 C 1.16,4.331 4.561,7.733 8.87,8.866"
             style="fill:none;stroke:#16509b;stroke-width:3;stroke-linecap:round;stroke-linejoin:miter;stroke-miterlimit:10;stroke-dasharray:none;stroke-opacity:1"
             id="path664" /></g><g
           id="g666"
           transform="translate(491.1855,353.8896)"><path
             d="m 0,0 c 0,-2.55 -2.067,-4.616 -4.616,-4.616 -2.55,0 -4.616,2.066 -4.616,4.616 0,2.548 2.066,4.614 4.616,4.614 C -2.067,4.614 0,2.548 0,0"
             style="fill:#ffffff;fill-opacity:1;fill-rule:evenodd;stroke:none"
             id="path668" /></g><g
           id="g670"
           transform="translate(345.5371,160.3447)"><path
             d="m 0,0 c -4.128,0 -7.475,-3.347 -7.475,-7.475 0,-4.128 3.347,-7.474 7.475,-7.474 4.128,0 7.475,3.346 7.475,7.474 C 7.475,-3.347 4.128,0 0,0 m 0,-1.634 c 3.221,0 5.841,-2.62 5.841,-5.841 0,-3.22 -2.62,-5.84 -5.841,-5.84 -3.221,0 -5.841,2.62 -5.841,5.84 0,3.221 2.62,5.841 5.841,5.841"
             style="fill:#16509b;fill-opacity:1;fill-rule:nonzero;stroke:none"
             id="path672" /></g><g
           id="g674"
           transform="translate(341.6284,153.2021)"><path
             d="m 0,0 c -0.039,0 -0.078,0.006 -0.117,0.016 -0.24,0.064 -0.382,0.311 -0.318,0.55 0.39,1.457 1.532,2.598 2.981,2.979 C 2.785,3.607 3.032,3.465 3.096,3.224 3.159,2.984 3.015,2.738 2.775,2.675 1.638,2.376 0.741,1.479 0.435,0.334 0.38,0.133 0.199,0 0,0"
             style="fill:#16509b;fill-opacity:1;fill-rule:nonzero;stroke:none"
             id="path676" /></g><g
           id="g678"
           transform="translate(426,289.25)"><path
             d="m 0,0 v -5.494 c -2.69,2.242 -5.473,3.364 -8.35,3.364 -3.17,0 -5.84,-1.135 -8.009,-3.404 -2.185,-2.257 -3.276,-5.017 -3.276,-8.281 0,-3.225 1.091,-5.947 3.276,-8.163 2.183,-2.216 4.859,-3.324 8.029,-3.324 1.639,0 3.029,0.265 4.175,0.796 0.639,0.266 1.301,0.624 1.988,1.075 0.686,0.451 1.408,0.995 2.167,1.633 v -5.595 c -2.664,-1.5 -5.46,-2.249 -8.39,-2.249 -4.408,0 -8.169,1.534 -11.285,4.599 -3.104,3.092 -4.655,6.82 -4.655,11.188 0,3.915 1.299,7.406 3.895,10.471 3.197,3.755 7.331,5.634 12.405,5.634 C -5.261,2.25 -2.584,1.5 0,0"
             style="fill:#16509b;fill-opacity:1;fill-rule:nonzero;stroke:none"
             id="path680" /></g><g
           id="g682"
           transform="translate(435,290.9023)"><path
             d="m 0,0 v -25.912 h 9 v -4.984 H -5 V 0 Z"
             style="fill:#16509b;fill-opacity:1;fill-rule:nonzero;stroke:none"
             id="path684" /></g><g
           id="g686"
           transform="translate(448.7129,275.5703)"><path
             d="m 0,0 c 0,-3.412 1.149,-6.217 3.449,-8.415 2.287,-2.198 4.927,-3.298 7.922,-3.298 3.249,0 5.989,1.119 8.223,3.358 2.232,2.265 3.349,5.023 3.349,8.275 0,3.29 -1.102,6.049 -3.308,8.274 -2.195,2.24 -4.908,3.359 -8.143,3.359 C 8.27,11.553 5.548,10.434 3.329,8.194 1.109,5.982 0,3.25 0,0 m -4.713,0.06 c 0,4.343 1.597,8.075 4.793,11.193 3.182,3.118 7.006,4.677 11.472,4.677 4.412,0 8.195,-1.574 11.351,-4.717 3.169,-3.146 4.753,-6.924 4.753,-11.333 0,-4.438 -1.592,-8.202 -4.773,-11.293 -3.196,-3.106 -7.053,-4.657 -11.571,-4.657 -4,0 -7.589,1.379 -10.77,4.137 -3.504,3.051 -5.255,7.048 -5.255,11.993"
             style="fill:#16509b;fill-opacity:1;fill-rule:nonzero;stroke:none"
             id="path688" /></g><g
           id="g690"
           transform="translate(512.9883,264.3887)"><path
             d="m 0,0 h 1.806 c 2.103,0 3.851,0.221 5.246,0.661 1.393,0.466 2.653,1.206 3.779,2.221 2.304,2.094 3.457,4.822 3.457,8.183 0,3.389 -1.14,6.136 -3.417,8.245 -2.051,1.88 -5.073,2.821 -9.065,2.821 H 0 Z m -4.988,-4.382 v 30.896 h 6.512 c 3.122,0 5.588,-0.308 7.397,-0.921 1.942,-0.601 3.705,-1.621 5.287,-3.062 3.202,-2.909 4.804,-6.73 4.804,-11.466 0,-4.749 -1.668,-8.591 -5.005,-11.525 C 12.331,-1.928 10.576,-2.948 8.74,-3.521 7.024,-4.096 4.592,-4.382 1.444,-4.382 Z"
             style="fill:#16509b;fill-opacity:1;fill-rule:nonzero;stroke:none"
             id="path692" /></g><g
           id="g694"
           transform="translate(485,290.9023)"><path
             d="m 0,0 v -17.939 c 0,-2.606 0.146,-4.776 1,-5.98 1.273,-1.742 3.187,-2.972 5.5,-2.972 2.325,0 4.226,1.23 5.5,2.972 0.854,1.165 1,3.334 1,5.98 V 0 h 5 v -19.933 c 0,-3.195 -1.004,-5.904 -3,-7.972 -2.246,-2.306 -5.229,-3.497 -8.5,-3.497 -3.271,0 -6.267,1.191 -8.5,3.497 -1.998,2.068 -3,5.188 -3,8.384 V 0 Z"
             style="fill:#16509b;fill-opacity:1;fill-rule:nonzero;stroke:none"
             id="path696" /></g><g
           id="g698"
           transform="translate(363.7354,267.3437)"><path
             d="m 0,0 c -2.562,-1.559 -5.656,-1.071 -5.656,-1.071 l -0.041,17.948 c 0,0 2.728,0.022 5.054,-0.984 C 1.942,14.887 4.539,12.086 4.571,7.985 4.604,3.882 2.307,1.301 0,0 m 9.308,15.094 c 0,0 0.211,0.03 -6.482,-0.023 v 6.495 c 0,0 -0.532,0.996 -3.529,1.759 -1.01,0.235 -2.012,0.235 -3.015,0.235 h -9.017 V 6.617 l 7.013,-13.953 h 5.011 c 0,0 12.08,2.04 11.975,15.116 -0.043,5.386 -1.956,7.314 -1.956,7.314"
             style="fill:#16509b;fill-opacity:1;fill-rule:nonzero;stroke:none"
             id="path700" /></g><g
           id="g702"
           transform="translate(337,269.9727)"><path
             d="M 0,0 4,7.974 8,0 Z M 4,20.93 -11,-9.966 h 7 l 2,3.987 h 12 l 2,-3.987 h 7 z"
             style="fill:#16509b;fill-opacity:1;fill-rule:nonzero;stroke:none"
             id="path704" /></g><g
           id="g706"
           transform="translate(368,290.9023)"><path
             d="m 0,0 v -6.977 h 9 v -23.919 h 7 v 23.919 h 8 V 0 Z"
             style="fill:#16509b;fill-opacity:1;fill-rule:nonzero;stroke:none"
             id="path708" /></g><g
           id="g710"
           transform="translate(486,164.25)"><path
             d="m 0,0 v -5.494 c -2.69,2.242 -5.474,3.364 -8.35,3.364 -3.17,0 -5.839,-1.135 -8.009,-3.404 -2.185,-2.257 -3.277,-5.017 -3.277,-8.281 0,-3.225 1.092,-5.947 3.277,-8.163 2.183,-2.216 4.86,-3.324 8.03,-3.324 1.638,0 3.028,0.265 4.174,0.796 0.639,0.266 1.301,0.624 1.988,1.075 0.686,0.451 1.408,0.995 2.167,1.633 v -5.595 c -2.664,-1.5 -5.461,-2.249 -8.39,-2.249 -4.408,0 -8.17,1.534 -11.286,4.599 -3.103,3.092 -4.653,6.82 -4.653,11.188 0,3.915 1.298,7.406 3.894,10.471 3.197,3.755 7.331,5.634 12.405,5.634 C -5.261,2.25 -2.584,1.5 0,0"
             style="fill:#16509b;fill-opacity:1;fill-rule:nonzero;stroke:none"
             id="path712" /></g><g
           id="g714"
           transform="translate(495,165.9023)"><path
             d="m 0,0 v -25.912 h 9 v -4.984 H -5 V 0 Z"
             style="fill:#16509b;fill-opacity:1;fill-rule:nonzero;stroke:none"
             id="path716" /></g><g
           id="g718"
           transform="translate(508.7129,150.5703)"><path
             d="m 0,0 c 0,-3.412 1.149,-6.217 3.449,-8.415 2.287,-2.198 4.927,-3.298 7.922,-3.298 3.249,0 5.989,1.119 8.223,3.358 2.232,2.265 3.349,5.023 3.349,8.275 0,3.29 -1.102,6.049 -3.308,8.274 -2.195,2.24 -4.908,3.359 -8.143,3.359 C 8.27,11.553 5.548,10.434 3.329,8.194 1.109,5.982 0,3.25 0,0 m -4.713,0.06 c 0,4.343 1.597,8.075 4.793,11.193 3.182,3.118 7.006,4.677 11.472,4.677 4.412,0 8.195,-1.574 11.351,-4.717 3.169,-3.146 4.753,-6.924 4.753,-11.333 0,-4.438 -1.592,-8.202 -4.773,-11.293 -3.196,-3.106 -7.053,-4.657 -11.571,-4.657 -4,0 -7.589,1.379 -10.77,4.137 -3.504,3.051 -5.255,7.048 -5.255,11.993"
             style="fill:#16509b;fill-opacity:1;fill-rule:nonzero;stroke:none"
             id="path720" /></g><g
           id="g722"
           transform="translate(572.9883,139.3887)"><path
             d="m 0,0 h 1.806 c 2.103,0 3.851,0.221 5.246,0.661 1.393,0.466 2.653,1.206 3.779,2.221 2.304,2.094 3.457,4.822 3.457,8.183 0,3.389 -1.14,6.136 -3.417,8.245 -2.051,1.88 -5.073,2.821 -9.065,2.821 H 0 Z m -4.988,-4.382 v 30.896 h 6.512 c 3.122,0 5.588,-0.308 7.397,-0.921 1.942,-0.601 3.705,-1.621 5.287,-3.062 3.202,-2.909 4.804,-6.73 4.804,-11.466 0,-4.749 -1.668,-8.591 -5.005,-11.525 C 12.331,-1.928 10.576,-2.948 8.74,-3.521 7.024,-4.096 4.592,-4.382 1.444,-4.382 Z"
             style="fill:#16509b;fill-opacity:1;fill-rule:nonzero;stroke:none"
             id="path724" /></g><g
           id="g726"
           transform="translate(545,165.9023)"><path
             d="m 0,0 v -17.939 c 0,-2.606 0.146,-4.776 1,-5.98 1.273,-1.742 3.187,-2.972 5.5,-2.972 2.325,0 4.226,1.23 5.5,2.972 0.854,1.165 1,3.334 1,5.98 V 0 h 5 v -19.933 c 0,-3.195 -1.004,-5.904 -3,-7.972 -2.246,-2.306 -5.229,-3.497 -8.5,-3.497 -3.271,0 -6.267,1.191 -8.5,3.497 -1.998,2.068 -3,5.188 -3,8.384 V 0 Z"
             style="fill:#16509b;fill-opacity:1;fill-rule:nonzero;stroke:none"
             id="path728" /></g><g
           id="g730"
           transform="translate(423.7354,142.3437)"><path
             d="m 0,0 c -2.562,-1.559 -5.656,-1.071 -5.656,-1.071 l -0.041,17.948 c 0,0 2.728,0.022 5.053,-0.984 C 1.941,14.887 4.538,12.086 4.571,7.985 4.604,3.882 2.308,1.301 0,0 m 9.309,15.094 c 0,0 0.21,0.03 -6.483,-0.023 v 6.495 c 0,0 -0.532,0.996 -3.528,1.759 -1.012,0.235 -2.013,0.235 -3.016,0.235 h -9.017 V 6.617 l 7.013,-13.953 h 5.01 c 0,0 12.08,2.04 11.976,15.116 -0.043,5.386 -1.955,7.314 -1.955,7.314"
             style="fill:#16509b;fill-opacity:1;fill-rule:nonzero;stroke:none"
             id="path732" /></g><g
           id="g734"
           transform="translate(397,144.9727)"><path
             d="M 0,0 4,7.974 8,0 Z M 4,20.93 -11,-9.966 h 7 l 2,3.987 h 12 l 2,-3.987 h 7 z"
             style="fill:#16509b;fill-opacity:1;fill-rule:nonzero;stroke:none"
             id="path736" /></g><g
           id="g738"
           transform="translate(428,165.9023)"><path
             d="m 0,0 v -6.977 h 9 v -23.919 h 7 v 23.919 h 8 V 0 Z"
             style="fill:#16509b;fill-opacity:1;fill-rule:nonzero;stroke:none"
             id="path740" /></g><g
           id="g742"
           transform="translate(1085.3799,112.415)"><path
             d="m 0,0 c -0.749,0 -1.181,-0.75 -1.181,-1.395 0,-0.858 0.214,-1.716 1.181,-1.716 0.967,0 1.181,0.858 1.181,1.716 C 1.181,-0.75 0.858,0 0,0"
             style="fill:#3c3e40;fill-opacity:1;fill-rule:nonzero;stroke:none"
             id="path744" /></g><path
           d="m 1062.352,178.579 h -6.206 v -0.761 h 6.206 z"
           style="fill:#3c3e40;fill-opacity:1;fill-rule:nonzero;stroke:none"
           id="path746" /><path
           d="m 1101.367,121.105 h -66.738 v 50.107 h 66.738 z m -7.51,-12.659 h -1.289 v 5.044 l -1.072,-0.858 -0.644,0.858 1.825,1.503 h 1.18 z m -4.079,0 h -1.288 v 1.287 h 1.288 z m -4.398,-0.109 c -1.608,0 -2.466,1.076 -2.466,2.47 0,1.608 1.072,2.575 2.466,2.575 1.394,0 2.575,-0.967 2.575,-2.575 0,-1.394 -0.964,-2.47 -2.575,-2.47 m -3.11,0.109 h -1.612 l -2.467,4.827 v -4.827 h -1.289 v 6.547 h 1.612 l 2.466,-4.935 v 4.935 h 1.29 z m -12.019,0 h -1.822 v 6.547 h 1.822 c 1.934,0 3.755,-0.644 3.755,-3.328 0,-2.574 -1.821,-3.219 -3.755,-3.219 m -2.253,0 h -3.863 v 6.547 h 1.289 v -5.475 h 2.574 z m -5.902,0 -0.75,2.038 c -0.213,0.537 -0.323,0.645 -0.858,0.645 h -0.427 v -2.683 h -1.29 v 6.547 h 1.395 c 1.394,0 3.005,0 3.005,-1.825 0,-0.753 -0.431,-1.395 -1.289,-1.503 0.322,0 0.536,-0.322 0.644,-0.644 l 1.073,-2.575 z m -7.189,-0.109 c -2.143,0 -3.219,1.398 -3.219,3.436 0,1.931 1.076,3.325 3.219,3.325 2.039,0 3.114,-1.394 3.114,-3.325 0,-2.038 -1.075,-3.436 -3.114,-3.436 m -5.04,0.109 h -1.717 l -1.18,5.258 -1.181,-5.258 h -1.611 l -1.822,6.547 h 1.394 l 1.181,-5.258 h 0.105 l 1.075,5.258 h 1.717 l 1.181,-5.258 1.285,5.258 h 1.181 z m 3.882,75.032 h -0.327 c 0,0 -0.107,-0.107 -0.217,-0.107 h -0.217 c -0.11,0 -0.11,0.107 -0.11,0.217 l -0.434,1.198 h 1.959 1.959 c 0.111,0.11 0.111,0.217 0.111,0.434 0.109,0.11 0.109,0.22 0.109,0.327 h -3.704 v 1.415 h 5.663 c 0,-1.522 -0.327,-2.72 -0.98,-3.591 -0.652,-0.98 -1.959,-1.851 -3.918,-2.612 -0.111,0.217 -0.328,0.433 -0.655,0.65 -0.217,0.221 -0.437,0.327 -0.76,0.548 0.65,0.106 1.304,0.323 1.848,0.543 0.654,0.327 1.198,0.65 1.526,1.088 z m 5.773,3.921 h 1.199 c 0.433,0 0.759,0 0.759,-0.11 0.112,0 0.112,-0.106 0,-0.217 0,-0.11 -0.109,-0.11 -0.109,-0.217 v -0.216 -2.18 h 0.981 v 3.051 h 1.198 0.761 c 0.11,-0.111 0.11,-0.111 0,-0.327 v -0.221 -0.217 -5.553 h -1.959 v 1.852 h -0.981 v -1.852 h -1.849 z m -3.376,-10.888 v -0.217 h -1.959 v 4.571 h 1.198 c 0.433,0 0.761,0 0.871,-0.106 v -0.221 c -0.11,0 -0.11,-0.106 -0.11,-0.106 v -0.221 -0.434 h 6.206 v 1.088 h 1.308 c 0.434,0 0.651,0 0.761,-0.106 v -0.221 c -0.11,0 -0.11,-0.106 -0.11,-0.106 v -0.221 -3.917 h -1.959 v 0.217 z m 16.114,2.178 H 1085 v -1.418 h -12.74 z m 3.704,5.553 c 0.977,0.871 1.524,1.742 1.524,2.72 h 1.415 c 0.434,0 0.655,-0.107 0.761,-0.217 0.11,0 0.11,-0.217 -0.106,-0.433 0,-0.221 0.106,-0.544 0.433,-0.872 0.217,-0.437 0.544,-0.764 0.982,-1.091 0.544,-0.434 1.088,-0.761 1.631,-1.088 0.764,-0.327 1.415,-0.544 2.179,-0.654 -0.217,-0.107 -0.437,-0.327 -0.654,-0.65 -0.217,-0.221 -0.434,-0.437 -0.654,-0.765 -0.978,0.217 -1.958,0.655 -2.94,1.308 -0.977,0.65 -1.632,1.305 -1.959,1.849 -0.327,-0.544 -0.871,-1.199 -1.851,-1.958 -0.978,-0.655 -1.849,-1.088 -2.83,-1.309 -0.217,0.221 -0.438,0.438 -0.655,0.654 -0.327,0.327 -0.544,0.544 -0.761,0.655 1.305,0.326 2.503,0.87 3.485,1.851 m -27.491,8.752 -27.577,-27.575 v -38.946 l 27.577,-27.577 h 39.054 l 27.577,27.577 v 38.946 l -27.577,27.575 z"
           style="fill:#3c3e40;fill-opacity:1;fill-rule:nonzero;stroke:none"
           id="path748" /><g
           id="g750"
           transform="translate(1054.9072,114.0264)"><path
             d="m 0,0 c -1.394,0 -1.821,-1.181 -1.821,-2.253 0,-1.181 0.427,-2.36 1.821,-2.36 1.289,0 1.825,1.179 1.825,2.36 C 1.825,-1.181 1.289,0 0,0"
             style="fill:#3c3e40;fill-opacity:1;fill-rule:nonzero;stroke:none"
             id="path752" /></g><g
           id="g754"
           transform="translate(1060.4883,113.918)"><path
             d="M 0,0 H -0.428 V -1.717 H 0 c 0.645,0 1.394,0.109 1.394,0.859 C 1.394,0 0.645,0 0,0"
             style="fill:#3c3e40;fill-opacity:1;fill-rule:nonzero;stroke:none"
             id="path756" /></g><g
           id="g758"
           transform="translate(1070.4678,113.918)"><path
             d="M 0,0 H -0.753 V -4.4 H 0 c 1.072,0 2.144,0.753 2.144,2.147 C 2.144,-0.75 1.072,0 0,0"
             style="fill:#3c3e40;fill-opacity:1;fill-rule:nonzero;stroke:none"
             id="path760" /></g><g
           id="g762"
           transform="translate(1116.0664,126.041)"><path
             d="M 0,0 -28.111,-28.109 H -67.916 L -96.137,0 v 39.809 l 28.221,28.22 h 39.805 L 0,39.809 Z M -27.358,69.959 H -68.774 L -98.066,40.667 V -0.749 l 29.292,-29.292 h 41.416 L 1.934,-0.749 v 41.416 z"
             style="fill:#3c3e40;fill-opacity:1;fill-rule:nonzero;stroke:none"
             id="path764" /></g><path
           d="m 1056.146,178.579 h 6.206 v -0.761 h -6.206 z"
           style="fill:#3c3e40;fill-opacity:1;fill-rule:nonzero;stroke:none"
           id="path766" /><g
           id="g768"
           transform="translate(1047.8281,141.2793)"><path
             d="M 0,0 H 5.576 L 2.788,5.794 Z"
             style="fill:#3c3e40;fill-opacity:1;fill-rule:nonzero;stroke:none"
             id="path770" /></g><g
           id="g772"
           transform="translate(1072.7207,154.6895)"><path
             d="m 0,0 c -2.253,0.967 -5.367,0.967 -5.367,0.967 v -17.918 c 0,0 3.114,-0.322 5.794,1.071 2.361,1.181 4.509,3.756 4.509,7.833 C 4.936,-3.756 2.466,-1.072 0,0"
             style="fill:#3c3e40;fill-opacity:1;fill-rule:nonzero;stroke:none"
             id="path774" /></g><g
           id="g776"
           transform="translate(1097.29,150.1846)"><path
             d="M 0,0 -0.749,1.18 H -1.181 V 0 h -0.426 v 2.683 h 0.962 C 0,2.683 0.322,2.47 0.322,1.93 0.322,1.394 0.108,1.18 -0.322,1.18 L 0.431,0 Z m -0.749,3.219 c -1.076,0 -1.825,-0.749 -1.825,-1.93 0,-1.076 0.749,-1.935 1.825,-1.935 1.071,0 1.93,0.859 1.93,1.935 0,1.181 -0.859,1.93 -1.93,1.93"
             style="fill:#3c3e40;fill-opacity:1;fill-rule:nonzero;stroke:none"
             id="path778" /></g><g
           id="g780"
           transform="translate(1096.541,149.2168)"><path
             d="M 0,0 C -1.289,0 -2.361,0.968 -2.361,2.257 -2.361,3.65 -1.289,4.614 0,4.614 1.285,4.614 2.357,3.65 2.357,2.257 2.357,0.968 1.285,0 0,0 m -24.172,-18.437 h -4.465 l -7.077,14.374 v 17.311 h 9.04 c 1.305,-0.11 2.502,-0.217 3.046,-0.437 2.507,-0.651 3.378,-1.304 3.378,-1.304 V 4.973 h 6.75 c 0,0 1.849,-2.506 1.849,-7.839 0,-13.395 -12.521,-15.571 -12.521,-15.571 M 3.646,6.226 h -7.188 v -24.357 h -6.761 V 6.226 h -9.118 v 6.652 H 3.646 v 8.046 h -64.378 v -38.419 l 15.343,30.264 15.129,-30.686 h -7.832 l -1.93,3.863 h -11.697 l -1.929,-4.077 h -7.084 v -8.904 H 3.646 Z"
             style="fill:#3c3e40;fill-opacity:1;fill-rule:nonzero;stroke:none"
             id="path782" /></g><g
           id="g784"
           transform="translate(1097.1816,152.1143)"><path
             d="m 0,0 c 0,0.322 -0.214,0.431 -0.536,0.431 h -0.536 v -0.858 h 0.431 C -0.322,-0.427 0,-0.427 0,0"
             style="fill:#3c3e40;fill-opacity:1;fill-rule:nonzero;stroke:none"
             id="path786" /></g></g></g></g></svg>
