<?xml version="1.0" encoding="UTF-8" standalone="no"?>
<!-- Created with Inkscape (http://www.inkscape.org/) -->

<svg
   version="1.1"
   id="svg2"
   xml:space="preserve"
   width="1122.52"
   height="1076"
   viewBox="0 0 1122.52 1076"
   sodipodi:docname="SKB_LOGO.ai"
   xmlns:inkscape="http://www.inkscape.org/namespaces/inkscape"
   xmlns:sodipodi="http://sodipodi.sourceforge.net/DTD/sodipodi-0.dtd"
   xmlns="http://www.w3.org/2000/svg"
   xmlns:svg="http://www.w3.org/2000/svg"><defs
     id="defs6"><clipPath
       clipPathUnits="userSpaceOnUse"
       id="clipPath16"><path
         d="M 0,807 H 841.89 V 0 H 0 Z"
         id="path14" /></clipPath></defs><sodipodi:namedview
     id="namedview4"
     pagecolor="#ffffff"
     bordercolor="#666666"
     borderopacity="1.0"
     inkscape:pageshadow="2"
     inkscape:pageopacity="0.0"
     inkscape:pagecheckerboard="0" /><g
     id="g8"
     inkscape:groupmode="layer"
     inkscape:label="SKB_LOGO"
     transform="matrix(1.3333333,0,0,-1.3333333,0,1076)"><g
       id="g10"><g
         id="g12"
         clip-path="url(#clipPath16)"><g
           id="g18"
           transform="translate(149.6318,474.1357)"><path
             d="m 0,0 c -1.911,0.895 -3.48,1.617 -3.48,3.076 0,1.115 0.894,1.928 2.659,1.928 0.648,0 1.178,-0.078 1.726,-0.177 0.288,-0.05 0.593,-0.091 0.847,-0.091 1.541,0 2.412,0.918 2.988,2.662 L 4.979,8.11 c -0.247,0.101 -2.764,1.204 -6.047,1.204 -5.22,0 -7.978,-3.347 -7.976,-6.822 0,-1.754 0.549,-3.023 1.408,-4.024 1.107,-1.286 2.683,-2.128 4.16,-2.848 2.153,-1.056 4.094,-1.837 4.094,-3.401 0.003,-1.389 -1.433,-2.178 -3.351,-2.178 -2.628,0 -4.924,1.502 -5.218,1.682 l -2.157,-4.043 c 0.382,-0.216 3.162,-1.982 7.735,-1.982 4.873,0.005 8.564,2.796 8.564,7.099 C 6.191,-2.928 2.771,-1.341 0,0"
             style="fill:#f47725;fill-opacity:1;fill-rule:nonzero;stroke:none"
             id="path20" /></g><g
           id="g22"
           transform="translate(168.6948,472.1377)"><path
             d="M 0,0 8.839,10.84 H 2.542 L -4.511,1.488 h -0.103 v 9.352 h -5.194 l 0.002,-22.96 h 0.309 c 2.245,0 4.916,1.038 4.916,4.788 v 5.271 h 0.105 l 7.187,-9.773 h 6.607 z"
             style="fill:#f47725;fill-opacity:1;fill-rule:nonzero;stroke:none"
             id="path24" /></g><g
           id="g26"
           transform="translate(193.2695,466.5039)"><path
             d="m 0,0 c 0,-2.669 -1.671,-3.911 -3.578,-3.911 -0.809,0 -1.358,0.154 -1.526,0.189 v 7.45 c 0.182,0.046 0.746,0.194 1.526,0.194 C -1.498,3.922 0,2.551 0,0 m 3.394,-0.089 c 0,4.48 -2.948,6.59 -6.346,6.59 -1.108,0 -2.064,-0.263 -2.152,-0.285 v 3.425 c 0,1.928 -1.212,2.899 -2.662,2.899 H -8.263 V -5.692 c 0.354,-0.114 2.384,-0.787 5.093,-0.787 4.145,0 6.564,2.627 6.564,6.39"
             style="fill:#ee7624;fill-opacity:1;fill-rule:nonzero;stroke:none"
             id="path28" /></g><g
           id="g30"
           transform="translate(205.9766,473.0088)"><path
             d="m 0,0 c -1.514,0 -2.845,-1.237 -3.387,-1.779 -0.242,0.58 -0.68,1.544 -2.281,1.544 -0.423,0 -0.829,-0.098 -0.829,-0.098 0.088,-0.431 0.351,-1.363 0.351,-3.002 v -9.37 h 3.166 v 8.84 c 0.376,0.295 1.195,1.082 2.435,1.097 0.839,0.006 1.358,-0.334 1.438,-0.379 l 1.158,2.625 C 1.921,-0.439 1.357,0 0,0"
             style="fill:#ee7624;fill-opacity:1;fill-rule:nonzero;stroke:none"
             id="path32" /></g><g
           id="g34"
           transform="translate(215.2397,462.46)"><path
             d="M 0,0 C 1.954,0 3.061,1.669 3.061,4.051 3.061,6.412 1.975,8.114 0,8.114 -1.907,8.114 -3.054,6.461 -3.054,4.051 -3.054,1.728 -1.962,0 0,0 m 0,-2.436 c -3.872,0 -6.203,2.557 -6.203,6.487 0,3.915 2.301,6.498 6.203,6.498 3.915,0 6.21,-2.583 6.21,-6.498 C 6.21,0.354 4.085,-2.436 0,-2.436"
             style="fill:#ee7624;fill-opacity:1;fill-rule:nonzero;stroke:none"
             id="path36" /></g><g
           id="g38"
           transform="translate(231.8296,463.4307)"><path
             d="m 0,0 c -0.195,-0.115 -1.048,-0.887 -2.318,-0.887 -1.093,0 -1.924,0.664 -1.924,1.764 0,0.926 0.894,1.73 2.608,1.73 H 0 Z m 0.273,-1.878 c 0.222,-0.571 0.755,-1.247 1.864,-1.247 0.585,0 1.342,0.154 1.467,0.203 -0.096,0.361 -0.386,1.331 -0.386,3.51 v 4.366 c 0,3.235 -2.083,4.624 -5.302,4.624 -2.708,0 -4.642,-1.298 -4.866,-1.449 0,0 0.13,-0.229 0.22,-0.383 0.269,-0.464 0.509,-1.142 1.303,-1.142 0.789,0 1.467,0.605 2.971,0.605 C -0.802,7.209 0,6.408 0,5.182 V 4.744 h -1.038 c -4.242,0 -6.477,-1.642 -6.477,-4.275 0,-2.325 1.774,-3.875 4.225,-3.875 2.332,0 3.359,1.359 3.563,1.528"
             style="fill:#ee7624;fill-opacity:1;fill-rule:nonzero;stroke:none"
             id="path40" /></g><g
           id="g42"
           transform="translate(245.3999,470.4258)"><path
             d="M 0,0 C 0.78,0 1.343,-0.146 1.529,-0.194 L 1.526,-7.642 C 1.359,-7.679 0.809,-7.833 0,-7.833 c -1.909,0 -3.579,1.242 -3.579,3.912 C -3.579,-1.371 -2.081,0 0,0 m -0.409,-10.401 c 2.71,0 4.739,0.673 5.094,0.787 V 8.618 H 4.188 C 2.739,8.618 1.526,7.647 1.526,5.72 V 2.296 c -0.089,0.02 -1.044,0.283 -2.153,0.283 -3.398,0 -6.347,-2.11 -6.347,-6.59 0,-3.762 2.421,-6.39 6.565,-6.39"
             style="fill:#ee7624;fill-opacity:1;fill-rule:nonzero;stroke:none"
             id="path44" /></g><g
           id="g46"
           transform="translate(305.2192,470.4258)"><path
             d="M 0,0 C 0.778,0 1.342,-0.146 1.526,-0.194 V -7.642 C 1.356,-7.679 0.81,-7.833 0,-7.833 c -1.909,0 -3.58,1.242 -3.58,3.912 C -3.58,-1.371 -2.08,0 0,0 m -0.411,-10.401 c 2.712,0 4.742,0.673 5.095,0.787 V 8.618 H 4.185 C 2.738,8.618 1.526,7.647 1.526,5.72 V 2.296 c -0.089,0.02 -1.044,0.283 -2.153,0.283 -3.397,0 -6.347,-2.11 -6.347,-6.59 0,-3.762 2.422,-6.39 6.563,-6.39"
             style="fill:#ee7624;fill-opacity:1;fill-rule:nonzero;stroke:none"
             id="path48" /></g><g
           id="g50"
           transform="translate(262.6704,466.5039)"><path
             d="m 0,0 c 0,-2.669 -1.671,-3.911 -3.579,-3.911 -0.808,0 -1.357,0.154 -1.525,0.189 l -0.002,7.45 C -4.92,3.774 -4.358,3.922 -3.579,3.922 -1.5,3.922 0,2.551 0,0 m 3.395,-0.089 c 0,4.48 -2.95,6.59 -6.348,6.59 -1.109,0 -2.063,-0.263 -2.151,-0.285 v 3.425 c 0,1.928 -1.212,2.899 -2.661,2.899 H -8.264 V -5.692 c 0.355,-0.114 2.383,-0.787 5.095,-0.787 4.145,0 6.564,2.627 6.564,6.39"
             style="fill:#ee7624;fill-opacity:1;fill-rule:nonzero;stroke:none"
             id="path52" /></g><g
           id="g54"
           transform="translate(276.4644,463.4307)"><path
             d="m 0,0 c -0.196,-0.115 -1.048,-0.887 -2.317,-0.887 -1.094,0 -1.927,0.664 -1.927,1.764 0,0.926 0.895,1.73 2.609,1.73 H 0 Z m 0.272,-1.878 c 0.224,-0.571 0.757,-1.247 1.864,-1.247 0.585,0 1.342,0.154 1.467,0.203 -0.096,0.361 -0.385,1.331 -0.385,3.51 v 4.366 c 0,3.235 -2.084,4.624 -5.304,4.624 -2.708,0 -4.641,-1.298 -4.864,-1.449 0,0 0.129,-0.229 0.219,-0.383 0.268,-0.464 0.51,-1.142 1.303,-1.142 0.789,0 1.467,0.605 2.971,0.605 C -0.803,7.209 0,6.408 0,5.182 V 4.744 h -1.039 c -4.24,0 -6.474,-1.642 -6.474,-4.275 0,-2.325 1.77,-3.875 4.222,-3.875 2.332,0 3.361,1.359 3.563,1.528"
             style="fill:#ee7624;fill-opacity:1;fill-rule:nonzero;stroke:none"
             id="path56" /></g><g
           id="g58"
           transform="translate(283.7271,468.7334)"><path
             d="m 0,0 v -8.43 h 3.166 v 8.76 c 0.169,0.161 1.294,1.232 2.541,1.232 1.629,0 2.476,-1.179 2.476,-2.714 V -8.43 h 3.155 v 8.069 c 0,3.833 -2.945,4.679 -4.593,4.679 C 4.771,4.318 3.36,3.08 2.941,2.656 2.809,3.171 2.203,4.041 0.824,4.041 0.336,4.041 -0.301,3.898 -0.361,3.885 -0.263,3.404 0,2.275 0,0"
             style="fill:#ee7624;fill-opacity:1;fill-rule:nonzero;stroke:none"
             id="path60" /></g><g
           id="g62"
           transform="translate(185.9351,490.1094)"><path
             d="m 0,0 0.709,-0.027 c 0.332,-0.021 0.706,-0.042 1.214,-0.04 3.485,0.015 5.753,1.246 6.993,1.935 -2.865,1.804 -7.007,3.623 -12.127,3.829 -0.338,-0.956 -2.972,-8.278 -3.172,-8.866 0.032,-0.036 0.493,-0.555 1.068,-1.56 0.799,-1.299 1.249,-2.417 1.553,-3.256 0.656,1.103 0.768,2.808 0.833,4.76 C -2.864,-1.599 -2.584,-0.009 0,0"
             style="fill:#cf102d;fill-opacity:1;fill-rule:nonzero;stroke:none"
             id="path64" /></g><g
           id="g66"
           transform="translate(199.2026,488.3301)"><path
             d="M 0,0 C -0.226,0.371 -1.39,1.604 -3.328,2.965 L -3.382,2.934 c -1.526,-0.841 -4.076,-2.251 -7.852,-2.267 -0.495,0 -0.787,0.018 -1.042,0.034 l -0.688,0.025 c -1.778,-0.01 -2.137,-0.764 -2.199,-2.243 l -0.012,-0.4 -0.019,-0.743 c -0.067,-1.635 -0.28,-3.478 -1.336,-4.759 l -0.047,-0.056 c 0.045,-0.107 0.085,-0.2 0.128,-0.272 0.094,-0.159 0.218,-0.231 0.368,-0.231 0.095,0 0.211,0.034 0.338,0.092 0.313,0.143 12.731,5.923 14.601,6.787 0.274,0.132 0.788,0.361 0.959,0.458 0.177,0.102 0.257,0.249 0.257,0.397 C 0.072,-0.161 0.047,-0.076 0,0"
             style="fill:#ee7624;fill-opacity:1;fill-rule:nonzero;stroke:none"
             id="path68" /></g><g
           id="g70"
           transform="translate(177.3711,501.5625)"><path
             d="m 0,0 -0.112,-0.021 c -1.232,-0.233 -3.186,-1.374 -3.18,-3.453 0.003,-0.872 0.343,-1.597 0.704,-2.365 0.413,-0.886 0.882,-1.889 0.885,-3.269 0.009,-2.091 -1.193,-3.291 -2.039,-3.876 0.386,0.026 0.8,0.045 1.247,0.045 1.159,0.003 1.86,-0.107 1.902,-0.115 l 5.946,7.298 C 3.739,-3.342 1.864,-1.458 0,0"
             style="fill:#cf102d;fill-opacity:1;fill-rule:nonzero;stroke:none"
             id="path72" /></g><g
           id="g74"
           transform="translate(172.4414,488.9404)"><path
             d="M 0,0 C 1.091,0.632 2.157,1.714 2.152,3.541 2.148,4.635 1.762,5.465 1.354,6.347 0.953,7.213 0.538,8.107 0.535,9.256 c -0.009,2.495 2.009,3.779 3.278,4.174 -4.023,2.781 -7.786,3.66 -8.48,3.658 -0.242,0 -0.448,-0.166 -0.448,-0.484 0,-0.196 0.075,-0.747 0.107,-1.046 0.218,-2.062 1.708,-15.665 1.746,-16.009 0.04,-0.345 0.189,-0.546 0.491,-0.544 0.046,0 0.101,0.002 0.162,0.009 0.213,0.019 0.647,0.083 1.147,0.275 C -0.871,-0.483 -0.484,-0.276 0,0"
             style="fill:#ee7624;fill-opacity:1;fill-rule:nonzero;stroke:none"
             id="path76" /></g><g
           id="g78"
           transform="translate(169.2817,432.0039)"><path
             d="m 0,0 c -0.102,-0.316 -0.177,-0.535 -0.23,-0.646 -0.051,0.106 -0.122,0.33 -0.216,0.624 L -6.015,17.996 H -8.21 l 5.914,-19.141 c 0.434,-1.369 1.142,-1.682 2.072,-1.682 0.92,0 1.619,0.323 2.043,1.659 l 6.35,19.164 H 5.968 Z"
             style="fill:#f47725;fill-opacity:1;fill-rule:nonzero;stroke:none"
             id="path80" /></g><g
           id="g82"
           transform="translate(178,442.8721)"><path
             d="M 0,0 V -12.872 H 1.277 2 v 14 H 0 Z"
             style="fill:#f47725;fill-opacity:1;fill-rule:nonzero;stroke:none"
             id="path84" /></g><g
           id="g86"
           transform="translate(179.3618,448.4131)"><path
             d="m 0,0 c -0.751,0 -1.34,-0.589 -1.34,-1.34 0,-0.751 0.589,-1.34 1.34,-1.34 0.751,0 1.34,0.589 1.34,1.34 C 1.34,-0.589 0.751,0 0,0"
             style="fill:#f47725;fill-opacity:1;fill-rule:nonzero;stroke:none"
             id="path88" /></g><g
           id="g90"
           transform="translate(195,448.8721)"><path
             d="m 0,0 v -12.187 c 0,-2.931 -2.218,-5.408 -5.007,-5.408 -2.35,0 -4.9,2.221 -4.9,5.408 0,2.983 2.125,5.409 4.694,5.409 1.463,0 2.444,-0.54 3.449,-1.752 L -1,-9.597 v 2.913 l -0.083,0.149 c -0.16,0.108 -0.251,0.224 -0.415,0.345 -0.865,0.632 -1.908,1.419 -3.775,1.419 -3.936,0 -6.887,-3.188 -6.887,-7.416 0,-4.158 3.037,-7.416 7.08,-7.416 4.043,0 7.08,3.258 7.08,7.416 V 1.128 H 0 Z"
             style="fill:#f47725;fill-opacity:1;fill-rule:nonzero;stroke:none"
             id="path92" /></g><g
           id="g94"
           transform="translate(211.3135,436.4453)"><path
             d="m 0,0 c -0.053,-2.824 -2.441,-5.152 -5.324,-5.152 -2.905,0 -5.268,2.375 -5.268,5.315 0,2.702 1.971,5.489 5.268,5.489 1.361,0 2.619,-0.515 3.53,-1.423 l -8.501,-5.743 1.274,-1.699 10.284,6.979 -0.255,0.407 c -1.359,2.181 -3.726,3.483 -6.332,3.483 -4.212,0 -7.388,-3.2 -7.388,-7.444 0,-4.221 3.273,-7.404 7.612,-7.404 3.954,0 7.128,3.883 7.22,7.169 L 2.134,0.555 H 0.009 Z"
             style="fill:#f47725;fill-opacity:1;fill-rule:nonzero;stroke:none"
             id="path96" /></g><g
           id="g98"
           transform="translate(221.3896,431.2773)"><path
             d="m 0,0 c -2.812,0 -5.1,2.426 -5.1,5.408 0,2.983 2.288,5.408 5.1,5.408 2.812,0 5.1,-2.425 5.1,-5.408 C 5.1,2.426 2.812,0 0,0 m 0,12.824 c -3.981,0 -7.22,-3.327 -7.22,-7.416 0,-4.089 3.239,-7.416 7.22,-7.416 3.981,0 7.22,3.327 7.22,7.416 0,4.089 -3.239,7.416 -7.22,7.416"
             style="fill:#f47725;fill-opacity:1;fill-rule:nonzero;stroke:none"
             id="path100" /></g><g
           id="g102"
           transform="translate(238.6431,430.9932)"><path
             d="M 0,0 C 0.041,-0.006 0.081,-0.009 0.122,-0.015 0.081,-0.009 0.041,-0.007 0,0 m 0.769,-0.09 c 0.265,-0.019 0.529,-0.031 0.793,-0.031 -0.263,0 -0.528,0.011 -0.793,0.031 M 0.496,17.845 c 0.281,0.022 0.563,0.034 0.842,0.034 -0.281,0 -0.562,-0.014 -0.842,-0.034 M -8.85,9.007 c 0,-6.871 5.282,-10 10.188,-10 h 2.296 0.723 v 2 H 1.562 c -4.071,0 -8.18,2.473 -8.18,8 0,5.526 4.109,8 8.18,8 h 2.072 0.723 v 2 H 1.338 c -4.906,0 -10.188,-3.129 -10.188,-10"
             style="fill:#f47725;fill-opacity:1;fill-rule:nonzero;stroke:none"
             id="path104" /></g><g
           id="g106"
           transform="translate(245,448.8721)"><path
             d="M 0,0 V -18.872 H 1.277 2 v 20 H 0 Z"
             style="fill:#f47725;fill-opacity:1;fill-rule:nonzero;stroke:none"
             id="path108" /></g><g
           id="g110"
           transform="translate(257.1733,431.2773)"><path
             d="m 0,0 c -2.812,0 -5.1,2.426 -5.1,5.408 0,2.983 2.288,5.408 5.1,5.408 2.812,0 5.1,-2.425 5.1,-5.408 C 5.1,2.426 2.812,0 0,0 m 0,12.824 c -3.981,0 -7.22,-3.327 -7.22,-7.416 0,-4.089 3.239,-7.416 7.22,-7.416 3.981,0 7.22,3.327 7.22,7.416 0,4.089 -3.239,7.416 -7.22,7.416"
             style="fill:#f47725;fill-opacity:1;fill-rule:nonzero;stroke:none"
             id="path112" /></g><g
           id="g114"
           transform="translate(276.1919,434.1562)"><path
             d="M 0,0 C 0.051,0.344 0.085,0.699 0.085,1.073 0.085,0.699 0.056,0.341 0,0 m -8.915,1.214 c 0,-0.348 0.03,-0.68 0.079,-1.002 -0.052,0.318 -0.079,0.652 -0.079,1.002 m 7.723,7.502 V 1.214 c 0,-0.314 0.11,-0.611 0.069,-0.899 -0.303,-1.943 -1.674,-3.194 -3.5,-3.194 -2.093,0 -3.569,1.645 -3.569,4.093 v 8.63 h -2 V 8.716 1.073 c 0,-3.509 2.262,-5.96 5.5,-5.96 3.238,0 5.5,2.451 5.5,5.96 v 8.771 h -2 z"
             style="fill:#f47725;fill-opacity:1;fill-rule:nonzero;stroke:none"
             id="path116" /></g><g
           id="g118"
           transform="translate(291,439.2754)"><path
             d="m 0,0 v -2.59 c 0,-2.658 -1.695,-5.408 -4.764,-5.408 -2.34,0 -4.778,2.173 -4.778,5.408 0,3.188 2.658,5.408 5.012,5.408 1.569,0 2.829,-0.622 3.766,-1.752 z M 0,10.725 V 9.597 2.913 l -0.392,0.359 c -0.95,0.657 -2.181,1.554 -4.172,1.554 -3.943,0 -6.998,-3.258 -6.998,-7.416 0,-4.227 2.846,-7.416 6.781,-7.416 3.935,0 6.781,3.189 6.781,7.416 v 13.315 z"
             style="fill:#f47725;fill-opacity:1;fill-rule:nonzero;stroke:none"
             id="path120" /></g><g
           id="g122"
           transform="translate(306.4937,587.3047)"><path
             d="m 0,0 c 0.014,0.532 0.041,1.062 0.041,1.597 0,32.714 -26.506,59.232 -59.202,59.232 -26.248,0 -48.492,-17.097 -56.251,-40.762 -4.524,3.212 -10.048,5.107 -16.018,5.107 -13.918,0 -25.438,-10.264 -27.417,-23.638 -17.424,-4.093 -30.399,-19.711 -30.399,-38.366 0,-21.772 17.668,-39.421 39.461,-39.421 h 135.708 c 21.794,0 39.462,17.649 39.462,39.421 C 25.385,-20.014 14.84,-5.665 0,0"
             style="fill:#f47725;fill-opacity:1;fill-rule:evenodd;stroke:none"
             id="path124" /></g><g
           id="g126"
           transform="translate(246.9355,640.1362)"><path
             d="m 0,0 c -27.702,0 -50.159,-22.454 -50.159,-50.152 0,-27.699 22.457,-50.151 50.159,-50.151 27.702,0 50.16,22.452 50.16,50.151 C 50.16,-22.454 27.702,0 0,0 m 0,-1 c 27.107,0 49.16,-22.049 49.16,-49.152 0,-27.102 -22.053,-49.151 -49.16,-49.151 -27.106,0 -49.159,22.049 -49.159,49.151 C -49.159,-23.049 -27.106,-1 0,-1"
             style="fill:#ffffff;fill-opacity:1;fill-rule:nonzero;stroke:none"
             id="path128" /></g><g
           id="g130"
           transform="translate(246.936,632.4849)"><path
             d="M 0,0 C 23.472,0 42.5,-19.029 42.5,-42.501 42.5,-65.973 23.472,-85 0,-85 -23.472,-85 -42.5,-65.973 -42.5,-42.501 -42.5,-19.029 -23.472,0 0,0"
             style="fill:#ffffff;fill-opacity:1;fill-rule:evenodd;stroke:none"
             id="path132" /></g><g
           id="g134"
           transform="translate(245.9126,617.2544)"><path
             d="m 0,0 c -15.156,0 -27.443,-12.29 -27.443,-27.449 0,-15.159 12.287,-27.448 27.443,-27.448 15.156,0 27.443,12.289 27.443,27.448 C 27.443,-12.29 15.156,0 0,0 m 0,-6 c 11.824,0 21.443,-9.622 21.443,-21.449 0,-11.827 -9.619,-21.448 -21.443,-21.448 -11.824,0 -21.443,9.621 -21.443,21.448 C -21.443,-15.622 -11.824,-6 0,-6"
             style="fill:#f47725;fill-opacity:1;fill-rule:nonzero;stroke:none"
             id="path136" /></g><g
           id="g138"
           transform="translate(232.4292,592.542)"><path
             d="M 0,0 C 1.277,4.77 5.022,8.518 9.768,9.766"
             style="fill:none;stroke:#f47725;stroke-width:3;stroke-linecap:round;stroke-linejoin:miter;stroke-miterlimit:10;stroke-dasharray:none;stroke-opacity:1"
             id="path140" /></g><g
           id="g142"
           transform="translate(291.4438,558.7891)"><path
             d="m 0,0 c 0,-2.809 -2.276,-5.084 -5.083,-5.084 -2.808,0 -5.084,2.275 -5.084,5.084 0,2.807 2.276,5.083 5.084,5.083 C -2.276,5.083 0,2.807 0,0"
             style="fill:#ffffff;fill-opacity:1;fill-rule:evenodd;stroke:none"
             id="path144" /></g><path
           d="M 780,364 H 441 v 349 h 339 z"
           style="fill:#969696;fill-opacity:1;fill-rule:nonzero;stroke:none"
           id="path146" /><g
           id="g148"
           transform="translate(526.8848,461.0947)"><path
             d="m 0,0 c -2.217,1.038 -4.037,1.876 -4.037,3.568 0,1.293 1.037,2.236 3.084,2.236 0.752,0 1.367,-0.09 2.002,-0.205 0.334,-0.058 0.687,-0.106 0.982,-0.106 1.787,0 2.797,1.066 3.467,3.088 l 0.277,0.826 c -0.287,0.116 -3.207,1.397 -7.015,1.397 -6.053,0 -9.252,-3.883 -9.25,-7.913 0,-2.035 0.636,-3.507 1.633,-4.667 1.285,-1.493 3.113,-2.469 4.826,-3.303 2.496,-1.225 4.748,-2.131 4.748,-3.945 0.004,-1.611 -1.662,-2.526 -3.887,-2.526 -3.049,0 -5.711,1.741 -6.053,1.95 l -2.502,-4.689 c 0.444,-0.25 3.668,-2.298 8.973,-2.298 5.652,0.006 9.932,3.242 9.932,8.233 C 7.18,-3.396 3.213,-1.555 0,0"
             style="fill:#ffffff;fill-opacity:1;fill-rule:nonzero;stroke:none"
             id="path150" /></g><g
           id="g152"
           transform="translate(548.9941,458.7773)"><path
             d="M 0,0 10.252,12.572 H 2.947 L -5.232,1.727 h -0.12 v 10.845 h -6.023 l 0.002,-26.629 h 0.357 c 2.604,0 5.704,1.204 5.704,5.553 v 6.114 h 0.121 l 8.336,-11.335 h 7.662 z"
             style="fill:#ffffff;fill-opacity:1;fill-rule:nonzero;stroke:none"
             id="path154" /></g><g
           id="g156"
           transform="translate(577.4961,452.2432)"><path
             d="m 0,0 c 0,-3.095 -1.937,-4.536 -4.15,-4.536 -0.938,0 -1.575,0.18 -1.77,0.22 v 8.639 c 0.211,0.055 0.865,0.226 1.77,0.226 C -1.738,4.549 0,2.959 0,0 m 3.936,-0.103 c 0,5.196 -3.418,7.643 -7.36,7.643 -1.285,0 -2.394,-0.305 -2.496,-0.33 v 3.972 c 0,2.237 -1.406,3.363 -3.088,3.363 H -9.584 V -6.602 c 0.412,-0.131 2.766,-0.913 5.906,-0.913 4.807,0 7.614,3.048 7.614,7.412"
             style="fill:#ffffff;fill-opacity:1;fill-rule:nonzero;stroke:none"
             id="path158" /></g><g
           id="g160"
           transform="translate(591.2324,459.7881)"><path
             d="m 0,0 c -1.754,0 -3.297,-1.435 -3.928,-2.063 -0.281,0.672 -0.787,1.79 -2.644,1.79 -0.49,0 -0.961,-0.114 -0.961,-0.114 0.101,-0.499 0.406,-1.581 0.406,-3.481 v -10.867 h 3.672 v 10.252 c 0.435,0.342 1.385,1.255 2.824,1.273 0.975,0.007 1.576,-0.388 1.666,-0.44 l 1.346,3.044 C 2.23,-0.51 1.574,0 0,0"
             style="fill:#ffffff;fill-opacity:1;fill-rule:nonzero;stroke:none"
             id="path162" /></g><g
           id="g164"
           transform="translate(600.9766,447.5537)"><path
             d="M 0,0 C 2.266,0 3.551,1.936 3.551,4.698 3.551,7.437 2.291,9.411 0,9.411 -2.211,9.411 -3.543,7.493 -3.543,4.698 -3.543,2.003 -2.275,0 0,0 m 0,-2.825 c -4.488,0 -7.193,2.965 -7.193,7.523 0,4.54 2.668,7.536 7.193,7.536 4.541,0 7.203,-2.996 7.203,-7.536 C 7.203,0.409 4.738,-2.825 0,-2.825"
             style="fill:#ffffff;fill-opacity:1;fill-rule:nonzero;stroke:none"
             id="path166" /></g><g
           id="g168"
           transform="translate(619.2187,448.6797)"><path
             d="m 0,0 c -0.227,-0.134 -1.215,-1.029 -2.689,-1.029 -1.266,0 -2.231,0.77 -2.231,2.046 0,1.073 1.037,2.006 3.024,2.006 l 1.896,0 z m 0.316,-2.179 c 0.258,-0.662 0.875,-1.446 2.163,-1.446 0.679,0 1.556,0.179 1.701,0.235 -0.112,0.419 -0.448,1.544 -0.448,4.072 v 5.063 c 0,3.753 -2.416,5.363 -6.15,5.363 -3.141,0 -5.383,-1.504 -5.643,-1.68 0,0 0.151,-0.266 0.254,-0.445 0.313,-0.538 0.592,-1.325 1.512,-1.325 0.916,0 1.701,0.702 3.447,0.702 C -0.93,8.36 0,7.432 0,6.01 V 5.502 h -1.203 c -4.922,0 -7.514,-1.905 -7.514,-4.959 0,-2.696 2.059,-4.494 4.903,-4.494 2.703,0 3.892,1.576 4.13,1.772"
             style="fill:#ffffff;fill-opacity:1;fill-rule:nonzero;stroke:none"
             id="path170" /></g><g
           id="g172"
           transform="translate(634.957,456.792)"><path
             d="M 0,0 C 0.904,0 1.559,-0.17 1.773,-0.226 L 1.77,-8.862 C 1.576,-8.905 0.937,-9.085 0,-9.085 c -2.213,0 -4.15,1.441 -4.15,4.538 C -4.15,-1.59 -2.412,0 0,0 m -0.475,-12.063 c 3.145,0 5.498,0.781 5.911,0.913 V 9.996 H 4.857 C 3.178,9.996 1.77,8.87 1.77,6.634 V 2.663 c -0.104,0.024 -1.209,0.328 -2.497,0.328 -3.941,0 -7.361,-2.447 -7.361,-7.642 0,-4.365 2.809,-7.412 7.613,-7.412"
             style="fill:#ffffff;fill-opacity:1;fill-rule:nonzero;stroke:none"
             id="path174" /></g><g
           id="g176"
           transform="translate(702.3359,456.792)"><path
             d="M 0,0 C 0.904,0 1.559,-0.17 1.771,-0.226 V -8.862 C 1.574,-8.905 0.939,-9.085 0,-9.085 c -2.213,0 -4.15,1.441 -4.15,4.538 C -4.15,-1.59 -2.412,0 0,0 m -0.477,-12.063 c 3.147,0 5.5,0.781 5.911,0.913 V 9.996 H 4.854 C 3.178,9.996 1.771,8.87 1.771,6.634 V 2.663 c -0.103,0.024 -1.212,0.328 -2.498,0.328 -3.939,0 -7.361,-2.447 -7.361,-7.642 0,-4.365 2.811,-7.412 7.611,-7.412"
             style="fill:#ffffff;fill-opacity:1;fill-rule:nonzero;stroke:none"
             id="path178" /></g><g
           id="g180"
           transform="translate(653.9883,452.2432)"><path
             d="m 0,0 c 0,-3.095 -1.937,-4.536 -4.15,-4.536 -0.94,0 -1.575,0.18 -1.77,0.22 L -5.922,4.323 C -5.707,4.378 -5.055,4.549 -4.15,4.549 -1.738,4.549 0,2.959 0,0 m 3.938,-0.103 c 0,5.196 -3.422,7.643 -7.362,7.643 -1.287,0 -2.394,-0.305 -2.496,-0.33 v 3.972 c 0,2.237 -1.406,3.363 -3.086,3.363 H -9.584 V -6.602 c 0.41,-0.131 2.762,-0.913 5.908,-0.913 4.807,0 7.614,3.048 7.614,7.412"
             style="fill:#ffffff;fill-opacity:1;fill-rule:nonzero;stroke:none"
             id="path182" /></g><g
           id="g184"
           transform="translate(669.9863,448.6797)"><path
             d="m 0,0 c -0.227,-0.134 -1.215,-1.029 -2.688,-1.029 -1.269,0 -2.234,0.77 -2.234,2.046 0,1.073 1.037,2.006 3.026,2.006 l 1.896,0 z m 0.314,-2.179 c 0.262,-0.662 0.879,-1.446 2.163,-1.446 0.679,0 1.556,0.179 1.701,0.235 -0.11,0.419 -0.446,1.544 -0.446,4.072 v 5.063 c 0,3.753 -2.418,5.363 -6.152,5.363 -3.141,0 -5.381,-1.504 -5.641,-1.68 0,0 0.149,-0.266 0.254,-0.445 0.311,-0.538 0.592,-1.325 1.512,-1.325 0.916,0 1.701,0.702 3.445,0.702 C -0.932,8.36 0,7.432 0,6.01 V 5.502 h -1.205 c -4.918,0 -7.508,-1.905 -7.508,-4.959 0,-2.696 2.053,-4.494 4.897,-4.494 2.705,0 3.898,1.576 4.13,1.772"
             style="fill:#ffffff;fill-opacity:1;fill-rule:nonzero;stroke:none"
             id="path186" /></g><g
           id="g188"
           transform="translate(677.4102,454.8291)"><path
             d="M 0,0 V -9.776 H 3.67 V 0.383 C 3.867,0.57 5.172,1.812 6.619,1.812 8.51,1.812 9.49,0.444 9.49,-1.336 v -8.44 h 3.66 v 9.357 C 13.15,4.026 9.734,5.009 7.822,5.009 5.533,5.009 3.896,3.572 3.412,3.081 3.258,3.678 2.555,4.687 0.955,4.687 0.389,4.687 -0.35,4.521 -0.42,4.506 -0.305,3.948 0,2.64 0,0"
             style="fill:#ffffff;fill-opacity:1;fill-rule:nonzero;stroke:none"
             id="path190" /></g><g
           id="g192"
           transform="translate(567.9902,478.6211)"><path
             d="M 0,0 0.822,-0.031 C 1.207,-0.055 1.639,-0.08 2.229,-0.078 6.271,-0.061 8.902,1.367 10.34,2.167 7.018,4.26 2.213,6.369 -3.725,6.607 -4.117,5.5 -7.172,-2.993 -7.404,-3.676 c 0.037,-0.041 0.572,-0.642 1.24,-1.808 0.926,-1.507 1.447,-2.803 1.801,-3.777 0.759,1.28 0.89,3.257 0.965,5.521 0.076,1.886 0.4,3.73 3.398,3.74"
             style="fill:#ffffff;fill-opacity:1;fill-rule:nonzero;stroke:none"
             id="path194" /></g><g
           id="g196"
           transform="translate(583.377,476.5576)"><path
             d="M 0,0 C -0.262,0.431 -1.611,1.861 -3.859,3.438 L -3.922,3.403 c -1.769,-0.976 -4.728,-2.611 -9.107,-2.63 -0.575,0 -0.912,0.021 -1.209,0.04 l -0.797,0.028 c -2.063,-0.011 -2.479,-0.885 -2.549,-2.6 l -0.016,-0.465 -0.023,-0.861 c -0.078,-1.896 -0.324,-4.033 -1.549,-5.519 l -0.055,-0.065 c 0.053,-0.125 0.1,-0.232 0.149,-0.316 0.109,-0.185 0.254,-0.267 0.428,-0.267 0.109,0 0.244,0.038 0.392,0.106 0.363,0.166 14.766,6.87 16.934,7.872 0.318,0.153 0.914,0.418 1.111,0.531 0.207,0.117 0.299,0.289 0.299,0.46 C 0.084,-0.187 0.055,-0.089 0,0"
             style="fill:#ffffff;fill-opacity:1;fill-rule:nonzero;stroke:none"
             id="path198" /></g><g
           id="g200"
           transform="translate(558.0566,491.9053)"><path
             d="m 0,0 -0.129,-0.024 c -1.43,-0.271 -3.697,-1.594 -3.687,-4.006 0.002,-1.011 0.394,-1.852 0.814,-2.742 0.481,-1.028 1.023,-2.192 1.025,-3.792 0.012,-2.425 -1.382,-3.818 -2.363,-4.496 0.447,0.031 0.928,0.052 1.447,0.052 1.342,0.005 2.157,-0.124 2.206,-0.133 l 6.896,8.464 C 4.338,-3.876 2.162,-1.691 0,0"
             style="fill:#ffffff;fill-opacity:1;fill-rule:nonzero;stroke:none"
             id="path202" /></g><g
           id="g204"
           transform="translate(552.3398,477.2656)"><path
             d="M 0,0 C 1.266,0.732 2.502,1.988 2.496,4.106 2.49,5.375 2.043,6.338 1.568,7.361 1.104,8.365 0.623,9.403 0.619,10.734 c -0.01,2.895 2.332,4.385 3.801,4.842 -4.664,3.226 -9.027,4.245 -9.834,4.242 -0.279,0 -0.52,-0.191 -0.52,-0.56 0,-0.228 0.088,-0.867 0.125,-1.215 0.254,-2.39 1.981,-18.168 2.026,-18.566 0.047,-0.4 0.219,-0.634 0.57,-0.631 0.051,0 0.115,0.003 0.186,0.01 0.248,0.023 0.75,0.096 1.332,0.319 C -1.01,-0.561 -0.562,-0.32 0,0"
             style="fill:#ffffff;fill-opacity:1;fill-rule:nonzero;stroke:none"
             id="path206" /></g><g
           id="g208"
           transform="translate(553,420.125)"><path
             d="m 0,0 c -0.109,-0.334 -0.187,-0.366 -0.242,-0.479 -0.051,0.108 -0.127,0.05 -0.227,0.361 l -5.65,17.993 H -8.33 l 5.998,-19.031 c 0.439,-1.387 1.156,-1.511 2.096,-1.511 0.929,0 1.636,0.037 2.066,1.389 L 8.271,17.875 H 6.053 Z"
             style="fill:#ffffff;fill-opacity:1;fill-rule:nonzero;stroke:none"
             id="path210" /></g><g
           id="g212"
           transform="translate(563.2207,437.1543)"><path
             d="m 0,0 c -0.758,0 -1.352,-0.594 -1.352,-1.352 0,-0.758 0.594,-1.353 1.352,-1.353 0.758,0 1.352,0.595 1.352,1.353 C 1.352,-0.594 0.758,0 0,0"
             style="fill:#ffffff;fill-opacity:1;fill-rule:nonzero;stroke:none"
             id="path214" /></g><g
           id="g216"
           transform="translate(563,431.6387)"><path
             d="M 0,0 V -14.639 H 0.354 2 v 15 H 0 Z"
             style="fill:#ffffff;fill-opacity:1;fill-rule:nonzero;stroke:none"
             id="path218" /></g><g
           id="g220"
           transform="translate(580,437.6387)"><path
             d="m 0,0 v -12.378 c 0,-2.978 -2.712,-5.495 -5.54,-5.495 -2.385,0 -5.206,2.257 -5.206,5.495 0,3.03 2.046,5.496 4.661,5.496 1.506,0 2.909,-0.549 3.915,-1.778 L -1,-9.745 v 2.946 l -0.542,0.149 c -0.152,0.104 -0.466,0.216 -0.622,0.332 -0.885,0.649 -2.067,1.459 -3.98,1.459 -3.99,0 -7.041,-3.233 -7.041,-7.519 0,-4.216 3.507,-7.518 7.593,-7.518 4.088,0 7.592,3.302 7.592,7.518 L 2,0.361 H 0 Z"
             style="fill:#ffffff;fill-opacity:1;fill-rule:nonzero;stroke:none"
             id="path222" /></g><g
           id="g224"
           transform="translate(595.6523,424.8281)"><path
             d="m 0,0 c -0.057,-2.873 -2.533,-5.141 -5.41,-5.141 -3.002,0 -5.354,2.439 -5.354,5.451 0,3.117 2.352,5.599 5.354,5.599 1.379,0 2.66,-0.508 3.594,-1.443 L -10.445,-1.356 -9.162,-3.063 1.264,4.01 1.008,4.42 c -1.377,2.211 -3.778,3.531 -6.418,3.531 -4.272,0 -7.492,-3.244 -7.492,-7.547 0,-4.293 3.246,-7.408 7.718,-7.408 4.151,0 7.229,2.751 7.319,6.983 L 2.146,0.172 H 0.01 Z"
             style="fill:#ffffff;fill-opacity:1;fill-rule:nonzero;stroke:none"
             id="path226" /></g><g
           id="g228"
           transform="translate(605.8691,419.7656)"><path
             d="m 0,0 c -2.857,0 -5.184,2.465 -5.184,5.495 0,3.03 2.327,5.496 5.184,5.496 2.857,0 5.182,-2.466 5.182,-5.496 C 5.182,2.465 2.857,0 0,0 m 0,13.014 c -4.035,0 -7.32,-3.373 -7.32,-7.519 0,-4.145 3.285,-7.517 7.32,-7.517 4.035,0 7.318,3.372 7.318,7.517 0,4.146 -3.283,7.519 -7.318,7.519"
             style="fill:#ffffff;fill-opacity:1;fill-rule:nonzero;stroke:none"
             id="path230" /></g><g
           id="g232"
           transform="translate(624.1699,418.6738)"><path
             d="M 0,0 C 0.264,-0.021 0.527,-0.035 0.791,-0.035 0.529,-0.035 0.266,-0.023 0,0 m -0.316,18.925 c 0.293,0.026 0.587,0.04 0.88,0.04 -0.293,0 -0.587,-0.015 -0.88,-0.04 m -9.45,-9.779 c 0,-6.398 4.686,-10.193 9.399,-10.618 0.31,-0.028 0.621,-0.202 0.931,-0.202 h 1.62 1.646 v 2 H 0.791 c -4.129,0 -8.309,2.92 -8.309,8.501 0,5.58 4.18,8.499 8.309,8.499 H 2.184 3.83 v 2 H 0.564 c -5.007,0 -10.33,-3.361 -10.33,-10.18"
             style="fill:#ffffff;fill-opacity:1;fill-rule:nonzero;stroke:none"
             id="path234" /></g><g
           id="g236"
           transform="translate(630,437.6387)"><path
             d="M 0,0 V -20.639 H 0.354 2 v 21 H 0 Z"
             style="fill:#ffffff;fill-opacity:1;fill-rule:nonzero;stroke:none"
             id="path238" /></g><g
           id="g240"
           transform="translate(641.1816,419.7656)"><path
             d="m 0,0 c -2.859,0 -5.184,2.465 -5.184,5.495 0,3.03 2.325,5.496 5.184,5.496 2.857,0 5.182,-2.466 5.182,-5.496 C 5.182,2.465 2.857,0 0,0 m 0,13.014 c -4.037,0 -7.32,-3.373 -7.32,-7.519 0,-4.145 3.283,-7.517 7.32,-7.517 4.035,0 7.318,3.372 7.318,7.517 0,4.146 -3.283,7.519 -7.318,7.519"
             style="fill:#ffffff;fill-opacity:1;fill-rule:nonzero;stroke:none"
             id="path242" /></g><g
           id="g244"
           transform="translate(661,431.6387)"><path
             d="m 0,0 v -7.713 c 0,-2.702 -2.061,-4.16 -4,-4.16 -1.939,0 -4,1.458 -4,4.16 v 8.074 h -2 V 0 -7.855 c 0,-3.444 2.58,-6.041 6,-6.041 3.42,0 6,2.597 6,6.041 V 0.361 H 0 Z"
             style="fill:#ffffff;fill-opacity:1;fill-rule:nonzero;stroke:none"
             id="path246" /></g><g
           id="g248"
           transform="translate(676,427.8936)"><path
             d="m 0,0 v -2.633 c 0,-2.664 -1.991,-5.495 -5.085,-5.495 -2.324,0 -4.976,2.208 -4.976,5.495 0,3.288 2.453,5.496 4.818,5.496 1.551,0 3.108,-0.598 4.073,-1.778 z M 0,10.106 V 9.745 2.946 l -0.542,0.149 c -0.143,0.097 -0.448,0.203 -0.597,0.31 -0.908,0.66 -2.118,1.481 -4.048,1.481 -4.001,0 -7.062,-3.233 -7.062,-7.519 0,-4.216 3.52,-7.517 7.624,-7.517 4.105,0 7.625,3.301 7.625,7.517 v 12.739 z"
             style="fill:#ffffff;fill-opacity:1;fill-rule:nonzero;stroke:none"
             id="path250" /></g><g
           id="g252"
           transform="translate(705.8164,589.3501)"><path
             d="m 0,0 c 0.017,0.618 0.047,1.231 0.047,1.853 0,37.941 -30.742,68.697 -68.664,68.697 -30.444,0 -56.241,-19.828 -65.239,-47.275 -5.248,3.725 -11.656,5.923 -18.58,5.923 -16.143,0 -29.502,-11.905 -31.798,-27.416 -20.208,-4.746 -35.258,-22.861 -35.258,-44.497 0,-25.252 20.492,-45.722 45.767,-45.722 h 157.397 c 25.277,0 45.767,20.47 45.767,45.722 C 29.439,-23.211 17.211,-6.57 0,0"
             style="fill:#f47725;fill-opacity:1;fill-rule:evenodd;stroke:none"
             id="path254" /></g><g
           id="g256"
           transform="translate(636.7383,650.626)"><path
             d="m 0,0 c -32.129,0 -58.174,-26.042 -58.174,-58.167 0,-32.126 26.045,-58.168 58.174,-58.168 32.131,0 58.176,26.042 58.176,58.168 C 58.176,-26.042 32.131,0 0,0 m 0,-1 c 31.527,0 57.176,-25.645 57.176,-57.167 0,-31.522 -25.649,-57.168 -57.176,-57.168 -31.525,0 -57.174,25.646 -57.174,57.168 C -57.174,-26.645 -31.525,-1 0,-1"
             style="fill:#ffffff;fill-opacity:1;fill-rule:nonzero;stroke:none"
             id="path258" /></g><g
           id="g260"
           transform="translate(636.7383,641.751)"><path
             d="m 0,0 c 27.225,0 49.293,-22.069 49.293,-49.293 0,-27.223 -22.068,-49.292 -49.293,-49.292 -27.223,0 -49.293,22.069 -49.293,49.292 C -49.293,-22.069 -27.223,0 0,0"
             style="fill:#ffffff;fill-opacity:1;fill-rule:evenodd;stroke:none"
             id="path262" /></g><g
           id="g264"
           transform="translate(635.5527,624.0869)"><path
             d="m 0,0 c -17.578,0 -31.828,-14.254 -31.828,-31.836 0,-17.582 14.25,-31.834 31.828,-31.834 17.578,0 31.828,14.252 31.828,31.834 C 31.828,-14.254 17.578,0 0,0 M 0,-6 C 14.242,-6 25.828,-17.59 25.828,-31.836 25.828,-46.081 14.242,-57.67 0,-57.67 c -14.241,0 -25.828,11.589 -25.828,25.834 C -25.828,-17.59 -14.241,-6 0,-6"
             style="fill:#f47725;fill-opacity:1;fill-rule:nonzero;stroke:none"
             id="path266" /></g><g
           id="g268"
           transform="translate(619.9141,595.4248)"><path
             d="M 0,0 C 1.48,5.532 5.824,9.879 11.328,11.327"
             style="fill:none;stroke:#f47725;stroke-width:3;stroke-linecap:round;stroke-linejoin:miter;stroke-miterlimit:10;stroke-dasharray:none;stroke-opacity:1"
             id="path270" /></g><g
           id="g272"
           transform="translate(688.3594,556.2783)"><path
             d="m 0,0 c 0,-3.257 -2.639,-5.896 -5.895,-5.896 -3.257,0 -5.896,2.639 -5.896,5.896 0,3.256 2.639,5.895 5.896,5.895 C -2.639,5.895 0,3.256 0,0"
             style="fill:#ffffff;fill-opacity:1;fill-rule:evenodd;stroke:none"
             id="path274" /></g><g
           id="g276"
           transform="translate(149.6318,147.1357)"><path
             d="m 0,0 c -1.911,0.895 -3.48,1.617 -3.48,3.076 0,1.115 0.894,1.928 2.659,1.928 0.648,0 1.178,-0.078 1.726,-0.177 0.288,-0.05 0.593,-0.091 0.847,-0.091 1.541,0 2.412,0.918 2.988,2.662 L 4.979,8.11 c -0.247,0.101 -2.764,1.204 -6.047,1.204 -5.22,0 -7.978,-3.347 -7.976,-6.822 0,-1.754 0.549,-3.023 1.408,-4.024 1.107,-1.286 2.683,-2.128 4.16,-2.848 2.153,-1.056 4.094,-1.837 4.094,-3.401 0.003,-1.389 -1.433,-2.178 -3.351,-2.178 -2.628,0 -4.924,1.502 -5.218,1.682 l -2.157,-4.043 c 0.382,-0.216 3.162,-1.982 7.735,-1.982 4.873,0.005 8.564,2.796 8.564,7.099 C 6.191,-2.928 2.771,-1.341 0,0"
             style="fill:#f47725;fill-opacity:1;fill-rule:nonzero;stroke:none"
             id="path278" /></g><g
           id="g280"
           transform="translate(168.6948,145.1377)"><path
             d="M 0,0 8.839,10.84 H 2.542 L -4.511,1.488 h -0.103 v 9.352 h -5.194 l 0.002,-22.96 h 0.309 c 2.245,0 4.916,1.038 4.916,4.788 v 5.271 h 0.105 l 7.187,-9.773 h 6.607 z"
             style="fill:#f47725;fill-opacity:1;fill-rule:nonzero;stroke:none"
             id="path282" /></g><g
           id="g284"
           transform="translate(193.2695,139.5039)"><path
             d="m 0,0 c 0,-2.669 -1.671,-3.911 -3.578,-3.911 -0.809,0 -1.358,0.154 -1.526,0.189 v 7.45 c 0.182,0.046 0.746,0.194 1.526,0.194 C -1.498,3.922 0,2.551 0,0 m 3.394,-0.089 c 0,4.48 -2.948,6.59 -6.346,6.59 -1.108,0 -2.064,-0.263 -2.152,-0.285 v 3.425 c 0,1.928 -1.212,2.899 -2.662,2.899 H -8.263 V -5.692 c 0.354,-0.114 2.384,-0.787 5.093,-0.787 4.145,0 6.564,2.627 6.564,6.39"
             style="fill:#ee7624;fill-opacity:1;fill-rule:nonzero;stroke:none"
             id="path286" /></g><g
           id="g288"
           transform="translate(205.9766,146.0088)"><path
             d="m 0,0 c -1.514,0 -2.845,-1.237 -3.387,-1.779 -0.242,0.58 -0.68,1.544 -2.281,1.544 -0.423,0 -0.829,-0.098 -0.829,-0.098 0.088,-0.431 0.351,-1.363 0.351,-3.002 v -9.37 h 3.166 v 8.84 c 0.376,0.295 1.195,1.082 2.435,1.097 0.839,0.006 1.358,-0.334 1.438,-0.379 l 1.158,2.625 C 1.921,-0.439 1.357,0 0,0"
             style="fill:#ee7624;fill-opacity:1;fill-rule:nonzero;stroke:none"
             id="path290" /></g><g
           id="g292"
           transform="translate(215.2397,135.46)"><path
             d="M 0,0 C 1.954,0 3.061,1.669 3.061,4.051 3.061,6.412 1.975,8.114 0,8.114 -1.907,8.114 -3.054,6.461 -3.054,4.051 -3.054,1.728 -1.962,0 0,0 m 0,-2.436 c -3.872,0 -6.203,2.557 -6.203,6.487 0,3.915 2.301,6.498 6.203,6.498 3.915,0 6.21,-2.583 6.21,-6.498 C 6.21,0.354 4.085,-2.436 0,-2.436"
             style="fill:#ee7624;fill-opacity:1;fill-rule:nonzero;stroke:none"
             id="path294" /></g><g
           id="g296"
           transform="translate(231.8296,136.4307)"><path
             d="m 0,0 c -0.195,-0.115 -1.048,-0.887 -2.318,-0.887 -1.093,0 -1.924,0.664 -1.924,1.764 0,0.926 0.894,1.73 2.608,1.73 H 0 Z m 0.273,-1.878 c 0.222,-0.571 0.755,-1.247 1.864,-1.247 0.585,0 1.342,0.154 1.467,0.203 -0.096,0.361 -0.386,1.331 -0.386,3.51 v 4.366 c 0,3.235 -2.083,4.624 -5.302,4.624 -2.708,0 -4.642,-1.298 -4.866,-1.449 0,0 0.13,-0.229 0.22,-0.383 0.269,-0.464 0.509,-1.142 1.303,-1.142 0.789,0 1.467,0.605 2.971,0.605 C -0.802,7.209 0,6.408 0,5.182 V 4.744 h -1.038 c -4.242,0 -6.477,-1.642 -6.477,-4.275 0,-2.325 1.774,-3.875 4.225,-3.875 2.332,0 3.359,1.359 3.563,1.528"
             style="fill:#ee7624;fill-opacity:1;fill-rule:nonzero;stroke:none"
             id="path298" /></g><g
           id="g300"
           transform="translate(245.3999,143.4258)"><path
             d="M 0,0 C 0.78,0 1.343,-0.146 1.529,-0.194 L 1.526,-7.642 C 1.359,-7.679 0.809,-7.833 0,-7.833 c -1.909,0 -3.579,1.242 -3.579,3.912 C -3.579,-1.371 -2.081,0 0,0 m -0.409,-10.401 c 2.71,0 4.739,0.673 5.094,0.787 V 8.618 H 4.188 C 2.739,8.618 1.526,7.647 1.526,5.72 V 2.296 c -0.089,0.02 -1.044,0.283 -2.153,0.283 -3.398,0 -6.347,-2.11 -6.347,-6.59 0,-3.762 2.421,-6.39 6.565,-6.39"
             style="fill:#ee7624;fill-opacity:1;fill-rule:nonzero;stroke:none"
             id="path302" /></g><g
           id="g304"
           transform="translate(305.2192,143.4258)"><path
             d="M 0,0 C 0.778,0 1.342,-0.146 1.526,-0.194 V -7.642 C 1.356,-7.679 0.81,-7.833 0,-7.833 c -1.909,0 -3.58,1.242 -3.58,3.912 C -3.58,-1.371 -2.08,0 0,0 m -0.411,-10.401 c 2.712,0 4.742,0.673 5.095,0.787 V 8.618 H 4.185 C 2.738,8.618 1.526,7.647 1.526,5.72 V 2.296 c -0.089,0.02 -1.044,0.283 -2.153,0.283 -3.397,0 -6.347,-2.11 -6.347,-6.59 0,-3.762 2.422,-6.39 6.563,-6.39"
             style="fill:#ee7624;fill-opacity:1;fill-rule:nonzero;stroke:none"
             id="path306" /></g><g
           id="g308"
           transform="translate(262.6704,139.5039)"><path
             d="m 0,0 c 0,-2.669 -1.671,-3.911 -3.579,-3.911 -0.808,0 -1.357,0.154 -1.525,0.189 l -0.002,7.45 C -4.92,3.774 -4.358,3.922 -3.579,3.922 -1.5,3.922 0,2.551 0,0 m 3.395,-0.089 c 0,4.48 -2.95,6.59 -6.348,6.59 -1.109,0 -2.063,-0.263 -2.151,-0.285 v 3.425 c 0,1.928 -1.212,2.899 -2.661,2.899 H -8.264 V -5.692 c 0.355,-0.114 2.383,-0.787 5.095,-0.787 4.145,0 6.564,2.627 6.564,6.39"
             style="fill:#ee7624;fill-opacity:1;fill-rule:nonzero;stroke:none"
             id="path310" /></g><g
           id="g312"
           transform="translate(276.4644,136.4307)"><path
             d="m 0,0 c -0.196,-0.115 -1.048,-0.887 -2.317,-0.887 -1.094,0 -1.927,0.664 -1.927,1.764 0,0.926 0.895,1.73 2.609,1.73 H 0 Z m 0.272,-1.878 c 0.224,-0.571 0.757,-1.247 1.864,-1.247 0.585,0 1.342,0.154 1.467,0.203 -0.096,0.361 -0.385,1.331 -0.385,3.51 v 4.366 c 0,3.235 -2.084,4.624 -5.304,4.624 -2.708,0 -4.641,-1.298 -4.864,-1.449 0,0 0.129,-0.229 0.219,-0.383 0.268,-0.464 0.51,-1.142 1.303,-1.142 0.789,0 1.467,0.605 2.971,0.605 C -0.803,7.209 0,6.408 0,5.182 V 4.744 h -1.039 c -4.24,0 -6.474,-1.642 -6.474,-4.275 0,-2.325 1.77,-3.875 4.222,-3.875 2.332,0 3.361,1.359 3.563,1.528"
             style="fill:#ee7624;fill-opacity:1;fill-rule:nonzero;stroke:none"
             id="path314" /></g><g
           id="g316"
           transform="translate(283.7271,141.7334)"><path
             d="m 0,0 v -8.43 h 3.166 v 8.76 c 0.169,0.161 1.294,1.232 2.541,1.232 1.629,0 2.476,-1.179 2.476,-2.714 V -8.43 h 3.155 v 8.069 c 0,3.833 -2.945,4.679 -4.593,4.679 C 4.771,4.318 3.36,3.08 2.941,2.656 2.809,3.171 2.203,4.041 0.824,4.041 0.336,4.041 -0.301,3.898 -0.361,3.885 -0.263,3.404 0,2.275 0,0"
             style="fill:#ee7624;fill-opacity:1;fill-rule:nonzero;stroke:none"
             id="path318" /></g><g
           id="g320"
           transform="translate(185.9351,163.1094)"><path
             d="m 0,0 0.709,-0.027 c 0.332,-0.021 0.706,-0.042 1.214,-0.04 3.485,0.015 5.753,1.246 6.993,1.935 -2.865,1.804 -7.007,3.623 -12.127,3.829 -0.338,-0.956 -2.972,-8.278 -3.172,-8.866 0.032,-0.036 0.493,-0.555 1.068,-1.56 0.799,-1.299 1.249,-2.417 1.553,-3.256 0.656,1.103 0.768,2.808 0.833,4.76 C -2.864,-1.599 -2.584,-0.009 0,0"
             style="fill:#cf102d;fill-opacity:1;fill-rule:nonzero;stroke:none"
             id="path322" /></g><g
           id="g324"
           transform="translate(199.2026,161.3301)"><path
             d="M 0,0 C -0.226,0.371 -1.39,1.604 -3.328,2.965 L -3.382,2.934 c -1.526,-0.841 -4.076,-2.251 -7.852,-2.267 -0.495,0 -0.787,0.018 -1.042,0.034 l -0.688,0.025 c -1.778,-0.01 -2.137,-0.764 -2.199,-2.243 l -0.012,-0.4 -0.019,-0.743 c -0.067,-1.635 -0.28,-3.478 -1.336,-4.759 l -0.047,-0.056 c 0.045,-0.107 0.085,-0.2 0.128,-0.272 0.094,-0.159 0.218,-0.231 0.368,-0.231 0.095,0 0.211,0.034 0.338,0.092 0.313,0.143 12.731,5.923 14.601,6.787 0.274,0.132 0.788,0.361 0.959,0.458 0.177,0.102 0.257,0.249 0.257,0.397 C 0.072,-0.161 0.047,-0.076 0,0"
             style="fill:#ee7624;fill-opacity:1;fill-rule:nonzero;stroke:none"
             id="path326" /></g><g
           id="g328"
           transform="translate(177.3711,174.5625)"><path
             d="m 0,0 -0.112,-0.021 c -1.232,-0.233 -3.186,-1.374 -3.18,-3.453 0.003,-0.872 0.343,-1.597 0.704,-2.365 0.413,-0.886 0.882,-1.889 0.885,-3.269 0.009,-2.091 -1.193,-3.291 -2.039,-3.876 0.386,0.026 0.8,0.045 1.247,0.045 1.159,0.003 1.86,-0.107 1.902,-0.115 l 5.946,7.298 C 3.739,-3.342 1.864,-1.458 0,0"
             style="fill:#cf102d;fill-opacity:1;fill-rule:nonzero;stroke:none"
             id="path330" /></g><g
           id="g332"
           transform="translate(172.4414,161.9404)"><path
             d="M 0,0 C 1.091,0.632 2.157,1.714 2.152,3.541 2.148,4.635 1.762,5.465 1.354,6.347 0.953,7.213 0.538,8.107 0.535,9.256 c -0.009,2.495 2.009,3.779 3.278,4.174 -4.023,2.781 -7.786,3.66 -8.48,3.658 -0.242,0 -0.448,-0.166 -0.448,-0.484 0,-0.196 0.075,-0.747 0.107,-1.046 0.218,-2.062 1.708,-15.665 1.746,-16.009 0.04,-0.345 0.189,-0.546 0.491,-0.544 0.046,0 0.101,0.002 0.162,0.009 0.213,0.019 0.647,0.083 1.147,0.275 C -0.871,-0.483 -0.484,-0.276 0,0"
             style="fill:#ee7624;fill-opacity:1;fill-rule:nonzero;stroke:none"
             id="path334" /></g><g
           id="g336"
           transform="translate(169.2817,105.0039)"><path
             d="m 0,0 c -0.102,-0.316 -0.177,-0.535 -0.23,-0.646 -0.051,0.106 -0.122,0.33 -0.216,0.624 L -6.015,17.996 H -8.21 l 5.914,-19.141 c 0.434,-1.369 1.142,-1.682 2.072,-1.682 0.92,0 1.619,0.323 2.043,1.659 l 6.35,19.164 H 5.968 Z"
             style="fill:#f47725;fill-opacity:1;fill-rule:nonzero;stroke:none"
             id="path338" /></g><g
           id="g340"
           transform="translate(178,115.8721)"><path
             d="M 0,0 V -12.872 H 1.277 2 v 14 H 0 Z"
             style="fill:#f47725;fill-opacity:1;fill-rule:nonzero;stroke:none"
             id="path342" /></g><g
           id="g344"
           transform="translate(179.3618,121.4131)"><path
             d="m 0,0 c -0.751,0 -1.34,-0.589 -1.34,-1.34 0,-0.751 0.589,-1.34 1.34,-1.34 0.751,0 1.34,0.589 1.34,1.34 C 1.34,-0.589 0.751,0 0,0"
             style="fill:#f47725;fill-opacity:1;fill-rule:nonzero;stroke:none"
             id="path346" /></g><g
           id="g348"
           transform="translate(195,121.8721)"><path
             d="m 0,0 v -12.187 c 0,-2.931 -2.218,-5.408 -5.007,-5.408 -2.35,0 -4.9,2.221 -4.9,5.408 0,2.983 2.125,5.409 4.694,5.409 1.463,0 2.444,-0.54 3.449,-1.752 L -1,-9.597 v 2.913 l -0.083,0.149 c -0.16,0.108 -0.251,0.224 -0.415,0.345 -0.865,0.632 -1.908,1.419 -3.775,1.419 -3.936,0 -6.887,-3.188 -6.887,-7.416 0,-4.158 3.037,-7.416 7.08,-7.416 4.043,0 7.08,3.258 7.08,7.416 V 1.128 H 0 Z"
             style="fill:#f47725;fill-opacity:1;fill-rule:nonzero;stroke:none"
             id="path350" /></g><g
           id="g352"
           transform="translate(211.3135,109.4453)"><path
             d="m 0,0 c -0.053,-2.824 -2.441,-5.152 -5.324,-5.152 -2.905,0 -5.268,2.375 -5.268,5.315 0,2.702 1.971,5.489 5.268,5.489 1.361,0 2.619,-0.515 3.53,-1.423 l -8.501,-5.743 1.274,-1.699 10.284,6.979 -0.255,0.407 c -1.359,2.181 -3.726,3.483 -6.332,3.483 -4.212,0 -7.388,-3.2 -7.388,-7.444 0,-4.221 3.273,-7.404 7.612,-7.404 3.954,0 7.128,3.883 7.22,7.169 L 2.134,0.555 H 0.009 Z"
             style="fill:#f47725;fill-opacity:1;fill-rule:nonzero;stroke:none"
             id="path354" /></g><g
           id="g356"
           transform="translate(221.3896,104.2773)"><path
             d="m 0,0 c -2.812,0 -5.1,2.426 -5.1,5.408 0,2.983 2.288,5.408 5.1,5.408 2.812,0 5.1,-2.425 5.1,-5.408 C 5.1,2.426 2.812,0 0,0 m 0,12.824 c -3.981,0 -7.22,-3.327 -7.22,-7.416 0,-4.089 3.239,-7.416 7.22,-7.416 3.981,0 7.22,3.327 7.22,7.416 0,4.089 -3.239,7.416 -7.22,7.416"
             style="fill:#f47725;fill-opacity:1;fill-rule:nonzero;stroke:none"
             id="path358" /></g><g
           id="g360"
           transform="translate(238.6431,103.9932)"><path
             d="M 0,0 C 0.041,-0.006 0.081,-0.009 0.122,-0.015 0.081,-0.009 0.041,-0.007 0,0 m 0.769,-0.09 c 0.265,-0.019 0.529,-0.031 0.793,-0.031 -0.263,0 -0.528,0.011 -0.793,0.031 M 0.496,17.845 c 0.281,0.022 0.563,0.034 0.842,0.034 -0.281,0 -0.562,-0.014 -0.842,-0.034 M -8.85,9.007 c 0,-6.871 5.282,-10 10.188,-10 h 2.296 0.723 v 2 H 1.562 c -4.071,0 -8.18,2.473 -8.18,8 0,5.526 4.109,8 8.18,8 h 2.072 0.723 v 2 H 1.338 c -4.906,0 -10.188,-3.129 -10.188,-10"
             style="fill:#f47725;fill-opacity:1;fill-rule:nonzero;stroke:none"
             id="path362" /></g><g
           id="g364"
           transform="translate(245,121.8721)"><path
             d="M 0,0 V -18.872 H 1.277 2 v 20 H 0 Z"
             style="fill:#f47725;fill-opacity:1;fill-rule:nonzero;stroke:none"
             id="path366" /></g><g
           id="g368"
           transform="translate(257.1733,104.2773)"><path
             d="m 0,0 c -2.812,0 -5.1,2.426 -5.1,5.408 0,2.983 2.288,5.408 5.1,5.408 2.812,0 5.1,-2.425 5.1,-5.408 C 5.1,2.426 2.812,0 0,0 m 0,12.824 c -3.981,0 -7.22,-3.327 -7.22,-7.416 0,-4.089 3.239,-7.416 7.22,-7.416 3.981,0 7.22,3.327 7.22,7.416 0,4.089 -3.239,7.416 -7.22,7.416"
             style="fill:#f47725;fill-opacity:1;fill-rule:nonzero;stroke:none"
             id="path370" /></g><g
           id="g372"
           transform="translate(276.1919,107.1563)"><path
             d="M 0,0 C 0.051,0.344 0.085,0.699 0.085,1.073 0.085,0.699 0.056,0.341 0,0 m -8.915,1.214 c 0,-0.348 0.03,-0.68 0.079,-1.002 -0.052,0.318 -0.079,0.652 -0.079,1.002 m 7.723,7.502 V 1.214 c 0,-0.314 0.11,-0.611 0.069,-0.899 -0.303,-1.943 -1.674,-3.194 -3.5,-3.194 -2.093,0 -3.569,1.645 -3.569,4.093 v 8.63 h -2 V 8.716 1.073 c 0,-3.509 2.262,-5.96 5.5,-5.96 3.238,0 5.5,2.451 5.5,5.96 v 8.771 h -2 z"
             style="fill:#f47725;fill-opacity:1;fill-rule:nonzero;stroke:none"
             id="path374" /></g><g
           id="g376"
           transform="translate(291,112.2754)"><path
             d="m 0,0 v -2.59 c 0,-2.658 -1.695,-5.408 -4.764,-5.408 -2.34,0 -4.778,2.173 -4.778,5.408 0,3.188 2.658,5.408 5.012,5.408 1.569,0 2.829,-0.622 3.766,-1.752 z M 0,10.725 V 9.597 2.913 l -0.392,0.359 c -0.95,0.657 -2.181,1.554 -4.172,1.554 -3.943,0 -6.998,-3.258 -6.998,-7.416 0,-4.227 2.846,-7.416 6.781,-7.416 3.935,0 6.781,3.189 6.781,7.416 v 13.315 z"
             style="fill:#f47725;fill-opacity:1;fill-rule:nonzero;stroke:none"
             id="path378" /></g><g
           id="g380"
           transform="translate(306.4937,260.3047)"><path
             d="m 0,0 c 0.014,0.532 0.041,1.062 0.041,1.598 0,32.713 -26.506,59.23 -59.202,59.23 -26.248,0 -48.492,-17.096 -56.251,-40.762 -4.524,3.213 -10.048,5.108 -16.018,5.108 -13.918,0 -25.438,-10.264 -27.417,-23.638 -17.424,-4.093 -30.399,-19.711 -30.399,-38.366 0,-21.772 17.668,-39.421 39.461,-39.421 h 135.708 c 21.794,0 39.462,17.649 39.462,39.421 C 25.385,-20.014 14.84,-5.665 0,0"
             style="fill:#f47725;fill-opacity:1;fill-rule:evenodd;stroke:none"
             id="path382" /></g><g
           id="g384"
           transform="translate(246.9355,313.1367)"><path
             d="m 0,0 c -27.702,0 -50.159,-22.454 -50.159,-50.152 0,-27.7 22.457,-50.152 50.159,-50.152 27.702,0 50.16,22.452 50.16,50.152 C 50.16,-22.454 27.702,0 0,0 m 0,-1 c 27.107,0 49.16,-22.05 49.16,-49.152 0,-27.103 -22.053,-49.152 -49.16,-49.152 -27.106,0 -49.159,22.049 -49.159,49.152 C -49.159,-23.05 -27.106,-1 0,-1"
             style="fill:#ffffff;fill-opacity:1;fill-rule:nonzero;stroke:none"
             id="path386" /></g><g
           id="g388"
           transform="translate(246.936,305.4844)"><path
             d="M 0,0 C 23.472,0 42.5,-19.028 42.5,-42.5 42.5,-65.973 23.472,-85 0,-85 -23.472,-85 -42.5,-65.973 -42.5,-42.5 -42.5,-19.028 -23.472,0 0,0"
             style="fill:#ffffff;fill-opacity:1;fill-rule:evenodd;stroke:none"
             id="path390" /></g><g
           id="g392"
           transform="translate(245.9126,290.2539)"><path
             d="m 0,0 c -15.156,0 -27.443,-12.289 -27.443,-27.449 0,-15.158 12.287,-27.447 27.443,-27.447 15.156,0 27.443,12.289 27.443,27.447 C 27.443,-12.289 15.156,0 0,0 m 0,-6 c 11.824,0 21.443,-9.621 21.443,-21.449 0,-11.826 -9.619,-21.447 -21.443,-21.447 -11.824,0 -21.443,9.621 -21.443,21.447 C -21.443,-15.621 -11.824,-6 0,-6"
             style="fill:#f47725;fill-opacity:1;fill-rule:nonzero;stroke:none"
             id="path394" /></g><g
           id="g396"
           transform="translate(232.4302,264.042)"><path
             d="m 0,0 c -0.128,0 -0.259,0.017 -0.389,0.051 -0.8,0.215 -1.275,1.037 -1.061,1.837 1.418,5.294 5.569,9.443 10.835,10.829 0.802,0.212 1.622,-0.268 1.833,-1.069 0.211,-0.8 -0.268,-1.622 -1.069,-1.832 C 5.921,8.703 2.588,5.368 1.448,1.112 1.269,0.441 0.662,0 0,0"
             style="fill:#f47725;fill-opacity:1;fill-rule:nonzero;stroke:none"
             id="path398" /></g><g
           id="g400"
           transform="translate(291.4438,231.7891)"><path
             d="m 0,0 c 0,-2.809 -2.276,-5.084 -5.083,-5.084 -2.808,0 -5.084,2.275 -5.084,5.084 0,2.807 2.276,5.083 5.084,5.083 C -2.276,5.083 0,2.807 0,0"
             style="fill:#ffffff;fill-opacity:1;fill-rule:evenodd;stroke:none"
             id="path402" /></g><path
           d="M 780,37 H 441 v 349 h 339 z"
           style="fill:#969696;fill-opacity:1;fill-rule:nonzero;stroke:none"
           id="path404" /><g
           id="g406"
           transform="translate(526.8848,134.0947)"><path
             d="m 0,0 c -2.217,1.038 -4.037,1.876 -4.037,3.568 0,1.293 1.037,2.236 3.084,2.236 0.752,0 1.367,-0.09 2.002,-0.205 0.334,-0.058 0.687,-0.106 0.982,-0.106 1.787,0 2.797,1.066 3.467,3.088 l 0.277,0.826 c -0.287,0.116 -3.207,1.397 -7.015,1.397 -6.053,0 -9.252,-3.883 -9.25,-7.913 0,-2.035 0.636,-3.507 1.633,-4.667 1.285,-1.493 3.113,-2.469 4.826,-3.303 2.496,-1.225 4.748,-2.131 4.748,-3.945 0.004,-1.611 -1.662,-2.526 -3.887,-2.526 -3.049,0 -5.711,1.741 -6.053,1.95 l -2.502,-4.689 c 0.444,-0.25 3.668,-2.298 8.973,-2.298 5.652,0.006 9.932,3.242 9.932,8.233 C 7.18,-3.396 3.213,-1.555 0,0"
             style="fill:#ffffff;fill-opacity:1;fill-rule:nonzero;stroke:none"
             id="path408" /></g><g
           id="g410"
           transform="translate(548.9941,131.7773)"><path
             d="M 0,0 10.252,12.572 H 2.947 L -5.232,1.727 h -0.12 v 10.845 h -6.023 l 0.002,-26.629 h 0.357 c 2.604,0 5.704,1.204 5.704,5.553 v 6.114 h 0.121 l 8.336,-11.335 h 7.662 z"
             style="fill:#ffffff;fill-opacity:1;fill-rule:nonzero;stroke:none"
             id="path412" /></g><g
           id="g414"
           transform="translate(577.4961,125.2432)"><path
             d="m 0,0 c 0,-3.095 -1.937,-4.536 -4.15,-4.536 -0.938,0 -1.575,0.18 -1.77,0.22 v 8.639 c 0.211,0.055 0.865,0.226 1.77,0.226 C -1.738,4.549 0,2.959 0,0 m 3.936,-0.103 c 0,5.196 -3.418,7.643 -7.36,7.643 -1.285,0 -2.394,-0.305 -2.496,-0.33 v 3.972 c 0,2.237 -1.406,3.363 -3.088,3.363 H -9.584 V -6.602 c 0.412,-0.131 2.766,-0.913 5.906,-0.913 4.807,0 7.614,3.048 7.614,7.412"
             style="fill:#ffffff;fill-opacity:1;fill-rule:nonzero;stroke:none"
             id="path416" /></g><g
           id="g418"
           transform="translate(591.2324,132.7881)"><path
             d="m 0,0 c -1.754,0 -3.297,-1.435 -3.928,-2.063 -0.281,0.672 -0.787,1.79 -2.644,1.79 -0.49,0 -0.961,-0.114 -0.961,-0.114 0.101,-0.499 0.406,-1.581 0.406,-3.481 v -10.867 h 3.672 v 10.252 c 0.435,0.342 1.385,1.255 2.824,1.273 0.975,0.007 1.576,-0.388 1.666,-0.44 l 1.346,3.044 C 2.23,-0.51 1.574,0 0,0"
             style="fill:#ffffff;fill-opacity:1;fill-rule:nonzero;stroke:none"
             id="path420" /></g><g
           id="g422"
           transform="translate(600.9766,120.5537)"><path
             d="M 0,0 C 2.266,0 3.551,1.936 3.551,4.698 3.551,7.437 2.291,9.411 0,9.411 -2.211,9.411 -3.543,7.493 -3.543,4.698 -3.543,2.003 -2.275,0 0,0 m 0,-2.825 c -4.488,0 -7.193,2.965 -7.193,7.523 0,4.54 2.668,7.536 7.193,7.536 4.541,0 7.203,-2.996 7.203,-7.536 C 7.203,0.409 4.738,-2.825 0,-2.825"
             style="fill:#ffffff;fill-opacity:1;fill-rule:nonzero;stroke:none"
             id="path424" /></g><g
           id="g426"
           transform="translate(619.2187,121.6797)"><path
             d="m 0,0 c -0.227,-0.134 -1.215,-1.029 -2.689,-1.029 -1.266,0 -2.231,0.77 -2.231,2.046 0,1.073 1.037,2.006 3.024,2.006 l 1.896,0 z m 0.316,-2.179 c 0.258,-0.662 0.875,-1.446 2.163,-1.446 0.679,0 1.556,0.179 1.701,0.235 -0.112,0.419 -0.448,1.544 -0.448,4.072 v 5.063 c 0,3.753 -2.416,5.363 -6.15,5.363 -3.141,0 -5.383,-1.504 -5.643,-1.68 0,0 0.151,-0.266 0.254,-0.445 0.313,-0.538 0.592,-1.325 1.512,-1.325 0.916,0 1.701,0.702 3.447,0.702 C -0.93,8.36 0,7.432 0,6.01 V 5.502 h -1.203 c -4.922,0 -7.514,-1.905 -7.514,-4.959 0,-2.696 2.059,-4.494 4.903,-4.494 2.703,0 3.892,1.576 4.13,1.772"
             style="fill:#ffffff;fill-opacity:1;fill-rule:nonzero;stroke:none"
             id="path428" /></g><g
           id="g430"
           transform="translate(634.957,129.792)"><path
             d="M 0,0 C 0.904,0 1.559,-0.17 1.773,-0.226 L 1.77,-8.862 C 1.576,-8.905 0.937,-9.085 0,-9.085 c -2.213,0 -4.15,1.441 -4.15,4.538 C -4.15,-1.59 -2.412,0 0,0 m -0.475,-12.063 c 3.145,0 5.498,0.781 5.911,0.913 V 9.996 H 4.857 C 3.178,9.996 1.77,8.87 1.77,6.634 V 2.663 c -0.104,0.024 -1.209,0.328 -2.497,0.328 -3.941,0 -7.361,-2.447 -7.361,-7.642 0,-4.365 2.809,-7.412 7.613,-7.412"
             style="fill:#ffffff;fill-opacity:1;fill-rule:nonzero;stroke:none"
             id="path432" /></g><g
           id="g434"
           transform="translate(702.3359,129.792)"><path
             d="M 0,0 C 0.904,0 1.559,-0.17 1.771,-0.226 V -8.862 C 1.574,-8.905 0.939,-9.085 0,-9.085 c -2.213,0 -4.15,1.441 -4.15,4.538 C -4.15,-1.59 -2.412,0 0,0 m -0.477,-12.063 c 3.147,0 5.5,0.781 5.911,0.913 V 9.996 H 4.854 C 3.178,9.996 1.771,8.87 1.771,6.634 V 2.663 c -0.103,0.024 -1.212,0.328 -2.498,0.328 -3.939,0 -7.361,-2.447 -7.361,-7.642 0,-4.365 2.811,-7.412 7.611,-7.412"
             style="fill:#ffffff;fill-opacity:1;fill-rule:nonzero;stroke:none"
             id="path436" /></g><g
           id="g438"
           transform="translate(653.9883,125.2432)"><path
             d="m 0,0 c 0,-3.095 -1.937,-4.536 -4.15,-4.536 -0.94,0 -1.575,0.18 -1.77,0.22 L -5.922,4.323 C -5.707,4.378 -5.055,4.549 -4.15,4.549 -1.738,4.549 0,2.959 0,0 m 3.938,-0.103 c 0,5.196 -3.422,7.643 -7.362,7.643 -1.287,0 -2.394,-0.305 -2.496,-0.33 v 3.972 c 0,2.237 -1.406,3.363 -3.086,3.363 H -9.584 V -6.602 c 0.41,-0.131 2.762,-0.913 5.908,-0.913 4.807,0 7.614,3.048 7.614,7.412"
             style="fill:#ffffff;fill-opacity:1;fill-rule:nonzero;stroke:none"
             id="path440" /></g><g
           id="g442"
           transform="translate(669.9863,121.6797)"><path
             d="m 0,0 c -0.227,-0.134 -1.215,-1.029 -2.688,-1.029 -1.269,0 -2.234,0.77 -2.234,2.046 0,1.073 1.037,2.006 3.026,2.006 l 1.896,0 z m 0.314,-2.179 c 0.262,-0.662 0.879,-1.446 2.163,-1.446 0.679,0 1.556,0.179 1.701,0.235 -0.11,0.419 -0.446,1.544 -0.446,4.072 v 5.063 c 0,3.753 -2.418,5.363 -6.152,5.363 -3.141,0 -5.381,-1.504 -5.641,-1.68 0,0 0.149,-0.266 0.254,-0.445 0.311,-0.538 0.592,-1.325 1.512,-1.325 0.916,0 1.701,0.702 3.445,0.702 C -0.932,8.36 0,7.432 0,6.01 V 5.502 h -1.205 c -4.918,0 -7.508,-1.905 -7.508,-4.959 0,-2.696 2.053,-4.494 4.897,-4.494 2.705,0 3.898,1.576 4.13,1.772"
             style="fill:#ffffff;fill-opacity:1;fill-rule:nonzero;stroke:none"
             id="path444" /></g><g
           id="g446"
           transform="translate(677.4102,127.8291)"><path
             d="M 0,0 V -9.776 H 3.67 V 0.383 C 3.867,0.57 5.172,1.812 6.619,1.812 8.51,1.812 9.49,0.444 9.49,-1.336 v -8.44 h 3.66 v 9.357 C 13.15,4.026 9.734,5.009 7.822,5.009 5.533,5.009 3.896,3.572 3.412,3.081 3.258,3.678 2.555,4.687 0.955,4.687 0.389,4.687 -0.35,4.521 -0.42,4.506 -0.305,3.948 0,2.64 0,0"
             style="fill:#ffffff;fill-opacity:1;fill-rule:nonzero;stroke:none"
             id="path448" /></g><g
           id="g450"
           transform="translate(567.9902,151.6211)"><path
             d="M 0,0 0.822,-0.031 C 1.207,-0.055 1.639,-0.08 2.229,-0.078 6.271,-0.061 8.902,1.367 10.34,2.167 7.018,4.26 2.213,6.369 -3.725,6.607 -4.117,5.5 -7.172,-2.993 -7.404,-3.676 c 0.037,-0.041 0.572,-0.642 1.24,-1.808 0.926,-1.507 1.447,-2.803 1.801,-3.777 0.759,1.28 0.89,3.257 0.965,5.521 0.076,1.886 0.4,3.73 3.398,3.74"
             style="fill:#ffffff;fill-opacity:1;fill-rule:nonzero;stroke:none"
             id="path452" /></g><g
           id="g454"
           transform="translate(583.377,149.5576)"><path
             d="M 0,0 C -0.262,0.431 -1.611,1.861 -3.859,3.438 L -3.922,3.403 c -1.769,-0.976 -4.728,-2.611 -9.107,-2.63 -0.575,0 -0.912,0.021 -1.209,0.04 l -0.797,0.028 c -2.063,-0.011 -2.479,-0.885 -2.549,-2.6 l -0.016,-0.465 -0.023,-0.861 c -0.078,-1.896 -0.324,-4.033 -1.549,-5.519 l -0.055,-0.065 c 0.053,-0.125 0.1,-0.232 0.149,-0.316 0.109,-0.185 0.254,-0.267 0.428,-0.267 0.109,0 0.244,0.038 0.392,0.106 0.363,0.166 14.766,6.87 16.934,7.872 0.318,0.153 0.914,0.418 1.111,0.531 0.207,0.117 0.299,0.289 0.299,0.46 C 0.084,-0.187 0.055,-0.089 0,0"
             style="fill:#ffffff;fill-opacity:1;fill-rule:nonzero;stroke:none"
             id="path456" /></g><g
           id="g458"
           transform="translate(558.0566,164.9053)"><path
             d="m 0,0 -0.129,-0.024 c -1.43,-0.271 -3.697,-1.594 -3.687,-4.006 0.002,-1.011 0.394,-1.852 0.814,-2.742 0.481,-1.028 1.023,-2.192 1.025,-3.792 0.012,-2.425 -1.382,-3.818 -2.363,-4.496 0.447,0.031 0.928,0.052 1.447,0.052 1.342,0.005 2.157,-0.124 2.206,-0.133 l 6.896,8.464 C 4.338,-3.876 2.162,-1.691 0,0"
             style="fill:#ffffff;fill-opacity:1;fill-rule:nonzero;stroke:none"
             id="path460" /></g><g
           id="g462"
           transform="translate(552.3398,150.2656)"><path
             d="M 0,0 C 1.266,0.732 2.502,1.988 2.496,4.106 2.49,5.375 2.043,6.338 1.568,7.361 1.104,8.365 0.623,9.403 0.619,10.734 c -0.01,2.895 2.332,4.385 3.801,4.842 -4.664,3.226 -9.027,4.245 -9.834,4.242 -0.279,0 -0.52,-0.191 -0.52,-0.56 0,-0.228 0.088,-0.867 0.125,-1.215 0.254,-2.39 1.981,-18.168 2.026,-18.566 0.047,-0.4 0.219,-0.634 0.57,-0.631 0.051,0 0.115,0.003 0.186,0.01 0.248,0.023 0.75,0.096 1.332,0.319 C -1.01,-0.561 -0.562,-0.32 0,0"
             style="fill:#ffffff;fill-opacity:1;fill-rule:nonzero;stroke:none"
             id="path464" /></g><g
           id="g466"
           transform="translate(553,93.125)"><path
             d="m 0,0 c -0.109,-0.334 -0.187,-0.366 -0.242,-0.479 -0.051,0.108 -0.127,0.05 -0.227,0.361 l -5.65,17.993 H -8.33 l 5.998,-19.031 c 0.439,-1.387 1.156,-1.511 2.096,-1.511 0.929,0 1.636,0.037 2.066,1.389 L 8.271,17.875 H 6.053 Z"
             style="fill:#ffffff;fill-opacity:1;fill-rule:nonzero;stroke:none"
             id="path468" /></g><g
           id="g470"
           transform="translate(563.2207,110.1543)"><path
             d="m 0,0 c -0.758,0 -1.352,-0.594 -1.352,-1.352 0,-0.758 0.594,-1.353 1.352,-1.353 0.758,0 1.352,0.595 1.352,1.353 C 1.352,-0.594 0.758,0 0,0"
             style="fill:#ffffff;fill-opacity:1;fill-rule:nonzero;stroke:none"
             id="path472" /></g><g
           id="g474"
           transform="translate(563,104.6387)"><path
             d="M 0,0 V -14.639 H 0.354 2 v 15 H 0 Z"
             style="fill:#ffffff;fill-opacity:1;fill-rule:nonzero;stroke:none"
             id="path476" /></g><g
           id="g478"
           transform="translate(580,110.6387)"><path
             d="m 0,0 v -12.378 c 0,-2.978 -2.712,-5.495 -5.54,-5.495 -2.385,0 -5.206,2.257 -5.206,5.495 0,3.03 2.046,5.496 4.661,5.496 1.506,0 2.909,-0.549 3.915,-1.778 L -1,-9.745 v 2.946 l -0.542,0.149 c -0.152,0.104 -0.466,0.216 -0.622,0.332 -0.885,0.649 -2.067,1.459 -3.98,1.459 -3.99,0 -7.041,-3.233 -7.041,-7.519 0,-4.216 3.507,-7.518 7.593,-7.518 4.088,0 7.592,3.302 7.592,7.518 L 2,0.361 H 0 Z"
             style="fill:#ffffff;fill-opacity:1;fill-rule:nonzero;stroke:none"
             id="path480" /></g><g
           id="g482"
           transform="translate(595.6523,97.8281)"><path
             d="m 0,0 c -0.057,-2.873 -2.533,-5.141 -5.41,-5.141 -3.002,0 -5.354,2.439 -5.354,5.451 0,3.117 2.352,5.599 5.354,5.599 1.379,0 2.66,-0.508 3.594,-1.443 L -10.445,-1.356 -9.162,-3.063 1.264,4.01 1.008,4.42 c -1.377,2.211 -3.778,3.531 -6.418,3.531 -4.272,0 -7.492,-3.244 -7.492,-7.547 0,-4.293 3.246,-7.408 7.718,-7.408 4.151,0 7.229,2.751 7.319,6.983 L 2.146,0.172 H 0.01 Z"
             style="fill:#ffffff;fill-opacity:1;fill-rule:nonzero;stroke:none"
             id="path484" /></g><g
           id="g486"
           transform="translate(605.8691,92.7656)"><path
             d="m 0,0 c -2.857,0 -5.184,2.465 -5.184,5.495 0,3.03 2.327,5.496 5.184,5.496 2.857,0 5.182,-2.466 5.182,-5.496 C 5.182,2.465 2.857,0 0,0 m 0,13.014 c -4.035,0 -7.32,-3.373 -7.32,-7.519 0,-4.145 3.285,-7.517 7.32,-7.517 4.035,0 7.318,3.372 7.318,7.517 0,4.146 -3.283,7.519 -7.318,7.519"
             style="fill:#ffffff;fill-opacity:1;fill-rule:nonzero;stroke:none"
             id="path488" /></g><g
           id="g490"
           transform="translate(624.1699,91.6738)"><path
             d="M 0,0 C 0.264,-0.021 0.527,-0.035 0.791,-0.035 0.529,-0.035 0.266,-0.023 0,0 m -0.316,18.925 c 0.293,0.026 0.587,0.04 0.88,0.04 -0.293,0 -0.587,-0.015 -0.88,-0.04 m -9.45,-9.779 c 0,-6.398 4.686,-10.193 9.399,-10.618 0.31,-0.028 0.621,-0.202 0.931,-0.202 h 1.62 1.646 v 2 H 0.791 c -4.129,0 -8.309,2.92 -8.309,8.501 0,5.58 4.18,8.499 8.309,8.499 H 2.184 3.83 v 2 H 0.564 c -5.007,0 -10.33,-3.361 -10.33,-10.18"
             style="fill:#ffffff;fill-opacity:1;fill-rule:nonzero;stroke:none"
             id="path492" /></g><g
           id="g494"
           transform="translate(630,110.6387)"><path
             d="M 0,0 V -20.639 H 0.354 2 v 21 H 0 Z"
             style="fill:#ffffff;fill-opacity:1;fill-rule:nonzero;stroke:none"
             id="path496" /></g><g
           id="g498"
           transform="translate(641.1816,92.7656)"><path
             d="m 0,0 c -2.859,0 -5.184,2.465 -5.184,5.495 0,3.03 2.325,5.496 5.184,5.496 2.857,0 5.182,-2.466 5.182,-5.496 C 5.182,2.465 2.857,0 0,0 m 0,13.014 c -4.037,0 -7.32,-3.373 -7.32,-7.519 0,-4.145 3.283,-7.517 7.32,-7.517 4.035,0 7.318,3.372 7.318,7.517 0,4.146 -3.283,7.519 -7.318,7.519"
             style="fill:#ffffff;fill-opacity:1;fill-rule:nonzero;stroke:none"
             id="path500" /></g><g
           id="g502"
           transform="translate(661,104.6387)"><path
             d="m 0,0 v -7.713 c 0,-2.702 -2.061,-4.16 -4,-4.16 -1.939,0 -4,1.458 -4,4.16 v 8.074 h -2 V 0 -7.855 c 0,-3.444 2.58,-6.041 6,-6.041 3.42,0 6,2.597 6,6.041 V 0.361 H 0 Z"
             style="fill:#ffffff;fill-opacity:1;fill-rule:nonzero;stroke:none"
             id="path504" /></g><g
           id="g506"
           transform="translate(676,100.8936)"><path
             d="m 0,0 v -2.633 c 0,-2.664 -1.991,-5.495 -5.085,-5.495 -2.324,0 -4.976,2.208 -4.976,5.495 0,3.288 2.453,5.496 4.818,5.496 1.551,0 3.108,-0.598 4.073,-1.778 z M 0,10.106 V 9.745 2.946 l -0.542,0.149 c -0.143,0.097 -0.448,0.203 -0.597,0.31 -0.908,0.66 -2.118,1.481 -4.048,1.481 -4.001,0 -7.062,-3.233 -7.062,-7.519 0,-4.216 3.52,-7.517 7.624,-7.517 4.105,0 7.625,3.301 7.625,7.517 v 12.739 z"
             style="fill:#ffffff;fill-opacity:1;fill-rule:nonzero;stroke:none"
             id="path508" /></g><g
           id="g510"
           transform="translate(705.8164,262.3496)"><path
             d="m 0,0 c 0.017,0.618 0.047,1.232 0.047,1.854 0,37.941 -30.742,68.697 -68.664,68.697 -30.444,0 -56.241,-19.828 -65.239,-47.276 -5.248,3.726 -11.656,5.923 -18.58,5.923 -16.143,0 -29.502,-11.904 -31.798,-27.416 -20.208,-4.746 -35.258,-22.86 -35.258,-44.497 0,-25.252 20.492,-45.722 45.767,-45.722 h 157.397 c 25.277,0 45.767,20.47 45.767,45.722 C 29.439,-23.211 17.211,-6.57 0,0"
             style="fill:#f47725;fill-opacity:1;fill-rule:evenodd;stroke:none"
             id="path512" /></g><g
           id="g514"
           transform="translate(636.7383,323.626)"><path
             d="m 0,0 c -32.129,0 -58.174,-26.042 -58.174,-58.167 0,-32.126 26.045,-58.168 58.174,-58.168 32.131,0 58.176,26.042 58.176,58.168 C 58.176,-26.042 32.131,0 0,0 m 0,-1 c 31.527,0 57.176,-25.646 57.176,-57.167 0,-31.522 -25.649,-57.168 -57.176,-57.168 -31.525,0 -57.174,25.646 -57.174,57.168 C -57.174,-26.646 -31.525,-1 0,-1"
             style="fill:#ffffff;fill-opacity:1;fill-rule:nonzero;stroke:none"
             id="path516" /></g><g
           id="g518"
           transform="translate(636.7383,314.751)"><path
             d="m 0,0 c 27.225,0 49.293,-22.069 49.293,-49.293 0,-27.223 -22.068,-49.292 -49.293,-49.292 -27.223,0 -49.293,22.069 -49.293,49.292 C -49.293,-22.069 -27.223,0 0,0"
             style="fill:#ffffff;fill-opacity:1;fill-rule:evenodd;stroke:none"
             id="path520" /></g><g
           id="g522"
           transform="translate(635.5527,297.0869)"><path
             d="m 0,0 c -17.578,0 -31.828,-14.254 -31.828,-31.836 0,-17.582 14.25,-31.834 31.828,-31.834 17.578,0 31.828,14.252 31.828,31.834 C 31.828,-14.254 17.578,0 0,0 M 0,-6 C 14.242,-6 25.828,-17.59 25.828,-31.836 25.828,-46.081 14.242,-57.67 0,-57.67 c -14.241,0 -25.828,11.589 -25.828,25.834 C -25.828,-17.59 -14.241,-6 0,-6"
             style="fill:#f47725;fill-opacity:1;fill-rule:nonzero;stroke:none"
             id="path524" /></g><g
           id="g526"
           transform="translate(619.915,266.9248)"><path
             d="m 0,0 c -0.129,0 -0.259,0.017 -0.389,0.051 -0.8,0.215 -1.275,1.037 -1.061,1.837 1.621,6.057 6.371,10.804 12.395,12.389 0.805,0.215 1.622,-0.268 1.832,-1.068 C 12.988,12.407 12.51,11.587 11.709,11.377 6.723,10.064 2.791,6.132 1.448,1.112 1.269,0.441 0.662,0 0,0"
             style="fill:#f47725;fill-opacity:1;fill-rule:nonzero;stroke:none"
             id="path528" /></g><g
           id="g530"
           transform="translate(688.3594,229.2783)"><path
             d="m 0,0 c 0,-3.257 -2.639,-5.896 -5.895,-5.896 -3.257,0 -5.896,2.639 -5.896,5.896 0,3.256 2.639,5.895 5.896,5.895 C -2.639,5.895 0,3.256 0,0"
             style="fill:#ffffff;fill-opacity:1;fill-rule:evenodd;stroke:none"
             id="path532" /></g><g
           id="g534"
           transform="translate(217.2974,741.231)"><path
             d="M 0,0 H -1.176 V 9.576 H -11.2 v 1.008 h 10.024 v 2.968 c 0,3.304 -2.24,5.32 -5.572,5.32 -3.332,0 -5.572,-2.016 -5.572,-5.32 V 0 h -1.176 v 13.188 c 0,4.256 2.66,6.748 6.748,6.748 C -2.66,19.936 0,17.444 0,13.188 Z"
             style="fill:#f47725;fill-opacity:1;fill-rule:nonzero;stroke:none"
             id="path536" /></g><g
           id="g538"
           transform="translate(217.2974,741.231)"><path
             d="M 0,0 H -1.176 V 9.576 H -11.2 v 1.008 h 10.024 v 2.968 c 0,3.304 -2.24,5.32 -5.572,5.32 -3.332,0 -5.572,-2.016 -5.572,-5.32 V 0 h -1.176 v 13.188 c 0,4.256 2.66,6.748 6.748,6.748 C -2.66,19.936 0,17.444 0,13.188 Z"
             style="fill:none;stroke:#f47725;stroke-width:1;stroke-linecap:butt;stroke-linejoin:miter;stroke-miterlimit:10;stroke-dasharray:none;stroke-opacity:1"
             id="path540" /></g><g
           id="g542"
           transform="translate(220.7974,741.231)"><path
             d="m 0,0 v 14.168 c 0,3.08 2.128,5.768 6.02,5.768 3.388,0 6.02,-2.184 6.02,-6.02 0,-3.836 -2.632,-6.02 -6.02,-6.02 H 2.212 V 8.96 H 6.02 c 2.772,0 4.788,1.848 4.788,4.956 0,3.108 -2.016,4.956 -4.788,4.956 -2.828,0 -4.844,-2.072 -4.844,-4.592 L 1.176,0 Z"
             style="fill:#f47725;fill-opacity:1;fill-rule:nonzero;stroke:none"
             id="path544" /></g><g
           id="g546"
           transform="translate(220.7974,741.231)"><path
             d="m 0,0 v 14.168 c 0,3.08 2.128,5.768 6.02,5.768 3.388,0 6.02,-2.184 6.02,-6.02 0,-3.836 -2.632,-6.02 -6.02,-6.02 H 2.212 V 8.96 H 6.02 c 2.772,0 4.788,1.848 4.788,4.956 0,3.108 -2.016,4.956 -4.788,4.956 -2.828,0 -4.844,-2.072 -4.844,-4.592 L 1.176,0 Z"
             style="fill:none;stroke:#f47725;stroke-width:1;stroke-linecap:butt;stroke-linejoin:miter;stroke-miterlimit:10;stroke-dasharray:none;stroke-opacity:1"
             id="path548" /></g><g
           id="g550"
           transform="translate(234.7974,741.231)"><path
             d="m 0,0 v 14.168 c 0,3.08 2.128,5.768 6.02,5.768 3.388,0 6.02,-2.184 6.02,-6.02 0,-3.836 -2.632,-6.02 -6.02,-6.02 H 2.212 V 8.96 H 6.02 c 2.772,0 4.788,1.848 4.788,4.956 0,3.108 -2.016,4.956 -4.788,4.956 -2.828,0 -4.844,-2.072 -4.844,-4.592 L 1.176,0 Z"
             style="fill:#f47725;fill-opacity:1;fill-rule:nonzero;stroke:none"
             id="path552" /></g><g
           id="g554"
           transform="translate(234.7974,741.231)"><path
             d="m 0,0 v 14.168 c 0,3.08 2.128,5.768 6.02,5.768 3.388,0 6.02,-2.184 6.02,-6.02 0,-3.836 -2.632,-6.02 -6.02,-6.02 H 2.212 V 8.96 H 6.02 c 2.772,0 4.788,1.848 4.788,4.956 0,3.108 -2.016,4.956 -4.788,4.956 -2.828,0 -4.844,-2.072 -4.844,-4.592 L 1.176,0 Z"
             style="fill:none;stroke:#f47725;stroke-width:1;stroke-linecap:butt;stroke-linejoin:miter;stroke-miterlimit:10;stroke-dasharray:none;stroke-opacity:1"
             id="path556" /></g><g
           id="g558"
           transform="translate(596.5937,760.8315)"><path
             d="m 0,0 v -13.104 c 0,-4.088 2.604,-5.768 4.957,-5.768 2.632,0 4.703,1.904 4.703,4.788 V 0 h 1.176 v -14.224 c 0,-3.584 -2.575,-5.712 -5.795,-5.712 -2.717,0 -4.284,1.176 -5.629,3.584 -1.344,-2.408 -2.912,-3.584 -5.627,-3.584 -3.221,0 -5.797,2.128 -5.797,5.712 V 0 h 1.176 v -14.084 c 0,-2.884 2.072,-4.788 4.705,-4.788 2.352,0 4.955,1.68 4.955,5.768 l 0,13.104 z"
             style="fill:#f47725;fill-opacity:1;fill-rule:nonzero;stroke:none"
             id="path560" /></g><g
           id="g562"
           transform="translate(596.5937,760.8315)"><path
             d="m 0,0 v -13.104 c 0,-4.088 2.604,-5.768 4.957,-5.768 2.632,0 4.703,1.904 4.703,4.788 V 0 h 1.176 v -14.224 c 0,-3.584 -2.575,-5.712 -5.795,-5.712 -2.717,0 -4.284,1.176 -5.629,3.584 -1.344,-2.408 -2.912,-3.584 -5.627,-3.584 -3.221,0 -5.797,2.128 -5.797,5.712 V 0 h 1.176 v -14.084 c 0,-2.884 2.072,-4.788 4.705,-4.788 2.352,0 4.955,1.68 4.955,5.768 l 0,13.104 z"
             style="fill:none;stroke:#f47725;stroke-width:1;stroke-linecap:butt;stroke-linejoin:miter;stroke-miterlimit:10;stroke-dasharray:none;stroke-opacity:1"
             id="path564" /></g><g
           id="g566"
           transform="translate(621.8779,750.8076)"><path
             d="m 0,0 h -10.752 c 0,-5.768 4.984,-8.568 8.96,-8.568 H 0 v -1.008 h -2.239 c -4.873,0 -9.689,3.472 -9.689,9.8 0,6.328 4.816,9.8 9.689,9.8 H 0 V 9.016 h -2.184 c -4.984,0 -8.568,-4.2 -8.568,-8.008 L 0,1.008 Z"
             style="fill:#f47725;fill-opacity:1;fill-rule:nonzero;stroke:none"
             id="path568" /></g><g
           id="g570"
           transform="translate(621.8779,750.8076)"><path
             d="m 0,0 h -10.752 c 0,-5.768 4.984,-8.568 8.96,-8.568 H 0 v -1.008 h -2.239 c -4.873,0 -9.689,3.472 -9.689,9.8 0,6.328 4.816,9.8 9.689,9.8 H 0 V 9.016 h -2.184 c -4.984,0 -8.568,-4.2 -8.568,-8.008 L 0,1.008 Z"
             style="fill:none;stroke:#f47725;stroke-width:1;stroke-linecap:butt;stroke-linejoin:miter;stroke-miterlimit:10;stroke-dasharray:none;stroke-opacity:1"
             id="path572" /></g><g
           id="g574"
           transform="translate(627.3105,742.2393)"><path
             d="M 0,0 H 3.976 C 7.783,0 9.295,1.848 9.295,4.312 9.295,7 7.615,8.848 4.424,8.848 H 0 v 1.008 h 2.855 c 3.697,0 5.432,1.288 5.432,4.256 0,2.352 -1.68,3.808 -4.508,3.808 -2.828,0 -4.9,-1.624 -4.9,-4.872 V -1.008 H -2.297 V 12.32 c 0,4.536 2.24,6.608 6.217,6.608 3.863,0 5.6,-2.296 5.6,-4.816 0,-1.96 -0.672,-3.864 -2.94,-4.62 V 9.436 c 1.707,-0.028 3.947,-2.1 3.947,-5.18 0,-2.856 -1.904,-5.264 -5.88,-5.264 l -4.647,0 z"
             style="fill:#f47725;fill-opacity:1;fill-rule:nonzero;stroke:none"
             id="path576" /></g><g
           id="g578"
           transform="translate(627.3105,742.2393)"><path
             d="M 0,0 H 3.976 C 7.783,0 9.295,1.848 9.295,4.312 9.295,7 7.615,8.848 4.424,8.848 H 0 v 1.008 h 2.855 c 3.697,0 5.432,1.288 5.432,4.256 0,2.352 -1.68,3.808 -4.508,3.808 -2.828,0 -4.9,-1.624 -4.9,-4.872 V -1.008 H -2.297 V 12.32 c 0,4.536 2.24,6.608 6.217,6.608 3.863,0 5.6,-2.296 5.6,-4.816 0,-1.96 -0.672,-3.864 -2.94,-4.62 V 9.436 c 1.707,-0.028 3.947,-2.1 3.947,-5.18 0,-2.856 -1.904,-5.264 -5.88,-5.264 l -4.647,0 z"
             style="fill:none;stroke:#f47725;stroke-width:1;stroke-linecap:butt;stroke-linejoin:miter;stroke-miterlimit:10;stroke-dasharray:none;stroke-opacity:1"
             id="path580" /></g></g></g></g></svg>
