<?xml version="1.0" encoding="UTF-8" standalone="no"?>
<svg
   xmlns:dc="http://purl.org/dc/elements/1.1/"
   xmlns:cc="http://creativecommons.org/ns#"
   xmlns:rdf="http://www.w3.org/1999/02/22-rdf-syntax-ns#"
   xmlns:svg="http://www.w3.org/2000/svg"
   xmlns="http://www.w3.org/2000/svg"
   viewBox="0 0 666.66669 666.66669"
   height="666.66669"
   width="666.66669"
   xml:space="preserve"
   id="svg2"
   version="1.1"><metadata
     id="metadata8"><rdf:RDF><cc:Work
         rdf:about=""><dc:format>image/svg+xml</dc:format><dc:type
           rdf:resource="http://purl.org/dc/dcmitype/StillImage" /></cc:Work></rdf:RDF></metadata><defs
     id="defs6"><clipPath
       id="clipPath18"
       clipPathUnits="userSpaceOnUse"><path
         id="path16"
         d="M 0,500 H 500 V 0 H 0 Z" /></clipPath></defs><g
     transform="matrix(1.3333333,0,0,-1.3333333,0,666.66667)"
     id="g10"><g
       id="g12"><g
         clip-path="url(#clipPath18)"
         id="g14"><g
           transform="translate(76.4927,253.2637)"
           id="g20"><path
             id="path22"
             style="fill:#e34500;fill-opacity:1;fill-rule:nonzero;stroke:none"
             d="m 0,0 c -4.549,2.129 -8.28,3.854 -8.28,7.321 0,2.657 2.13,4.582 6.323,4.582 1.537,0 2.806,-0.178 4.107,-0.42 0.682,-0.119 1.407,-0.215 2.012,-0.215 3.661,0 5.736,2.185 7.111,6.336 l 0.567,1.69 c -0.591,0.235 -6.569,2.866 -14.378,2.866 -12.425,0 -18.984,-7.972 -18.984,-16.225 0,-4.177 1.313,-7.198 3.35,-9.577 2.632,-3.058 6.392,-5.065 9.907,-6.771 5.114,-2.512 9.737,-4.37 9.737,-8.094 0,-3.3 -3.419,-5.177 -7.981,-5.177 -6.249,0 -11.715,3.569 -12.407,3.999 l -5.133,-9.617 c 0.916,-0.513 7.519,-4.719 18.408,-4.719 11.587,0.01 20.365,6.659 20.365,16.882 C 14.724,-6.96 6.591,-3.185 0,0" /></g><g
           transform="translate(121.8306,248.5186)"
           id="g24"><path
             id="path26"
             style="fill:#e34500;fill-opacity:1;fill-rule:nonzero;stroke:none"
             d="M 0,0 21.028,25.779 H 6.046 L -10.727,3.538 h -0.251 v 22.241 h -12.341 v -54.617 h 0.724 c 5.352,0 11.695,2.471 11.695,11.39 v 12.55 h 0.256 L 6.451,-28.154 h 15.716 z" /></g><g
           transform="translate(143.5552,332.8091)"
           id="g28"><path
             id="path30"
             style="fill:#e34500;fill-opacity:1;fill-rule:nonzero;stroke:none"
             d="m 0,0 c -4.344,-0.825 -10.786,-4.768 -10.768,-11.751 0.013,-6.339 5.197,-10.175 5.208,-18.488 0.032,-6.247 -3.419,-10.446 -7.135,-12.787 1.5,0.141 3.148,0.223 4.965,0.227 3.806,0.014 6.095,-0.354 6.24,-0.376 l 19.504,23.936 C 12.598,-11.138 6.271,-4.839 0,0" /></g><g
           transform="translate(159.9473,268.1655)"
           id="g32"><path
             id="path34"
             style="fill:#e34500;fill-opacity:1;fill-rule:nonzero;stroke:none"
             d="m 0,0 c 2.453,3.82 2.761,9.911 2.973,16.121 0.234,5.786 1.442,10.142 9.185,10.171 1.709,0 3.344,-0.234 6.304,-0.223 11.342,0.045 18.743,3.958 23.356,6.515 C 32.405,38.585 18.667,44.713 1.622,45.405 0.513,42.272 -8.127,18.254 -8.777,16.322 c 0.1,-0.119 1.61,-1.821 3.5,-5.125 C -2.49,6.66 -0.998,2.813 0,0" /></g><g
           transform="translate(118.7461,287.7798)"
           id="g36"><path
             id="path38"
             style="fill:#ad0000;fill-opacity:1;fill-rule:nonzero;stroke:none"
             d="m 0,0 c -0.981,-0.004 -1.479,0.65 -1.613,1.791 -0.126,1.126 -5.002,45.765 -5.727,52.51 -0.104,0.992 -0.353,2.795 -0.358,3.449 0,1.037 0.678,1.575 1.477,1.575 C -3.908,59.336 8.69,56.382 22.059,47.017 18.209,45.932 11.235,41.926 11.26,33.632 11.292,26.289 16.544,22.249 16.578,14.883 16.619,2.906 2.846,0.007 0,0" /></g><g
           transform="translate(161.062,264.981)"
           id="g40"><path
             id="path42"
             style="fill:#ad0000;fill-opacity:1;fill-rule:nonzero;stroke:none"
             d="m 0,0 c 0.216,-0.558 0.415,-1.022 0.606,-1.349 0.305,-0.528 0.713,-0.755 1.202,-0.755 0.311,0 0.693,0.104 1.115,0.298 1.028,0.465 41.765,19.435 47.902,22.26 0.892,0.439 2.573,1.189 3.134,1.516 0.582,0.335 0.842,0.806 0.842,1.29 0,0.279 -0.084,0.55 -0.236,0.802 -0.767,1.242 -4.712,5.426 -11.297,9.997 -5.227,-2.884 -13.393,-7.332 -25.549,-7.388 -2.984,0 -3.653,0.204 -5.686,0.193 C 6.095,26.846 4.619,24.304 4.404,19.108 4.367,18.116 4.344,16.805 4.298,15.355 4.106,10.699 3.555,4.292 0,0" /></g><g
           transform="translate(342.6875,250.29)"
           id="g44"><path
             id="path46"
             style="fill:#ad0000;fill-opacity:1;fill-rule:nonzero;stroke:none"
             d="m 0,0 12.2,-29.936 h 6.158 L 30.503,0.042 H 22.801 L 15.413,-20.239 H 15.281 L 9.14,-3.657 9.004,-3.28 C 8.471,-1.925 7.728,-0.654 6.158,0.042 5.385,0.385 4.407,0.589 3.164,0.589 1.68,0.589 0.457,0.158 0.087,0.042 L 0,0.015 Z" /></g><g
           transform="translate(337.0225,250.8018)"
           id="g48"><path
             id="path50"
             style="fill:#ad0000;fill-opacity:1;fill-rule:nonzero;stroke:none"
             d="m 0,0 c -3.641,0 -6.844,-2.965 -8.146,-4.273 -0.58,1.392 -1.626,3.716 -5.458,3.716 -1.014,0 -2.01,-0.233 -2.01,-0.233 0.214,-1.04 0.858,-3.28 0.858,-7.212 v -22.5 h 7.591 v 21.227 c 0.924,0.699 2.869,2.599 5.856,2.623 1.998,0.03 3.273,-0.787 3.464,-0.897 L 4.92,-1.256 C 4.607,-1.047 3.257,0 0,0" /></g><g
           transform="translate(386.2637,259.4658)"
           id="g52"><path
             id="path54"
             style="fill:#ad0000;fill-opacity:1;fill-rule:nonzero;stroke:none"
             d="m 0,0 c 0,-2.54 -2.11,-4.59 -4.708,-4.59 -2.615,0 -4.728,2.05 -4.728,4.59 0,2.527 2.113,4.589 4.728,4.589 C -2.11,4.589 0,2.527 0,0" /></g><path
           id="path56"
           style="fill:#ad0000;fill-opacity:1;fill-rule:nonzero;stroke:none"
           d="m 385.348,220.3 h -7.596 v 29.945 h 7.596 z" /><g
           transform="translate(302.9375,250.8018)"
           id="g58"><path
             id="path60"
             style="fill:#ad0000;fill-opacity:1;fill-rule:nonzero;stroke:none"
             d="m 0,0 c -7.282,0 -13.423,-5.929 -13.423,-15.628 0,-9.925 5.951,-15.554 14.862,-15.554 7.077,0 10.737,3.095 11.181,3.382 0,0 -0.685,1.117 -0.887,1.435 -0.988,1.63 -2.118,2.15 -3.374,2.15 -2.505,0 -2.828,-1.039 -6.216,-1.039 -5.828,0 -7.846,4.541 -7.987,7.57 h 19.495 v 2.26 C 13.651,-6.126 8.296,0 0,0 m -5.862,-12.287 c 0,3.406 2.396,6.572 5.745,6.572 3.757,0 5.823,-3.263 5.883,-6.572 z" /></g><g
           transform="translate(433.9092,250.8018)"
           id="g62"><path
             id="path64"
             style="fill:#ad0000;fill-opacity:1;fill-rule:nonzero;stroke:none"
             d="m 0,0 c -7.284,0 -13.431,-5.929 -13.431,-15.628 0,-9.925 5.953,-15.554 14.862,-15.554 7.075,0 10.74,3.095 11.181,3.382 l -0.883,1.435 c -0.993,1.63 -2.123,2.15 -3.372,2.15 -2.508,0 -2.832,-1.039 -6.22,-1.039 -5.824,0 -7.845,4.541 -7.983,7.57 h 19.493 v 2.26 C 13.647,-6.126 8.295,0 0,0 m -5.87,-12.287 c 0,3.406 2.395,6.572 5.751,6.572 3.75,0 5.815,-3.263 5.875,-6.572 z" /></g><g
           transform="translate(208.3062,250.8018)"
           id="g66"><path
             id="path68"
             style="fill:#ad0000;fill-opacity:1;fill-rule:nonzero;stroke:none"
             d="M 0,0 C -6.559,0 -9.922,-4.327 -10.465,-4.973 -12.122,-1.854 -15.169,0 -19.157,0 c -5.779,0 -9.072,-3.354 -9.614,-3.897 -0.23,0.895 -1.416,3.347 -5.147,3.347 -1.072,0 -2.657,-0.346 -2.787,-0.378 0.156,-0.704 0.862,-4.116 0.862,-8.831 v -20.748 h 7.593 v 21.154 c 0.155,0.132 2.995,3.011 6.414,3.011 3.482,0 5.109,-2.55 5.109,-6.035 v -18.13 h 7.634 v 21.159 c 0.148,0.145 2.941,3.006 6.406,3.006 3.479,0 5.062,-2.55 5.062,-6.035 v -18.13 h 7.673 v 19.308 C 10.048,-4.41 6.195,0 0,0" /></g><g
           transform="translate(272.9551,219.626)"
           id="g70"><path
             id="path72"
             style="fill:#ad0000;fill-opacity:1;fill-rule:nonzero;stroke:none"
             d="m 0,0 c -4.893,0 -8.586,1.308 -11.05,2.802 l 2.464,5.564 c 2.23,-1.524 5.048,-2.701 8.02,-2.701 3.098,0 5.09,1.284 5.09,3.328 0,2.283 -3.419,3.431 -5.934,4.428 -3.676,1.488 -7.797,3.393 -7.797,8.928 0,5.156 4.121,8.82 11.294,8.82 5.366,0 9.067,-1.668 9.368,-1.798 0,0 -0.301,-0.903 -0.393,-1.221 -0.317,-1.039 -1.075,-3.614 -3.511,-3.614 -1.754,0 -2.837,0.836 -5.539,0.836 -2.423,0 -3.916,-1.026 -3.916,-2.646 0,-2.057 2.668,-2.912 5.655,-4.083 3.414,-1.361 8.336,-3.855 8.336,-9.345 C 12.087,2.618 6.422,0 0,0" /></g><g
           transform="translate(408.0625,225.7676)"
           id="g74"><path
             id="path76"
             style="fill:#ad0000;fill-opacity:1;fill-rule:nonzero;stroke:none"
             d="m 0,0 c -5.159,0 -8.837,4.082 -8.837,9.406 0,5.941 4.183,9.479 8.837,9.479 2.517,0 3.568,-0.766 5.232,-0.766 1.773,0 2.725,0.849 3.609,2.57 0.477,0.944 0.763,1.494 0.763,1.494 -0.369,0.246 -4.224,2.851 -10.755,2.851 -9.568,0 -15.296,-6.867 -15.296,-15.628 0,-9.554 6.544,-15.553 15.296,-15.553 6.35,0 10.202,2.591 10.873,3.077 L 7.087,2.128 C 6.496,1.746 3.791,0 0,0" /></g><g
           transform="translate(242.7202,226.8262)"
           id="g78"><path
             id="path80"
             style="fill:#ad0000;fill-opacity:1;fill-rule:nonzero;stroke:none"
             d="m 0,0 c -1.511,2.246 -3.291,4.888 -5.023,7.493 -0.568,0.831 -1.185,1.728 -1.806,2.653 -2.032,-1.529 -3.844,-3.369 -3.844,-6.004 0,-2.864 1.932,-5.307 6.041,-5.307 1.644,0 3.205,0.46 4.632,1.165 m 8.679,-0.974 c 1.295,-1.829 2.38,-3.34 3.166,-4.44 -0.208,-0.161 -0.533,-0.406 -0.788,-0.609 -0.616,-0.473 -1.884,-1.172 -3.496,-1.172 -2.208,0 -3.386,1.04 -3.988,1.936 -0.065,0.103 -0.145,0.203 -0.231,0.335 -2.527,-1.362 -5.522,-2.271 -8.948,-2.271 -7.505,0 -11.966,5.008 -11.966,10.864 0,5.558 3.816,8.695 7.618,11.259 -1.819,2.993 -3.211,5.986 -3.211,8.509 0,4.84 3.319,8.725 9.67,8.725 6.529,0 9.457,-3.819 9.457,-7.446 0,-4.387 -2.177,-6.949 -7.7,-10.972 0.801,-1.147 1.602,-2.258 2.334,-3.287 C 2.14,8.241 3.696,6.041 5.164,3.968 7.218,6.132 8.638,8.313 9.21,9.173 L 14.167,6.31 C 13.506,5.073 11.697,1.961 8.679,-0.974 M -4.727,18.364 c 2.982,2.073 4.519,3.633 4.519,5.503 0,1.399 -0.928,2.779 -3.235,2.779 -1.74,0 -3.129,-1.25 -3.129,-3.268 0,-1.345 0.747,-3.126 1.845,-5.014" /></g></g></g></g></svg>