<?xml version="1.0" encoding="UTF-8" standalone="no"?>
<svg
   xmlns:dc="http://purl.org/dc/elements/1.1/"
   xmlns:cc="http://creativecommons.org/ns#"
   xmlns:rdf="http://www.w3.org/1999/02/22-rdf-syntax-ns#"
   xmlns:svg="http://www.w3.org/2000/svg"
   xmlns="http://www.w3.org/2000/svg"
   viewBox="0 0 666.66669 666.66669"
   height="666.66669"
   width="666.66669"
   xml:space="preserve"
   id="svg2"
   version="1.1"><metadata
     id="metadata8"><rdf:RDF><cc:Work
         rdf:about=""><dc:format>image/svg+xml</dc:format><dc:type
           rdf:resource="http://purl.org/dc/dcmitype/StillImage" /></cc:Work></rdf:RDF></metadata><defs
     id="defs6"><clipPath
       id="clipPath18"
       clipPathUnits="userSpaceOnUse"><path
         id="path16"
         d="M 0,500 H 500 V 0 H 0 Z" /></clipPath></defs><g
     transform="matrix(1.3333333,0,0,-1.3333333,0,666.66667)"
     id="g10"><g
       id="g12"><g
         clip-path="url(#clipPath18)"
         id="g14"><g
           transform="translate(314.5839,236.6476)"
           id="g20"><path
             id="path22"
             style="fill:#e57735;fill-opacity:1;fill-rule:nonzero;stroke:none"
             d="m 0,0 c -1.164,-0.02 -2.312,-0.769 -3.043,-2.148 l -12.369,-32.543 h 7.695 l 9.94,26.399 8.835,-24.264 c 0.565,-1.357 1.887,-2.108 3.054,-2.135 h 5.564 L 6.111,0 Z" /></g><g
           transform="translate(327.9745,218.076)"
           id="g24"><path
             id="path26"
             style="fill:#e57735;fill-opacity:1;fill-rule:nonzero;stroke:none"
             d="m 0,0 h 9.116 v -30.231 h 1.978 c 3.02,0 5.482,2.46 5.482,5.481 V 18.572 H 9.116 V 5.223 L 0,5.223 Z" /></g><g
           transform="translate(430.6082,230.1542)"
           id="g28"><path
             id="path30"
             style="fill:#e57735;fill-opacity:1;fill-rule:nonzero;stroke:none"
             d="m 0,0 12.189,-16.858 c 0.998,-1.379 2.557,-2.128 4.137,-2.148 l 6.036,0.013 L 3.949,6.493 H -1.444 C -3.028,6.474 -4.587,5.73 -5.592,4.346 l -16.866,-23.339 h 8.737 z" /></g><path
           id="path32"
           style="fill:#e57735;fill-opacity:1;fill-rule:nonzero;stroke:none"
           d="M 405.996,199.016 H 455 v -5.218 h -49.004 z" /><g
           transform="translate(259.8407,207.4845)"
           id="g34"><path
             id="path36"
             style="fill:#e57735;fill-opacity:1;fill-rule:nonzero;stroke:none"
             d="M 0,0 C 7.998,0 12.365,6.861 12.365,15.323 12.365,23.771 7.998,30.63 0,30.63 -8.007,30.63 -12.374,23.771 -12.374,15.323 -12.374,6.861 -8.007,0 0,0 m -5.056,15.607 c 0,5.413 1.698,9.812 5.056,9.812 3.356,0 5.056,-4.399 5.056,-9.812 0,-5.429 -1.7,-9.829 -5.056,-9.829 -3.358,0 -5.056,4.4 -5.056,9.829" /></g><g
           transform="translate(265.5525,202.4568)"
           id="g38"><path
             id="path40"
             style="fill:#e57735;fill-opacity:1;fill-rule:nonzero;stroke:none"
             d="m 0,0 h -7.464 v -9.125 c 0,-3.021 2.463,-5.48 5.484,-5.48 h 29.623 v 5.224 H 0 Z" /></g><g
           transform="translate(284.7892,236.6476)"
           id="g42"><path
             id="path44"
             style="fill:#e57735;fill-opacity:1;fill-rule:nonzero;stroke:none"
             d="M 0,0 V -10.516 H -3.03 V 0 h -7.299 v -34.691 h 7.299 v 18.957 H 0 V -34.691 H 7.292 V 0 Z" /></g><g
           transform="translate(207.2703,208.6812)"
           id="g46"><path
             id="path48"
             style="fill:#e57735;fill-opacity:1;fill-rule:nonzero;stroke:none"
             d="m 0,0 c 7.994,0 12.357,6.576 12.357,14.715 0,8.12 -4.363,14.708 -12.357,14.708 -7.994,0 -12.352,-6.588 -12.352,-14.708 C -12.352,6.576 -7.994,0 0,0 m -5.052,14.993 c 0,5.205 1.702,9.428 5.052,9.428 3.358,0 5.043,-4.223 5.043,-9.428 C 5.043,9.767 3.358,5.542 0,5.542 c -3.35,0 -5.052,4.225 -5.052,9.451" /></g><g
           transform="translate(232.2063,220.9171)"
           id="g50"><path
             id="path52"
             style="fill:#e57735;fill-opacity:1;fill-rule:nonzero;stroke:none"
             d="M 0,0 V -11.472 H 7.288 V 15.727 L 0,15.727 V 5.219 Z" /></g><g
           transform="translate(229.176,220.9171)"
           id="g54"><path
             id="path56"
             style="fill:#e57735;fill-opacity:1;fill-rule:nonzero;stroke:none"
             d="M 0,0 V -11.472 H -7.288 V 15.727 H 0 V 5.219 Z" /></g><path
           id="path58"
           style="fill:#e57735;fill-opacity:1;fill-rule:nonzero;stroke:none"
           d="m 216.508,220.917 h 12.668 v 5.219 h -12.668 z" /><g
           transform="translate(205.5219,193.3291)"
           id="g60"><path
             id="path62"
             style="fill:#e57735;fill-opacity:1;fill-rule:nonzero;stroke:none"
             d="M 0,0 C 0,-3.015 2.463,-5.473 5.481,-5.473 H 28.49 c 3.024,0 5.482,2.458 5.482,5.473 V 13.057 H 0 Z M 26.516,-0.258 H 7.46 v 8.103 h 19.056 z" /></g><g
           transform="translate(398.8843,236.6476)"
           id="g64"><path
             id="path66"
             style="fill:#e57735;fill-opacity:1;fill-rule:nonzero;stroke:none"
             d="m 0,0 v -43.315 c 0,-3.028 -2.454,-5.481 -5.48,-5.481 h -1.974 l 0,48.796 z" /></g><g
           transform="translate(377.3653,236.6476)"
           id="g68"><path
             id="path70"
             style="fill:#e57735;fill-opacity:1;fill-rule:nonzero;stroke:none"
             d="M 0,0 V -29.46 H -14.876 V 0 h -7.452 v -29.197 c 0,-3.027 2.457,-5.473 5.48,-5.473 H 1.986 c 3.013,0 5.468,2.446 5.468,5.473 L 7.454,0 Z" /></g><path
           id="path72"
           style="fill:#e57735;fill-opacity:1;fill-rule:nonzero;stroke:none"
           d="m 379.238,224.279 h -18.657 v -5.223 h 18.657 z" /><g
           transform="translate(71.1203,225.2093)"
           id="g74"><path
             id="path76"
             style="fill:#c42c3a;fill-opacity:1;fill-rule:nonzero;stroke:none"
             d="m 0,0 c -5.149,2.412 -9.364,4.354 -9.364,8.286 0,3.003 2.406,5.18 7.147,5.18 1.742,0 3.173,-0.201 4.648,-0.473 0.771,-0.138 1.591,-0.248 2.276,-0.248 4.138,0 6.483,2.47 8.043,7.171 l 0.636,1.908 c -0.664,0.267 -7.428,3.242 -16.257,3.242 -14.056,0 -21.47,-9.011 -21.47,-18.358 0,-4.716 1.485,-8.131 3.789,-10.827 2.977,-3.463 7.229,-5.722 11.2,-7.649 5.788,-2.848 11.012,-4.949 11.012,-9.156 0,-3.737 -3.867,-5.866 -9.021,-5.866 -7.068,0 -13.254,4.042 -14.034,4.531 l -5.804,-10.877 c 1.034,-0.588 8.504,-5.338 20.819,-5.338 13.105,0.011 23.032,7.534 23.032,19.092 C 16.652,-7.866 7.45,-3.598 0,0" /></g><g
           transform="translate(122.394,219.8463)"
           id="g78"><path
             id="path80"
             style="fill:#c42c3a;fill-opacity:1;fill-rule:nonzero;stroke:none"
             d="M 0,0 23.784,29.158 H 6.84 L -12.134,4.001 h -0.284 v 25.157 h -13.955 v -61.773 h 0.821 c 6.053,0 13.227,2.793 13.227,12.88 v 14.196 h 0.286 L 7.294,-31.85 H 25.07 Z" /></g><g
           transform="translate(146.9623,315.1775)"
           id="g82"><path
             id="path84"
             style="fill:#c42c3a;fill-opacity:1;fill-rule:nonzero;stroke:none"
             d="m 0,0 c -4.909,-0.933 -12.199,-5.394 -12.174,-13.29 0.015,-7.168 5.878,-11.507 5.891,-20.905 0.035,-7.067 -3.867,-11.827 -8.07,-14.465 1.692,0.158 3.56,0.248 5.611,0.253 4.306,0.016 6.893,-0.398 7.059,-0.431 l 22.061,27.084 C 14.248,-12.592 7.092,-5.472 0,0" /></g><g
           transform="translate(165.5057,242.0695)"
           id="g86"><path
             id="path88"
             style="fill:#c42c3a;fill-opacity:1;fill-rule:nonzero;stroke:none"
             d="m 0,0 c 2.774,4.316 3.123,11.209 3.362,18.228 0.263,6.546 1.629,11.47 10.384,11.506 1.933,0 3.787,-0.267 7.132,-0.253 12.83,0.049 21.2,4.472 26.418,7.372 C 36.65,43.637 21.109,50.566 1.835,51.354 0.578,47.806 -9.192,20.641 -9.929,18.455 -9.814,18.318 -8.11,16.396 -5.968,12.661 -2.816,7.527 -1.128,3.171 0,0" /></g><g
           transform="translate(118.9077,264.2483)"
           id="g90"><path
             id="path92"
             style="fill:#e57735;fill-opacity:1;fill-rule:nonzero;stroke:none"
             d="m 0,0 c -1.114,-0.004 -1.673,0.738 -1.828,2.03 -0.139,1.272 -5.653,51.757 -6.475,59.388 -0.116,1.111 -0.399,3.156 -0.403,3.896 0,1.172 0.771,1.782 1.666,1.782 C -4.419,67.11 9.829,63.771 24.944,53.18 20.592,51.948 12.708,47.422 12.735,38.037 12.771,29.732 18.711,25.165 18.753,16.835 18.796,3.285 3.215,0.013 0,0" /></g><g
           transform="translate(166.7665,238.4655)"
           id="g94"><path
             id="path96"
             style="fill:#e57735;fill-opacity:1;fill-rule:nonzero;stroke:none"
             d="m 0,0 c 0.242,-0.63 0.464,-1.158 0.685,-1.524 0.345,-0.601 0.807,-0.857 1.356,-0.853 0.355,0 0.786,0.116 1.26,0.332 1.167,0.525 47.24,21.982 54.176,25.176 1.009,0.498 2.911,1.338 3.55,1.717 0.653,0.378 0.952,0.91 0.952,1.456 -0.004,0.319 -0.091,0.626 -0.269,0.908 -0.87,1.404 -5.327,6.136 -12.777,11.306 -5.914,-3.262 -15.15,-8.291 -28.893,-8.352 -3.375,0 -4.132,0.23 -6.433,0.215 C 6.893,30.354 5.224,27.487 4.981,21.611 4.938,20.493 4.909,19.006 4.857,17.367 4.644,12.098 4.016,4.852 0,0" /></g></g></g></g></svg>