<?xml version="1.0" encoding="UTF-8" standalone="no"?>
<!-- Created with Inkscape (http://www.inkscape.org/) -->

<svg
   version="1.1"
   id="svg2"
   xml:space="preserve"
   width="1333.3333"
   height="2025.3333"
   viewBox="0 0 1333.3333 2025.3333"
   sodipodi:docname="viewguard_LOGO.ai"
   xmlns:inkscape="http://www.inkscape.org/namespaces/inkscape"
   xmlns:sodipodi="http://sodipodi.sourceforge.net/DTD/sodipodi-0.dtd"
   xmlns="http://www.w3.org/2000/svg"
   xmlns:svg="http://www.w3.org/2000/svg"><defs
     id="defs6"><clipPath
       clipPathUnits="userSpaceOnUse"
       id="clipPath16"><path
         d="M 0,1519 H 1000 V 0 H 0 Z"
         id="path14" /></clipPath><clipPath
       clipPathUnits="userSpaceOnUse"
       id="clipPath246"><path
         d="M 0,1519 H 1000 V 0 H 0 Z"
         id="path244" /></clipPath><clipPath
       clipPathUnits="userSpaceOnUse"
       id="clipPath310"><path
         d="M 0,1519 H 1000 V 0 H 0 Z"
         id="path308" /></clipPath></defs><sodipodi:namedview
     id="namedview4"
     pagecolor="#ffffff"
     bordercolor="#666666"
     borderopacity="1.0"
     inkscape:pageshadow="2"
     inkscape:pageopacity="0.0"
     inkscape:pagecheckerboard="0" /><g
     id="g8"
     inkscape:groupmode="layer"
     inkscape:label="viewguard_LOGO"
     transform="matrix(1.3333333,0,0,-1.3333333,0,2025.3333)"><g
       id="g10"><g
         id="g12"
         clip-path="url(#clipPath16)"><g
           id="g18"
           transform="translate(387.0688,1301.6826)"><path
             d="m 0,0 c 0.014,0.537 0.041,1.071 0.041,1.611 0,33.354 -27.032,60.391 -60.377,60.391 -26.769,0 -49.455,-17.431 -57.367,-41.56 -4.614,3.275 -10.249,5.207 -16.337,5.207 -14.198,0 -25.949,-10.471 -27.962,-24.113 -17.77,-4.211 -31.001,-20.254 -31.001,-39.415 0,-22.37 18.027,-40.503 40.264,-40.503 h 138.47 c 22.238,0 40.266,18.133 40.266,40.503 C 25.997,-20.564 15.193,-5.795 0,0"
             style="fill:#16509b;fill-opacity:1;fill-rule:evenodd;stroke:none"
             id="path20" /></g><g
           id="g22"
           transform="translate(326.3276,1355.5313)"><path
             d="m 0,0 c -28.252,0 -51.154,-22.894 -51.154,-51.134 0,-28.241 22.902,-51.133 51.154,-51.133 28.252,0 51.155,22.892 51.155,51.133 C 51.155,-22.894 28.252,0 0,0 m 0,-1.02 c 27.645,0 50.136,-22.481 50.136,-50.114 0,-27.633 -22.491,-50.114 -50.136,-50.114 -27.645,0 -50.134,22.481 -50.134,50.114 0,27.633 22.489,50.114 50.134,50.114"
             style="fill:#ffffff;fill-opacity:1;fill-rule:nonzero;stroke:none"
             id="path24" /></g><g
           id="g26"
           transform="translate(326.3281,1347.73)"><path
             d="m 0,0 c 23.937,0 43.344,-19.401 43.344,-43.333 0,-23.932 -19.407,-43.332 -43.344,-43.332 -23.938,0 -43.344,19.4 -43.344,43.332 C -43.344,-19.401 -23.938,0 0,0"
             style="fill:#ffffff;fill-opacity:1;fill-rule:evenodd;stroke:none"
             id="path28" /></g><g
           id="g30"
           transform="translate(325.2847,1332.2012)"><path
             d="m 0,0 c -15.458,0 -27.988,-12.531 -27.988,-27.986 0,-15.456 12.53,-27.986 27.988,-27.986 15.457,0 27.987,12.53 27.987,27.986 C 27.987,-12.531 15.457,0 0,0 m 0,-6.117 c 12.058,0 21.868,-9.811 21.868,-21.869 0,-12.059 -9.81,-21.868 -21.868,-21.868 -12.059,0 -21.869,9.809 -21.869,21.868 0,12.058 9.81,21.869 21.869,21.869"
             style="fill:#16509b;fill-opacity:1;fill-rule:nonzero;stroke:none"
             id="path32" /></g><g
           id="g34"
           transform="translate(311.5332,1307.0049)"><path
             d="M 0,0 C 1.303,4.863 5.122,8.685 9.962,9.958"
             style="fill:none;stroke:#16509b;stroke-width:3;stroke-linecap:round;stroke-linejoin:miter;stroke-miterlimit:10;stroke-dasharray:none;stroke-opacity:1"
             id="path36" /></g><g
           id="g38"
           transform="translate(371.7192,1272.5913)"><path
             d="m 0,0 c 0,-2.864 -2.321,-5.184 -5.184,-5.184 -2.863,0 -5.185,2.32 -5.185,5.184 0,2.861 2.322,5.183 5.185,5.183 C -2.321,5.183 0,2.861 0,0"
             style="fill:#ffffff;fill-opacity:1;fill-rule:evenodd;stroke:none"
             id="path40" /></g><path
           d="m 224.899,1197.86 h -13.376 v -3.247 h 13.376 z m 4.588,-6.953 h -22.588 v 14.188 h 4.624 v -3.565 h 13.376 v 3.565 h 4.588 z m 3.494,-6.812 h -6.564 v -10.376 h -4.694 v 10.376 h -6.953 v -10.376 h -4.659 v 10.376 h -6.565 v 3.741 h 29.435 z"
           style="fill:#16509b;fill-opacity:1;fill-rule:nonzero;stroke:none"
           id="path42" /><g
           id="g44"
           transform="translate(264.604,1190.0244)"><path
             d="m 0,0 h -4.553 v -16.2 h -4.658 v 32.471 h 4.658 V 3.847 l 4.553,0 z m -13.2,12.917 c 0,-9.74 -3.706,-18.105 -14.506,-23.575 l -2.611,3.564 c 7.553,3.883 11.576,9.035 12.423,16.235 h -10.623 v 3.776 z"
             style="fill:#16509b;fill-opacity:1;fill-rule:nonzero;stroke:none"
             id="path46" /></g><g
           id="g48"
           transform="translate(291.9565,1187.5542)"><path
             d="M 0,0 H -22.871 V 16.023 H -0.247 V 12.247 H -18.211 V 3.706 L 0,3.706 Z m 3.141,-9.917 h -29.435 v 3.812 H 3.141 Z"
             style="fill:#16509b;fill-opacity:1;fill-rule:nonzero;stroke:none"
             id="path50" /></g><g
           id="g52"
           transform="translate(310.6948,1189.3423)"><path
             d="m 0,0 c 0,8.868 5.406,14.302 12.759,14.302 3.538,0 6.241,-1.623 7.91,-3.359 L 18.841,8.905 c -1.51,1.585 -3.498,2.642 -6.042,2.642 -5.684,0 -9.421,-4.378 -9.421,-11.471 0,-7.133 3.578,-11.623 9.302,-11.623 2.822,0 4.968,1.132 6.877,3.17 l 1.828,-1.962 c -2.266,-2.529 -5.088,-3.963 -8.864,-3.963 C 5.326,-14.302 0,-8.943 0,0"
             style="fill:#16509b;fill-opacity:1;fill-rule:nonzero;stroke:none"
             id="path54" /></g><g
           id="g56"
           transform="translate(335.7383,1179.2671)"><path
             d="M 0,0 V 26.301 H 3.22 V -0.227 c 0,-1.018 0.437,-1.434 0.993,-1.434 0.199,0 0.358,0 0.755,0.076 L 5.445,-3.962 C 4.929,-4.113 4.412,-4.227 3.498,-4.227 1.033,-4.227 0,-2.717 0,0"
             style="fill:#16509b;fill-opacity:1;fill-rule:nonzero;stroke:none"
             id="path58" /></g><g
           id="g60"
           transform="translate(359.9854,1185.6821)"><path
             d="m 0,0 c 0,4.868 -2.703,8.15 -6.559,8.15 -3.855,0 -6.518,-3.282 -6.518,-8.15 0,-4.83 2.663,-8.076 6.518,-8.076 C -2.703,-8.076 0,-4.83 0,0 m -16.416,0 c 0,6.83 4.611,10.754 9.857,10.754 5.247,0 9.898,-3.924 9.898,-10.754 0,-6.717 -4.651,-10.642 -9.898,-10.642 -5.246,0 -9.857,3.925 -9.857,10.642"
             style="fill:#16509b;fill-opacity:1;fill-rule:nonzero;stroke:none"
             id="path62" /></g><g
           id="g64"
           transform="translate(367.2607,1182.9648)"><path
             d="M 0,0 V 12.943 H 3.22 V 0.377 c 0,-3.924 1.232,-5.622 4.253,-5.622 2.266,0 3.896,1.094 6.042,3.585 v 14.603 h 3.219 V -7.434 h -2.663 l -0.278,3.246 H 13.674 C 11.646,-6.415 9.5,-7.924 6.519,-7.924 2.027,-7.924 0,-5.207 0,0"
             style="fill:#16509b;fill-opacity:1;fill-rule:nonzero;stroke:none"
             id="path66" /></g><g
           id="g68"
           transform="translate(403.6333,1180.5498)"><path
             d="m 0,0 v 11.019 c -1.948,1.623 -3.617,2.264 -5.485,2.264 -3.658,0 -6.48,-3.359 -6.48,-8.113 0,-5.019 2.226,-8.075 6.161,-8.075 2.068,0 3.896,0.981 5.804,2.905 m -15.343,5.132 c 0,6.604 4.412,10.755 9.341,10.755 2.544,0 4.213,-0.906 6.161,-2.415 L 0,17.019 v 8 H 3.22 V -5.019 H 0.556 L 0.238,-2.566 H 0.159 c -1.709,-1.622 -4.015,-2.943 -6.638,-2.943 -5.406,0 -8.864,3.849 -8.864,10.641"
             style="fill:#16509b;fill-opacity:1;fill-rule:nonzero;stroke:none"
             id="path70" /></g><g
           id="g72"
           transform="translate(644.2871,1298.9111)"><path
             d="m 0,0 c 0.004,0.163 0.024,0.321 0.024,0.484 0,9.88 -8.006,17.889 -17.883,17.889 -7.932,0 -14.647,-5.169 -16.989,-12.319 -1.368,0.973 -3.037,1.551 -4.842,1.551 -4.207,0 -7.68,-3.107 -8.275,-7.149 -5.266,-1.246 -9.191,-5.991 -9.191,-11.669 0,-6.626 5.34,-11.997 11.927,-11.997 h 41.015 c 6.587,0 11.927,5.371 11.927,11.997 C 7.713,-6.081 4.504,-1.714 0,0"
             style="fill:#16509b;fill-opacity:1;fill-rule:evenodd;stroke:none"
             id="path74" /></g><g
           id="g76"
           transform="translate(626.3076,1314.8687)"><path
             d="m 0,0 c -8.368,0 -15.152,-6.781 -15.152,-15.146 0,-8.365 6.784,-15.146 15.152,-15.146 8.368,0 15.152,6.781 15.152,15.146 C 15.152,-6.781 8.368,0 0,0 m 0,-0.302 c 8.188,0 14.851,-6.659 14.851,-14.844 0,-8.185 -6.663,-14.844 -14.851,-14.844 -8.188,0 -14.85,6.659 -14.85,14.844 0,8.185 6.662,14.844 14.85,14.844"
             style="fill:#ffffff;fill-opacity:1;fill-rule:nonzero;stroke:none"
             id="path78" /></g><g
           id="g80"
           transform="translate(626.3076,1312.5581)"><path
             d="m 0,0 c 7.091,0 12.839,-5.747 12.839,-12.836 0,-7.088 -5.748,-12.835 -12.839,-12.835 -7.09,0 -12.839,5.747 -12.839,12.835 C -12.839,-5.747 -7.09,0 0,0"
             style="fill:#ffffff;fill-opacity:1;fill-rule:evenodd;stroke:none"
             id="path82" /></g><g
           id="g84"
           transform="translate(625.999,1307.9585)"><path
             d="m 0,0 c -4.579,0 -8.29,-3.712 -8.29,-8.29 0,-4.578 3.711,-8.29 8.29,-8.29 4.578,0 8.29,3.712 8.29,8.29 C 8.29,-3.712 4.578,0 0,0 m 0,-1.812 c 3.571,0 6.478,-2.906 6.478,-6.478 0,-3.572 -2.907,-6.478 -6.478,-6.478 -3.572,0 -6.478,2.906 -6.478,6.478 0,3.572 2.906,6.478 6.478,6.478"
             style="fill:#16509b;fill-opacity:1;fill-rule:nonzero;stroke:none"
             id="path86" /></g><g
           id="g88"
           transform="translate(621.9258,1300.4951)"><path
             d="M 0,0 C 0.386,1.44 1.517,2.572 2.95,2.949"
             style="fill:none;stroke:#16509b;stroke-width:3;stroke-linecap:round;stroke-linejoin:miter;stroke-miterlimit:10;stroke-dasharray:none;stroke-opacity:1"
             id="path90" /></g><g
           id="g92"
           transform="translate(639.7529,1290.3013)"><path
             d="m 0,0 c 0,-0.848 -0.687,-1.535 -1.535,-1.535 -0.849,0 -1.536,0.687 -1.536,1.535 0,0.848 0.687,1.535 1.536,1.535 C -0.687,1.535 0,0.848 0,0"
             style="fill:#ffffff;fill-opacity:1;fill-rule:evenodd;stroke:none"
             id="path94" /></g><path
           d="m 687.547,1301.123 h -11.416 v -2.771 h 11.416 z m 3.915,-5.934 h -19.277 v 12.109 h 3.946 v -3.042 h 11.416 v 3.042 h 3.915 z m 2.982,-5.813 h -5.602 v -8.855 h -4.006 v 8.855 h -5.934 v -8.855 h -3.976 v 8.855 h -5.603 v 3.193 h 25.121 z"
           style="fill:#16509b;fill-opacity:1;fill-rule:nonzero;stroke:none"
           id="path96" /><g
           id="g98"
           transform="translate(721.4258,1294.4365)"><path
             d="m 0,0 h -3.885 v -13.826 h -3.976 v 27.712 h 3.976 V 3.283 l 3.885,0 z m -11.265,11.024 c 0,-8.313 -3.163,-15.452 -12.38,-20.121 l -2.228,3.043 c 6.445,3.313 9.879,7.711 10.602,13.855 h -9.066 v 3.223 z"
             style="fill:#16509b;fill-opacity:1;fill-rule:nonzero;stroke:none"
             id="path100" /></g><g
           id="g102"
           transform="translate(744.7637,1292.3281)"><path
             d="M 0,0 H -19.519 V 13.675 H -0.211 V 10.452 H -15.543 V 3.163 L 0,3.163 Z M 2.681,-8.464 H -22.44 v 3.253 H 2.681 Z"
             style="fill:#16509b;fill-opacity:1;fill-rule:nonzero;stroke:none"
             id="path104" /></g><g
           id="g106"
           transform="translate(756.1221,1293.8506)"><path
             d="m 0,0 c 0,7.566 4.613,12.202 10.889,12.202 3.018,0 5.325,-1.384 6.75,-2.865 L 16.078,7.598 c -1.288,1.353 -2.984,2.254 -5.155,2.254 -4.851,0 -8.039,-3.735 -8.039,-9.788 0,-6.085 3.053,-9.916 7.937,-9.916 2.408,0 4.24,0.966 5.868,2.705 l 1.56,-1.675 c -1.933,-2.157 -4.342,-3.38 -7.563,-3.38 C 4.546,-12.202 0,-7.63 0,0"
             style="fill:#16509b;fill-opacity:1;fill-rule:nonzero;stroke:none"
             id="path108" /></g><g
           id="g110"
           transform="translate(777.4902,1285.2544)"><path
             d="M 0,0 V 22.44 H 2.747 V -0.193 c 0,-0.869 0.373,-1.224 0.849,-1.224 0.169,0 0.304,0 0.644,0.064 L 4.646,-3.381 C 4.206,-3.509 3.765,-3.606 2.984,-3.606 0.882,-3.606 0,-2.318 0,0"
             style="fill:#16509b;fill-opacity:1;fill-rule:nonzero;stroke:none"
             id="path112" /></g><g
           id="g114"
           transform="translate(798.1807,1290.7275)"><path
             d="m 0,0 c 0,4.153 -2.307,6.955 -5.597,6.955 -3.29,0 -5.562,-2.802 -5.562,-6.955 0,-4.121 2.272,-6.89 5.562,-6.89 C -2.307,-6.89 0,-4.121 0,0 m -14.009,0 c 0,5.828 3.935,9.176 8.412,9.176 4.478,0 8.447,-3.348 8.447,-9.176 0,-5.731 -3.969,-9.079 -8.447,-9.079 -4.477,0 -8.412,3.348 -8.412,9.079"
             style="fill:#16509b;fill-opacity:1;fill-rule:nonzero;stroke:none"
             id="path116" /></g><g
           id="g118"
           transform="translate(804.3867,1288.4097)"><path
             d="M 0,0 V 11.043 H 2.747 V 0.322 c 0,-3.348 1.052,-4.798 3.63,-4.798 1.934,0 3.324,0.934 5.156,3.059 v 12.46 H 14.28 V -6.343 h -2.272 l -0.237,2.769 H 11.669 C 9.938,-5.474 8.106,-6.761 5.562,-6.761 1.729,-6.761 0,-4.443 0,0"
             style="fill:#16509b;fill-opacity:1;fill-rule:nonzero;stroke:none"
             id="path120" /></g><g
           id="g122"
           transform="translate(835.4219,1286.3491)"><path
             d="m 0,0 v 9.401 c -1.662,1.385 -3.087,1.932 -4.681,1.932 -3.121,0 -5.529,-2.866 -5.529,-6.922 0,-4.283 1.899,-6.89 5.258,-6.89 1.764,0 3.324,0.837 4.952,2.479 m -13.093,4.378 c 0,5.635 3.765,9.176 7.971,9.176 2.171,0 3.596,-0.772 5.258,-2.06 L 0,14.52 v 6.826 H 2.748 V -4.282 H 0.475 L 0.204,-2.189 H 0.136 c -1.459,-1.385 -3.426,-2.512 -5.665,-2.512 -4.613,0 -7.564,3.284 -7.564,9.079"
             style="fill:#16509b;fill-opacity:1;fill-rule:nonzero;stroke:none"
             id="path124" /></g><g
           id="g126"
           transform="translate(387.0688,800.6826)"><path
             d="m 0,0 c 0.014,0.537 0.041,1.07 0.041,1.611 0,33.354 -27.032,60.391 -60.377,60.391 -26.769,0 -49.455,-17.431 -57.367,-41.56 -4.614,3.276 -10.249,5.207 -16.337,5.207 -14.198,0 -25.949,-10.47 -27.962,-24.113 -17.77,-4.211 -31.001,-20.254 -31.001,-39.415 0,-22.369 18.027,-40.504 40.264,-40.504 h 138.47 c 22.238,0 40.266,18.135 40.266,40.504 C 25.997,-20.564 15.193,-5.795 0,0"
             style="fill:#16509b;fill-opacity:1;fill-rule:evenodd;stroke:none"
             id="path128" /></g><g
           id="g130"
           transform="translate(326.3276,854.5312)"><path
             d="m 0,0 c -28.252,0 -51.154,-22.894 -51.154,-51.134 0,-28.241 22.902,-51.134 51.154,-51.134 28.252,0 51.155,22.893 51.155,51.134 C 51.155,-22.894 28.252,0 0,0 m 0,-1.02 c 27.645,0 50.136,-22.481 50.136,-50.114 0,-27.634 -22.491,-50.114 -50.136,-50.114 -27.645,0 -50.134,22.48 -50.134,50.114 0,27.633 22.489,50.114 50.134,50.114"
             style="fill:#ffffff;fill-opacity:1;fill-rule:nonzero;stroke:none"
             id="path132" /></g><g
           id="g134"
           transform="translate(326.3281,846.7305)"><path
             d="m 0,0 c 23.937,0 43.344,-19.402 43.344,-43.334 0,-23.932 -19.407,-43.331 -43.344,-43.331 -23.938,0 -43.344,19.399 -43.344,43.331 C -43.344,-19.402 -23.938,0 0,0"
             style="fill:#ffffff;fill-opacity:1;fill-rule:evenodd;stroke:none"
             id="path136" /></g><g
           id="g138"
           transform="translate(325.2847,831.2012)"><path
             d="m 0,0 c -15.458,0 -27.988,-12.53 -27.988,-27.986 0,-15.456 12.53,-27.986 27.988,-27.986 15.457,0 27.987,12.53 27.987,27.986 C 27.987,-12.53 15.457,0 0,0 m 0,-6.117 c 12.058,0 21.868,-9.811 21.868,-21.869 0,-12.059 -9.81,-21.868 -21.868,-21.868 -12.059,0 -21.869,9.809 -21.869,21.868 0,12.058 9.81,21.869 21.869,21.869"
             style="fill:#16509b;fill-opacity:1;fill-rule:nonzero;stroke:none"
             id="path140" /></g><g
           id="g142"
           transform="translate(311.5332,806.0049)"><path
             d="M 0,0 C 1.303,4.863 5.122,8.685 9.962,9.957"
             style="fill:none;stroke:#16509b;stroke-width:3;stroke-linecap:round;stroke-linejoin:miter;stroke-miterlimit:10;stroke-dasharray:none;stroke-opacity:1"
             id="path144" /></g><g
           id="g146"
           transform="translate(371.7192,771.5908)"><path
             d="m 0,0 c 0,-2.863 -2.321,-5.184 -5.184,-5.184 -2.863,0 -5.185,2.321 -5.185,5.184 0,2.862 2.322,5.183 5.185,5.183 C -2.321,5.183 0,2.862 0,0"
             style="fill:#ffffff;fill-opacity:1;fill-rule:evenodd;stroke:none"
             id="path148" /></g><path
           d="M 225.157,696.651 H 211.81 v -3.239 h 13.347 z m 4.578,-6.937 h -22.539 v 14.157 h 4.614 v -3.557 h 13.347 v 3.557 h 4.578 z m 3.487,-6.797 h -6.551 v -10.354 h -4.683 v 10.354 h -6.938 v -10.354 h -4.649 v 10.354 h -6.55 v 3.733 h 29.371 z"
           style="fill:#16509b;fill-opacity:1;fill-rule:nonzero;stroke:none"
           id="path150" /><g
           id="g152"
           transform="translate(264.7715,688.833)"><path
             d="m 0,0 h -4.543 v -16.164 h -4.649 v 32.399 h 4.649 V 3.839 l 4.543,0 z m -13.171,12.89 c 0,-9.72 -3.698,-18.067 -14.475,-23.525 l -2.606,3.557 c 7.537,3.874 11.551,9.015 12.397,16.2 h -10.601 v 3.768 z"
             style="fill:#16509b;fill-opacity:1;fill-rule:nonzero;stroke:none"
             id="path154" /></g><g
           id="g156"
           transform="translate(292.0596,686.3682)"><path
             d="M 0,0 H -22.82 V 15.988 H -0.246 V 12.221 H -18.172 V 3.698 L 0,3.698 Z m 3.135,-9.896 h -29.372 v 3.803 H 3.135 Z"
             style="fill:#16509b;fill-opacity:1;fill-rule:nonzero;stroke:none"
             id="path158" /></g><g
           id="g160"
           transform="translate(328.4546,682.6367)"><path
             d="m 0,0 c -0.369,-2.992 -1.532,-5.302 -3.49,-6.927 -1.959,-1.626 -4.562,-2.438 -7.809,-2.438 -3.521,0 -6.343,1.198 -8.465,3.594 -2.122,2.396 -3.182,5.602 -3.182,9.618 v 2.719 c 0,2.63 0.494,4.942 1.484,6.937 0.989,1.994 2.391,3.526 4.206,4.595 1.815,1.068 3.917,1.603 6.305,1.603 3.165,0 5.703,-0.839 7.614,-2.516 C -1.426,15.507 -0.314,13.186 0,10.22 h -3.951 c -0.341,2.259 -1.081,3.897 -2.221,4.91 -1.139,1.014 -2.732,1.52 -4.779,1.52 -2.511,0 -4.48,-0.881 -5.906,-2.644 -1.426,-1.764 -2.139,-4.272 -2.139,-7.526 V 3.738 c 0,-3.072 0.676,-5.515 2.027,-7.331 1.351,-1.814 3.24,-2.721 5.67,-2.721 2.183,0 3.858,0.468 5.025,1.408 1.167,0.939 1.941,2.574 2.323,4.906 z"
             style="fill:#16509b;fill-opacity:1;fill-rule:nonzero;stroke:none"
             id="path162" /></g><path
           d="m 336.5,673.66 h -3.787 v 29.843 h 3.787 z"
           style="fill:#16509b;fill-opacity:1;fill-rule:nonzero;stroke:none"
           id="path164" /><g
           id="g166"
           transform="translate(344.5244,683.9385)"><path
             d="m 0,0 c 0,-2.332 0.57,-4.204 1.709,-5.615 1.14,-1.412 2.665,-2.118 4.575,-2.118 1.924,0 3.452,0.715 4.586,2.147 1.132,1.431 1.698,3.436 1.698,6.013 0,2.305 -0.576,4.174 -1.729,5.605 C 9.686,7.464 8.154,8.18 6.243,8.18 4.374,8.18 2.866,7.474 1.72,6.062 0.573,4.649 0,2.629 0,0 m -3.807,0.427 c 0,2.059 0.426,3.912 1.279,5.556 0.853,1.646 2.04,2.915 3.562,3.809 1.521,0.894 3.258,1.341 5.209,1.341 3.016,0 5.455,-0.991 7.318,-2.973 1.863,-1.982 2.794,-4.618 2.794,-7.908 V 0 c 0,-2.047 -0.413,-3.883 -1.238,-5.509 -0.826,-1.625 -2.006,-2.891 -3.541,-3.798 -1.535,-0.907 -3.3,-1.36 -5.292,-1.36 -3.002,0 -5.434,0.991 -7.297,2.973 -1.863,1.981 -2.794,4.604 -2.794,7.869 z"
             style="fill:#16509b;fill-opacity:1;fill-rule:nonzero;stroke:none"
             id="path168" /></g><g
           id="g170"
           transform="translate(378.4639,675.7393)"><path
             d="m 0,0 c -1.474,-1.646 -3.637,-2.468 -6.489,-2.468 -2.361,0 -4.159,0.652 -5.394,1.953 -1.235,1.302 -1.859,3.228 -1.873,5.78 v 13.678 h 3.787 V 5.362 c 0,-3.186 1.365,-4.779 4.094,-4.779 2.893,0 4.817,1.022 5.772,3.069 V 18.943 H 3.684 V -2.079 H 0.082 Z"
             style="fill:#16509b;fill-opacity:1;fill-rule:nonzero;stroke:none"
             id="path172" /></g><g
           id="g174"
           transform="translate(389.9277,683.9385)"><path
             d="m 0,0 c 0,-2.384 0.519,-4.249 1.556,-5.596 1.037,-1.347 2.469,-2.02 4.298,-2.02 2.402,0 4.156,1.022 5.261,3.069 V 5.109 C 9.982,7.091 8.242,8.082 5.895,8.082 4.039,8.082 2.593,7.402 1.556,6.042 0.519,4.682 0,2.668 0,0 m -3.787,0.407 c 0,3.226 0.805,5.82 2.415,7.782 1.611,1.962 3.719,2.944 6.326,2.944 2.592,0 4.646,-0.843 6.161,-2.527 v 10.958 h 3.787 v -29.842 h -3.48 l -0.184,2.254 c -1.515,-1.762 -3.623,-2.643 -6.325,-2.643 -2.566,0 -4.657,0.997 -6.274,2.992 -1.618,1.994 -2.426,4.598 -2.426,7.811 z"
             style="fill:#16509b;fill-opacity:1;fill-rule:nonzero;stroke:none"
             id="path176" /></g><g
           id="g178"
           transform="translate(644.2871,797.9111)"><path
             d="m 0,0 c 0.004,0.162 0.024,0.321 0.024,0.484 0,9.88 -8.006,17.889 -17.883,17.889 -7.932,0 -14.647,-5.169 -16.989,-12.319 -1.368,0.972 -3.037,1.55 -4.842,1.55 -4.207,0 -7.68,-3.106 -8.275,-7.148 -5.266,-1.246 -9.191,-5.991 -9.191,-11.669 0,-6.626 5.34,-11.997 11.927,-11.997 h 41.015 c 6.587,0 11.927,5.371 11.927,11.997 C 7.713,-6.081 4.504,-1.715 0,0"
             style="fill:#16509b;fill-opacity:1;fill-rule:evenodd;stroke:none"
             id="path180" /></g><g
           id="g182"
           transform="translate(626.3076,813.8691)"><path
             d="m 0,0 c -8.368,0 -15.152,-6.781 -15.152,-15.146 0,-8.366 6.784,-15.147 15.152,-15.147 8.368,0 15.152,6.781 15.152,15.147 C 15.152,-6.781 8.368,0 0,0 m 0,-0.303 c 8.188,0 14.851,-6.659 14.851,-14.843 0,-8.186 -6.663,-14.844 -14.851,-14.844 -8.188,0 -14.85,6.658 -14.85,14.844 0,8.184 6.662,14.843 14.85,14.843"
             style="fill:#ffffff;fill-opacity:1;fill-rule:nonzero;stroke:none"
             id="path184" /></g><g
           id="g186"
           transform="translate(626.3076,811.5576)"><path
             d="M 0,0 C 7.091,0 12.839,-5.746 12.839,-12.835 12.839,-19.924 7.091,-25.67 0,-25.67 c -7.09,0 -12.839,5.746 -12.839,12.835 C -12.839,-5.746 -7.09,0 0,0"
             style="fill:#ffffff;fill-opacity:1;fill-rule:evenodd;stroke:none"
             id="path188" /></g><g
           id="g190"
           transform="translate(625.999,806.958)"><path
             d="m 0,0 c -4.579,0 -8.29,-3.711 -8.29,-8.29 0,-4.577 3.711,-8.289 8.29,-8.289 4.578,0 8.29,3.712 8.29,8.289 C 8.29,-3.711 4.578,0 0,0 m 0,-1.812 c 3.571,0 6.478,-2.906 6.478,-6.478 0,-3.571 -2.907,-6.477 -6.478,-6.477 -3.572,0 -6.478,2.906 -6.478,6.477 0,3.572 2.906,6.478 6.478,6.478"
             style="fill:#16509b;fill-opacity:1;fill-rule:nonzero;stroke:none"
             id="path192" /></g><g
           id="g194"
           transform="translate(621.9258,799.4951)"><path
             d="M 0,0 C 0.386,1.44 1.517,2.572 2.95,2.949"
             style="fill:none;stroke:#16509b;stroke-width:3;stroke-linecap:round;stroke-linejoin:miter;stroke-miterlimit:10;stroke-dasharray:none;stroke-opacity:1"
             id="path196" /></g><g
           id="g198"
           transform="translate(639.7529,789.3018)"><path
             d="m 0,0 c 0,-0.849 -0.687,-1.536 -1.535,-1.536 -0.849,0 -1.536,0.687 -1.536,1.536 0,0.848 0.687,1.535 1.536,1.535 C -0.687,1.535 0,0.848 0,0"
             style="fill:#ffffff;fill-opacity:1;fill-rule:evenodd;stroke:none"
             id="path200" /></g><g
           id="g202"
           transform="translate(127,1062.5)"><path
             d="M 0,0 H 811"
             style="fill:none;stroke:#a8a8a8;stroke-width:1;stroke-linecap:butt;stroke-linejoin:miter;stroke-miterlimit:10;stroke-dasharray:none;stroke-opacity:1"
             id="path204" /></g><path
           d="m 687.705,802.137 h -11.913 v -2.892 h 11.913 z m 4.087,-6.193 h -20.117 v 12.636 h 4.117 v -3.175 h 11.913 v 3.175 h 4.087 z m 3.111,-6.066 h -5.845 v -9.241 h -4.181 v 9.241 h -6.192 v -9.241 h -4.15 v 9.241 h -5.847 v 3.332 h 26.215 z"
           style="fill:#16509b;fill-opacity:1;fill-rule:nonzero;stroke:none"
           id="path206" /><g
           id="g208"
           transform="translate(723.0615,795.1582)"><path
             d="m 0,0 h -4.055 v -14.428 h -4.149 v 28.919 h 4.149 V 3.427 l 4.055,0 z m -11.756,11.505 c 0,-8.676 -3.3,-16.125 -12.919,-20.997 l -2.326,3.175 c 6.727,3.457 10.311,8.046 11.064,14.459 h -9.46 v 3.363 z"
             style="fill:#16509b;fill-opacity:1;fill-rule:nonzero;stroke:none"
             id="path210" /></g><g
           id="g212"
           transform="translate(747.417,792.958)"><path
             d="M 0,0 H -20.369 V 14.271 H -0.221 V 10.907 H -16.22 V 3.301 H 0 Z m 2.797,-8.833 h -26.215 v 3.396 H 2.797 Z"
             style="fill:#16509b;fill-opacity:1;fill-rule:nonzero;stroke:none"
             id="path214" /></g><g
           id="g216"
           transform="translate(779.8975,789.6279)"><path
             d="m 0,0 c -0.328,-2.671 -1.367,-4.731 -3.114,-6.183 -1.748,-1.45 -4.072,-2.175 -6.97,-2.175 -3.143,0 -5.661,1.069 -7.555,3.208 -1.893,2.138 -2.84,5 -2.84,8.583 V 5.86 c 0,2.347 0.441,4.411 1.325,6.192 0.883,1.779 2.133,3.146 3.754,4.1 1.619,0.954 3.495,1.431 5.627,1.431 2.825,0 5.09,-0.749 6.795,-2.246 C -1.272,13.84 -0.28,11.768 0,9.121 h -3.525 c -0.305,2.018 -0.966,3.479 -1.983,4.383 -1.016,0.904 -2.438,1.356 -4.265,1.356 -2.242,0 -3.998,-0.787 -5.271,-2.36 -1.273,-1.573 -1.909,-3.812 -1.909,-6.716 V 3.337 c 0,-2.742 0.602,-4.924 1.808,-6.543 1.207,-1.62 2.893,-2.43 5.061,-2.43 1.948,0 3.443,0.419 4.485,1.257 1.041,0.838 1.733,2.298 2.074,4.379 z"
             style="fill:#16509b;fill-opacity:1;fill-rule:nonzero;stroke:none"
             id="path218" /></g><path
           d="m 787.078,781.616 h -3.38 v 26.635 h 3.38 z"
           style="fill:#16509b;fill-opacity:1;fill-rule:nonzero;stroke:none"
           id="path220" /><g
           id="g222"
           transform="translate(794.2402,790.7891)"><path
             d="m 0,0 c 0,-2.08 0.509,-3.751 1.525,-5.011 1.017,-1.26 2.378,-1.89 4.083,-1.89 1.718,0 3.081,0.638 4.093,1.916 1.011,1.277 1.516,3.066 1.516,5.367 0,2.057 -0.515,3.725 -1.543,5.003 C 8.645,6.662 7.277,7.301 5.572,7.301 3.903,7.301 2.558,6.671 1.534,5.41 0.512,4.15 0,2.347 0,0 m -3.398,0.382 c 0,1.838 0.38,3.491 1.142,4.959 0.761,1.469 1.82,2.601 3.179,3.399 1.357,0.798 2.907,1.197 4.649,1.197 2.692,0 4.868,-0.885 6.532,-2.654 1.662,-1.768 2.493,-4.121 2.493,-7.057 V 0 c 0,-1.826 -0.368,-3.465 -1.105,-4.916 -0.737,-1.45 -1.791,-2.581 -3.161,-3.39 -1.37,-0.809 -2.944,-1.214 -4.723,-1.214 -2.679,0 -4.85,0.884 -6.512,2.654 -1.662,1.768 -2.494,4.109 -2.494,7.022 z"
             style="fill:#16509b;fill-opacity:1;fill-rule:nonzero;stroke:none"
             id="path224" /></g><g
           id="g226"
           transform="translate(824.5322,783.4717)"><path
             d="m 0,0 c -1.315,-1.469 -3.246,-2.202 -5.792,-2.202 -2.106,0 -3.711,0.581 -4.813,1.742 -1.103,1.162 -1.66,2.882 -1.672,5.159 v 12.208 h 3.38 V 4.786 c 0,-2.844 1.217,-4.265 3.654,-4.265 2.582,0 4.299,0.913 5.151,2.739 v 13.647 h 3.38 V -1.855 H 0.073 Z"
             style="fill:#16509b;fill-opacity:1;fill-rule:nonzero;stroke:none"
             id="path228" /></g><g
           id="g230"
           transform="translate(834.7627,790.7891)"><path
             d="m 0,0 c 0,-2.127 0.463,-3.792 1.389,-4.994 0.925,-1.202 2.204,-1.803 3.837,-1.803 2.142,0 3.708,0.913 4.694,2.739 V 4.561 C 8.909,6.33 7.356,7.214 5.262,7.214 3.605,7.214 2.314,6.607 1.389,5.394 0.463,4.18 0,2.382 0,0 m -3.38,0.364 c 0,2.879 0.719,5.194 2.156,6.946 1.437,1.751 3.319,2.627 5.645,2.627 2.314,0 4.147,-0.752 5.499,-2.254 v 9.779 H 13.3 V -9.173 H 10.194 L 10.03,-7.161 C 8.678,-8.733 6.796,-9.52 4.385,-9.52 c -2.29,0 -4.156,0.89 -5.6,2.67 -1.443,1.781 -2.165,4.105 -2.165,6.972 z"
             style="fill:#16509b;fill-opacity:1;fill-rule:nonzero;stroke:none"
             id="path232" /></g></g></g><text
       transform="matrix(1,0,0,-1,158,1414)"
       style="font-variant:normal;font-weight:normal;font-stretch:normal;font-size:15px;font-family:'Noto Sans CJK KR Regular';-inkscape-font-specification:NotoSansCJKkr-Regular;writing-mode:lr-tb;fill:#232323;fill-opacity:1;fill-rule:nonzero;stroke:none"
       id="text238"><tspan
         x="0 9.1049995 12.465 18.120001 25.934999 35.235001 43.544998 48.615002 59.445 68.25 73.68 82.769997 86.129997 95.084999 103.545 112.71 119.73"
         y="0"
         sodipodi:role="line"
         id="tspan234">A type(Noto Sans)</tspan><tspan
         x="0 9.8549995 13.215 18.870001 26.684999 35.985001 44.294998 49.365002 58.724998 67.815002 77.084999 85.889999 91.32 100.41"
         y="487.995"
         sodipodi:role="line"
         id="tspan236">B type(Roboto)</tspan></text><g
       id="g240"><g
         id="g242"
         clip-path="url(#clipPath246)"><g
           id="g248"
           transform="translate(395.1318,293.6777)"><path
             d="m 0,0 c 0.014,0.512 0.039,1.021 0.039,1.535 0,31.778 -25.754,57.537 -57.523,57.537 -25.504,0 -47.118,-16.607 -54.656,-39.595 -4.397,3.12 -9.764,4.96 -15.565,4.96 -13.527,0 -24.723,-9.976 -26.641,-22.973 -16.93,-4.012 -29.536,-19.297 -29.536,-37.553 0,-21.311 17.176,-38.589 38.362,-38.589 h 131.926 c 21.186,0 38.362,17.278 38.362,38.589 C 24.768,-19.592 14.475,-5.521 0,0"
             style="fill:#16509b;fill-opacity:1;fill-rule:evenodd;stroke:none"
             id="path250" /></g><g
           id="g252"
           transform="translate(337.2612,344.9814)"><path
             d="m 0,0 c -26.917,0 -48.736,-21.812 -48.736,-48.717 0,-26.907 21.819,-48.717 48.736,-48.717 26.917,0 48.738,21.81 48.738,48.717 C 48.738,-21.812 26.917,0 0,0 m 0,-0.971 c 26.339,0 47.766,-21.419 47.766,-47.746 0,-26.327 -21.427,-47.745 -47.766,-47.745 -26.338,0 -47.765,21.418 -47.765,47.745 0,26.327 21.427,47.746 47.765,47.746"
             style="fill:#ffffff;fill-opacity:1;fill-rule:nonzero;stroke:none"
             id="path254" /></g><g
           id="g256"
           transform="translate(337.2617,337.5488)"><path
             d="m 0,0 c 22.807,0 41.295,-18.484 41.295,-41.285 0,-22.801 -18.488,-41.283 -41.295,-41.283 -22.807,0 -41.295,18.482 -41.295,41.283 C -41.295,-18.484 -22.807,0 0,0"
             style="fill:#ffffff;fill-opacity:1;fill-rule:evenodd;stroke:none"
             id="path258" /></g><g
           id="g260"
           transform="translate(336.2676,322.7549)"><path
             d="m 0,0 c -14.727,0 -26.665,-11.938 -26.665,-26.664 0,-14.726 11.938,-26.663 26.665,-26.663 14.727,0 26.665,11.937 26.665,26.663 C 26.665,-11.938 14.727,0 0,0 m 0,-5.829 c 11.488,0 20.835,-9.347 20.835,-20.835 0,-11.489 -9.347,-20.835 -20.835,-20.835 -11.489,0 -20.835,9.346 -20.835,20.835 0,11.488 9.346,20.835 20.835,20.835"
             style="fill:#16509b;fill-opacity:1;fill-rule:nonzero;stroke:none"
             id="path262" /></g><g
           id="g264"
           transform="translate(323.1665,298.749)"><path
             d="M 0,0 C 1.241,4.634 4.879,8.273 9.491,9.486"
             style="fill:none;stroke:#16509b;stroke-width:3;stroke-linecap:round;stroke-linejoin:miter;stroke-miterlimit:10;stroke-dasharray:none;stroke-opacity:1"
             id="path266" /></g><g
           id="g268"
           transform="translate(380.5078,265.9619)"><path
             d="m 0,0 c 0,-2.729 -2.211,-4.938 -4.939,-4.938 -2.728,0 -4.939,2.209 -4.939,4.938 0,2.726 2.211,4.937 4.939,4.937 C -2.211,4.937 0,2.726 0,0"
             style="fill:#ffffff;fill-opacity:1;fill-rule:evenodd;stroke:none"
             id="path270" /></g><g
           id="g272"
           transform="translate(642.1562,281.877)"><path
             d="m 0,0 c 0.004,0.163 0.024,0.321 0.024,0.484 0,9.88 -8.006,17.889 -17.883,17.889 -7.932,0 -14.647,-5.169 -16.989,-12.319 -1.368,0.973 -3.037,1.551 -4.842,1.551 -4.207,0 -7.68,-3.106 -8.275,-7.149 -5.266,-1.245 -9.191,-5.991 -9.191,-11.668 0,-6.626 5.34,-11.998 11.927,-11.998 h 41.015 c 6.587,0 11.927,5.372 11.927,11.998 C 7.713,-6.081 4.504,-1.714 0,0"
             style="fill:#16509b;fill-opacity:1;fill-rule:evenodd;stroke:none"
             id="path274" /></g><g
           id="g276"
           transform="translate(624.1768,297.835)"><path
             d="m 0,0 c -8.368,0 -15.152,-6.781 -15.152,-15.146 0,-8.366 6.784,-15.146 15.152,-15.146 8.368,0 15.152,6.78 15.152,15.146 C 15.152,-6.781 8.368,0 0,0 m 0,-0.302 c 8.188,0 14.851,-6.659 14.851,-14.844 0,-8.185 -6.663,-14.844 -14.851,-14.844 -8.188,0 -14.85,6.659 -14.85,14.844 0,8.185 6.662,14.844 14.85,14.844"
             style="fill:#ffffff;fill-opacity:1;fill-rule:nonzero;stroke:none"
             id="path278" /></g><g
           id="g280"
           transform="translate(624.1768,295.5244)"><path
             d="m 0,0 c 7.091,0 12.839,-5.747 12.839,-12.836 0,-7.089 -5.748,-12.835 -12.839,-12.835 -7.09,0 -12.839,5.746 -12.839,12.835 C -12.839,-5.747 -7.09,0 0,0"
             style="fill:#ffffff;fill-opacity:1;fill-rule:evenodd;stroke:none"
             id="path282" /></g><g
           id="g284"
           transform="translate(623.8682,290.9248)"><path
             d="m 0,0 c -4.579,0 -8.29,-3.712 -8.29,-8.29 0,-4.578 3.711,-8.29 8.29,-8.29 4.578,0 8.29,3.712 8.29,8.29 C 8.29,-3.712 4.578,0 0,0 m 0,-1.812 c 3.571,0 6.478,-2.907 6.478,-6.478 0,-3.572 -2.907,-6.478 -6.478,-6.478 -3.572,0 -6.478,2.906 -6.478,6.478 0,3.571 2.906,6.478 6.478,6.478"
             style="fill:#16509b;fill-opacity:1;fill-rule:nonzero;stroke:none"
             id="path286" /></g><g
           id="g288"
           transform="translate(619.7949,283.4609)"><path
             d="M 0,0 C 0.386,1.44 1.517,2.572 2.95,2.949"
             style="fill:none;stroke:#16509b;stroke-width:3;stroke-linecap:round;stroke-linejoin:miter;stroke-miterlimit:10;stroke-dasharray:none;stroke-opacity:1"
             id="path290" /></g><g
           id="g292"
           transform="translate(637.6221,273.2676)"><path
             d="m 0,0 c 0,-0.849 -0.687,-1.535 -1.535,-1.535 -0.849,0 -1.536,0.686 -1.536,1.535 0,0.848 0.687,1.535 1.536,1.535 C -0.687,1.535 0,0.848 0,0"
             style="fill:#ffffff;fill-opacity:1;fill-rule:evenodd;stroke:none"
             id="path294" /></g><g
           id="g296"
           transform="translate(127,558.5)"><path
             d="M 0,0 H 811"
             style="fill:none;stroke:#a8a8a8;stroke-width:1;stroke-linecap:butt;stroke-linejoin:miter;stroke-miterlimit:10;stroke-dasharray:none;stroke-opacity:1"
             id="path298" /></g></g></g><text
       transform="matrix(1,0,0,-1,158,422)"
       style="font-variant:normal;font-weight:normal;font-stretch:normal;font-size:15px;font-family:'Noto Sans CJK KR Regular';-inkscape-font-specification:NotoSansCJKkr-Regular;writing-mode:lr-tb;fill:#232323;fill-opacity:1;fill-rule:nonzero;stroke:none"
       id="text302"><tspan
         x="0 9.5699997 12.93 18.584999 26.4 35.700001"
         y="0"
         sodipodi:role="line"
         id="tspan300">C type</tspan></text><g
       id="g304"><g
         id="g306"
         clip-path="url(#clipPath310)"><path
           d="M 226.25,190.256 H 212.5 V 186.5 h 13.75 z m 5,-8.756 H 207.5 V 199 l 5,0.006 v -3.756 h 13.75 v 3.756 l 5,-0.006 z m 5,-7.5 h -7.5 v -10 h -5 v 10 H 215 v -10 h -5 v 10 h -7.5 v 5 h 33.75 z"
           style="fill:#16509b;fill-opacity:1;fill-rule:nonzero;stroke:none"
           id="path312" /><g
           id="g314"
           transform="translate(272.5,181.5)"><path
             d="m 0,0 h -5 v -17.5 h -5 L -9.944,20 h 4.943 L -5,5 H 0 Z M -13.75,15 C -13.75,2.5 -17.5,-5 -30,-11.25 l -3.75,3.75 c 8.75,3.75 13.75,8.75 15,17.5 h -12.5 l -0.038,5 z"
             style="fill:#16509b;fill-opacity:1;fill-rule:nonzero;stroke:none"
             id="path316" /></g><g
           id="g318"
           transform="translate(303.75,177.75)"><path
             d="M 0,0 H -25 V 18.75 H 0 v -5 H -18.75 V 5 H 0 Z m 3.75,-11.25 h -32.5 v 5 h 32.5 z"
             style="fill:#16509b;fill-opacity:1;fill-rule:nonzero;stroke:none"
             id="path320" /></g><g
           id="g322"
           transform="translate(345,196.5312)"><path
             d="m 0,0 v -6.03 c -2.902,2.461 -5.905,3.691 -9.009,3.691 -3.419,0 -6.3,-1.245 -8.642,-3.735 -2.356,-2.476 -3.535,-5.505 -3.535,-9.088 0,-3.54 1.179,-6.525 3.535,-8.958 2.357,-2.432 5.244,-3.648 8.664,-3.648 1.767,0 3.268,0.29 4.504,0.873 0.69,0.291 1.404,0.684 2.145,1.18 0.739,0.495 1.519,1.092 2.338,1.792 v -6.139 c -2.874,-1.647 -5.891,-2.469 -9.052,-2.469 -4.756,0 -8.815,1.682 -12.177,5.047 -3.347,3.393 -5.021,7.486 -5.021,12.278 0,4.297 1.401,8.127 4.203,11.491 3.448,4.121 7.909,6.184 13.383,6.184 C -5.676,2.469 -2.788,1.645 0,0"
             style="fill:#16509b;fill-opacity:1;fill-rule:nonzero;stroke:none"
             id="path324" /></g><g
           id="g326"
           transform="translate(353.749,201.5)"><path
             d="m 0,0 0.001,-37.5 h -5 L -5,0 Z"
             style="fill:#16509b;fill-opacity:1;fill-rule:nonzero;stroke:none"
             id="path328" /></g><g
           id="g330"
           transform="translate(361.2305,175.3271)"><path
             d="m 0,0 c 0,-2.129 0.563,-3.813 1.689,-5.052 1.156,-1.253 2.679,-1.88 4.57,-1.88 1.906,0 3.428,0.62 4.569,1.859 1.14,1.238 1.711,2.892 1.711,4.964 0,2.069 -0.571,3.723 -1.711,4.963 C 9.673,6.106 8.15,6.733 6.259,6.733 4.396,6.733 2.888,6.106 1.732,4.854 0.578,3.6 0,1.981 0,0 m -4.98,0.086 c 0,3.076 1.09,5.692 3.27,7.85 2.179,2.158 4.836,3.237 7.969,3.237 3.147,0 5.818,-1.086 8.012,-3.258 2.166,-2.173 3.249,-4.84 3.249,-8.004 0,-3.191 -1.091,-5.866 -3.27,-8.024 -2.195,-2.143 -4.887,-3.214 -8.078,-3.214 -3.162,0 -5.811,1.094 -7.947,3.279 -2.137,2.158 -3.205,4.869 -3.205,8.134"
             style="fill:#16509b;fill-opacity:1;fill-rule:nonzero;stroke:none"
             id="path332" /></g><g
           id="g334"
           transform="translate(386.25,186.5)"><path
             d="m 0,0 v -12.5 c 0,-3.75 1.505,-5.633 4.375,-5.633 2.87,0 4.375,1.883 4.375,5.633 V 0 h 5 v -12.5 c 0,-1.694 -0.218,-3.642 -0.653,-4.872 -0.421,-1.102 -1.15,-2.094 -2.186,-2.978 -1.713,-1.433 -3.891,-2.15 -6.536,-2.15 -2.629,0 -4.8,0.717 -6.513,2.15 -1.051,0.884 -1.796,1.876 -2.231,2.978 C -4.79,-16.389 -5,-14.44 -5,-12.5 V 0 Z"
             style="fill:#16509b;fill-opacity:1;fill-rule:nonzero;stroke:none"
             id="path336" /></g><g
           id="g338"
           transform="translate(407.4365,175.3135)"><path
             d="m 0,0 c 0,-2.039 0.537,-3.698 1.61,-4.98 1.102,-1.295 2.49,-1.944 4.164,-1.944 1.789,0 3.234,0.627 4.336,1.878 1.102,1.297 1.653,2.942 1.653,4.937 0,1.994 -0.551,3.64 -1.653,4.935 C 9.008,6.094 7.578,6.727 5.817,6.727 4.157,6.727 2.769,6.086 1.653,4.805 0.551,3.509 0,1.907 0,0 m 11.313,26.187 h 5 v -37.5 h -5 v 2.5 c -1.903,-1.894 -3.907,-2.5 -6.311,-2.5 -2.862,0 -5.237,1.062 -7.127,3.189 C -4,-5.956 -4.937,-3.247 -4.937,0 c 0,3.174 0.937,5.823 2.812,7.95 1.861,2.141 4.2,3.211 7.02,3.211 2.446,0 4.486,-0.435 6.418,-2.474 z"
             style="fill:#16509b;fill-opacity:1;fill-rule:nonzero;stroke:none"
             id="path340" /></g><path
           d="M 765,44.006 H 751.25 V 40.25 H 765 Z m 5,-8.756 h -23.75 v 17.5 l 5,0.006 V 49 H 765 v 3.756 l 5,-0.006 z m 5,-7.5 h -7.5 v -10 h -5 v 10 h -8.75 v -10 h -5 v 10 h -7.5 v 5 H 775 Z"
           style="fill:#16509b;fill-opacity:1;fill-rule:nonzero;stroke:none"
           id="path342" /><g
           id="g344"
           transform="translate(811.25,35.25)"><path
             d="m 0,0 h -5 v -17.5 h -5 L -9.944,20 h 4.943 L -5,5 H 0 Z M -13.75,15 C -13.75,2.5 -17.5,-5 -30,-11.25 l -3.75,3.75 c 8.75,3.75 13.75,8.75 15,17.5 h -12.5 l -0.038,5 z"
             style="fill:#16509b;fill-opacity:1;fill-rule:nonzero;stroke:none"
             id="path346" /></g><g
           id="g348"
           transform="translate(842.5,31.5)"><path
             d="M 0,0 H -25 V 18.75 H 0 v -5 H -18.75 V 5 H 0 Z m 3.75,-11.25 h -32.5 v 5 h 32.5 z"
             style="fill:#16509b;fill-opacity:1;fill-rule:nonzero;stroke:none"
             id="path350" /></g><g
           id="g352"
           transform="translate(883.75,50.2813)"><path
             d="m 0,0 v -6.03 c -2.902,2.461 -5.905,3.691 -9.009,3.691 -3.42,0 -6.301,-1.245 -8.641,-3.735 -2.358,-2.476 -3.536,-5.505 -3.536,-9.088 0,-3.54 1.178,-6.525 3.536,-8.958 2.355,-2.432 5.244,-3.648 8.663,-3.648 1.767,0 3.268,0.29 4.505,0.873 0.689,0.291 1.403,0.684 2.144,1.18 0.739,0.495 1.52,1.092 2.338,1.792 v -6.139 c -2.874,-1.647 -5.892,-2.469 -9.052,-2.469 -4.756,0 -8.814,1.682 -12.177,5.047 -3.347,3.393 -5.021,7.486 -5.021,12.278 0,4.297 1.4,8.127 4.202,11.491 3.449,4.121 7.91,6.184 13.384,6.184 C -5.676,2.469 -2.787,1.645 0,0"
             style="fill:#16509b;fill-opacity:1;fill-rule:nonzero;stroke:none"
             id="path354" /></g><g
           id="g356"
           transform="translate(892.499,55.25)"><path
             d="m 0,0 0.001,-37.5 h -5 L -5,0 Z"
             style="fill:#16509b;fill-opacity:1;fill-rule:nonzero;stroke:none"
             id="path358" /></g><g
           id="g360"
           transform="translate(963.75,55.25)"><path
             d="m 0,0 0.001,-26.25 h -5 L -5,0 Z"
             style="fill:#16509b;fill-opacity:1;fill-rule:nonzero;stroke:none"
             id="path362" /></g><g
           id="g364"
           transform="translate(899.9805,29.0771)"><path
             d="m 0,0 c 0,-2.129 0.563,-3.813 1.689,-5.052 1.156,-1.253 2.678,-1.88 4.57,-1.88 1.906,0 3.429,0.62 4.569,1.859 1.14,1.238 1.711,2.892 1.711,4.964 0,2.069 -0.571,3.723 -1.711,4.963 C 9.673,6.106 8.149,6.733 6.259,6.733 4.396,6.733 2.888,6.106 1.732,4.854 0.578,3.6 0,1.981 0,0 m -4.98,0.086 c 0,3.076 1.089,5.692 3.269,7.85 2.181,2.158 4.837,3.237 7.97,3.237 3.146,0 5.817,-1.086 8.012,-3.258 2.166,-2.173 3.249,-4.84 3.249,-8.004 0,-3.191 -1.09,-5.866 -3.27,-8.024 -2.194,-2.143 -4.888,-3.214 -8.078,-3.214 -3.161,0 -5.811,1.094 -7.947,3.279 -2.137,2.158 -3.205,4.869 -3.205,8.134"
             style="fill:#16509b;fill-opacity:1;fill-rule:nonzero;stroke:none"
             id="path366" /></g><g
           id="g368"
           transform="translate(946.2305,29.0771)"><path
             d="m 0,0 c 0,-2.129 0.563,-3.813 1.689,-5.052 1.156,-1.253 2.678,-1.88 4.57,-1.88 1.906,0 3.429,0.62 4.569,1.859 1.14,1.238 1.711,2.892 1.711,4.964 0,2.069 -0.571,3.723 -1.711,4.963 C 9.673,6.106 8.149,6.733 6.259,6.733 4.396,6.733 2.888,6.106 1.732,4.854 0.578,3.6 0,1.981 0,0 m -4.98,0.086 c 0,3.076 1.089,5.692 3.269,7.85 2.181,2.158 4.837,3.237 7.97,3.237 3.146,0 5.817,-1.086 8.012,-3.258 2.166,-2.173 3.249,-4.84 3.249,-8.004 0,-3.191 -1.09,-5.866 -3.27,-8.024 -2.194,-2.143 -4.888,-3.214 -8.078,-3.214 -3.161,0 -5.811,1.094 -7.947,3.279 -2.137,2.158 -3.205,4.869 -3.205,8.134"
             style="fill:#16509b;fill-opacity:1;fill-rule:nonzero;stroke:none"
             id="path370" /></g><g
           id="g372"
           transform="translate(925,40.25)"><path
             d="m 0,0 v -12.5 c 0,-3.75 1.505,-5.633 4.375,-5.633 2.869,0 4.375,1.883 4.375,5.633 V 0 h 5 v -12.5 c 0,-1.694 -0.218,-3.642 -0.653,-4.872 -0.421,-1.102 -1.15,-2.094 -2.186,-2.978 -1.713,-1.433 -3.891,-2.15 -6.536,-2.15 -2.63,0 -4.8,0.717 -6.513,2.15 -1.051,0.884 -1.796,1.876 -2.231,2.978 C -4.79,-16.389 -5,-14.44 -5,-12.5 V 0 Z"
             style="fill:#16509b;fill-opacity:1;fill-rule:nonzero;stroke:none"
             id="path374" /></g><path
           d="m 682.286,282.796 h -8.709 v -2.379 h 8.709 z m 3.166,-5.545 h -15.041 v 11.083 l 3.166,0.003 v -2.378 h 8.709 v 2.378 l 3.166,-0.003 z m 3.167,-4.75 h -4.75 v -6.334 h -3.167 v 6.334 h -5.541 v -6.334 h -3.167 v 6.334 h -4.75 v 3.166 h 21.375 z"
           style="fill:#16509b;fill-opacity:1;fill-rule:nonzero;stroke:none"
           id="path376" /><g
           id="g378"
           transform="translate(711.5771,277.251)"><path
             d="m 0,0 h -3.166 v -11.084 h -3.167 l 0.035,23.75 h 3.131 l 10e-4,-9.5 3.166,0 z M -8.708,9.5 C -8.708,1.583 -11.083,-3.167 -19,-7.125 l -2.375,2.375 c 5.542,2.375 8.709,5.541 9.5,11.083 h -7.916 L -19.815,9.5 Z"
             style="fill:#16509b;fill-opacity:1;fill-rule:nonzero;stroke:none"
             id="path380" /></g><g
           id="g382"
           transform="translate(731.3691,274.876)"><path
             d="M 0,0 H -15.833 V 11.875 H 0 V 8.708 H -11.875 V 3.166 L 0,3.166 Z m 2.375,-7.125 h -20.583 v 3.166 H 2.375 Z"
             style="fill:#16509b;fill-opacity:1;fill-rule:nonzero;stroke:none"
             id="path384" /></g><g
           id="g386"
           transform="translate(757.4941,286.7705)"><path
             d="m 0,0 v -3.819 c -1.838,1.558 -3.74,2.338 -5.706,2.338 -2.165,0 -3.989,-0.789 -5.473,-2.366 -1.493,-1.568 -2.238,-3.487 -2.238,-5.757 0,-2.241 0.745,-4.131 2.238,-5.672 1.492,-1.54 3.322,-2.311 5.488,-2.311 1.119,0 2.069,0.185 2.852,0.554 0.437,0.183 0.889,0.432 1.358,0.747 0.468,0.313 0.962,0.691 1.481,1.135 v -3.889 c -1.82,-1.042 -3.731,-1.564 -5.732,-1.564 -3.013,0 -5.583,1.066 -7.713,3.198 -2.12,2.148 -3.18,4.74 -3.18,7.775 0,2.722 0.887,5.148 2.662,7.278 2.184,2.611 5.009,3.916 8.476,3.916 C -3.595,1.563 -1.766,1.042 0,0"
             style="fill:#16509b;fill-opacity:1;fill-rule:nonzero;stroke:none"
             id="path388" /></g><g
           id="g390"
           transform="translate(763.0352,289.917)"><path
             d="M 0,0 0.001,-23.75 H -3.166 L -3.167,0 Z"
             style="fill:#16509b;fill-opacity:1;fill-rule:nonzero;stroke:none"
             id="path392" /></g><g
           id="g394"
           transform="translate(767.7734,273.3408)"><path
             d="m 0,0 c 0,-1.348 0.357,-2.414 1.07,-3.199 0.732,-0.794 1.697,-1.191 2.894,-1.191 1.207,0 2.171,0.392 2.893,1.177 0.723,0.784 1.084,1.832 1.084,3.144 0,1.31 -0.361,2.358 -1.084,3.143 C 6.126,3.868 5.161,4.265 3.964,4.265 2.784,4.265 1.829,3.868 1.098,3.074 0.366,2.28 0,1.255 0,0 m -3.154,0.055 c 0,1.948 0.69,3.605 2.071,4.971 1.38,1.367 3.062,2.05 5.047,2.05 1.993,0 3.684,-0.687 5.074,-2.063 1.372,-1.376 2.058,-3.065 2.058,-5.069 0,-2.021 -0.691,-3.715 -2.072,-5.082 -1.389,-1.357 -3.094,-2.036 -5.115,-2.036 -2.003,0 -3.68,0.694 -5.033,2.077 -1.354,1.367 -2.03,3.084 -2.03,5.152"
             style="fill:#16509b;fill-opacity:1;fill-rule:nonzero;stroke:none"
             id="path396" /></g><g
           id="g398"
           transform="translate(783.6191,280.417)"><path
             d="m 0,0 v -7.916 c 0,-2.375 0.953,-3.568 2.771,-3.568 1.817,0 2.771,1.193 2.771,3.568 V 0 h 3.166 v -7.916 c 0,-1.073 -0.138,-2.307 -0.413,-3.086 C 8.028,-11.7 7.566,-12.328 6.91,-12.888 5.825,-13.796 4.445,-14.25 2.771,-14.25 c -1.666,0 -3.041,0.454 -4.125,1.362 -0.667,0.56 -1.137,1.188 -1.413,1.886 -0.266,0.623 -0.4,1.856 -0.4,3.086 l 0,7.916 z"
             style="fill:#16509b;fill-opacity:1;fill-rule:nonzero;stroke:none"
             id="path400" /></g><g
           id="g402"
           transform="translate(797.0371,273.333)"><path
             d="m 0,0 c 0,-1.292 0.341,-2.343 1.021,-3.154 0.697,-0.822 1.576,-1.232 2.636,-1.232 1.133,0 2.048,0.398 2.746,1.19 0.699,0.821 1.047,1.863 1.047,3.127 0,1.262 -0.348,2.304 -1.047,3.125 C 5.705,3.858 4.799,4.26 3.685,4.26 2.633,4.26 1.754,3.854 1.047,3.043 0.35,2.222 0,1.207 0,0 m 7.165,16.584 h 3.167 V -7.166 H 7.165 v 1.584 C 5.96,-6.782 4.69,-7.166 3.168,-7.166 c -1.813,0 -3.317,0.673 -4.514,2.02 -1.187,1.374 -1.78,3.088 -1.78,5.146 0,2.01 0.593,3.688 1.78,5.034 1.179,1.357 2.66,2.034 4.446,2.034 1.549,0 2.841,-0.276 4.065,-1.567 z"
             style="fill:#16509b;fill-opacity:1;fill-rule:nonzero;stroke:none"
             id="path404" /></g></g></g></g></svg>
